G04 #@! TF.FileFunction,Copper,L1,Top,Signal*
%FSLAX46Y46*%
G04 Gerber Fmt 4.6, Leading zero omitted, Abs format (unit mm)*
G04 Created by KiCad (PCBNEW 4.0.4-stable) date 02/14/17 18:31:22*
%MOMM*%
%LPD*%
G01*
G04 APERTURE LIST*
%ADD10C,0.100000*%
%ADD11C,1.524000*%
%ADD12C,4.000000*%
%ADD13C,1.600000*%
%ADD14C,4.300220*%
%ADD15O,1.501140X4.000500*%
%ADD16O,3.010000X1.510000*%
%ADD17C,1.400000*%
%ADD18O,1.400000X1.400000*%
%ADD19O,1.200000X2.000000*%
%ADD20C,0.600000*%
%ADD21C,1.000000*%
%ADD22C,0.254000*%
G04 APERTURE END LIST*
D10*
D11*
X133175000Y-120745000D03*
X133175000Y-118745000D03*
X133175000Y-116745000D03*
D12*
X126175000Y-123745000D03*
X126175000Y-113745000D03*
D11*
X119175000Y-116745000D03*
X119175000Y-120745000D03*
D13*
X128651000Y-128905000D03*
X123651000Y-128905000D03*
X128524000Y-107188000D03*
X123524000Y-107188000D03*
X110744000Y-121031000D03*
X110744000Y-116031000D03*
D14*
X110980220Y-70797420D03*
X186029600Y-70797420D03*
X185978800Y-101798120D03*
X110980220Y-101798120D03*
D15*
X115978940Y-70497700D03*
X118518940Y-70497700D03*
X121058940Y-70497700D03*
X123598940Y-70497700D03*
X126138940Y-70497700D03*
X128678940Y-70497700D03*
X131218940Y-70497700D03*
X133758940Y-70497700D03*
X136298940Y-70497700D03*
X138838940Y-70497700D03*
X141378940Y-70497700D03*
X143918940Y-70497700D03*
X146458940Y-70497700D03*
X148998940Y-70497700D03*
X151538940Y-70497700D03*
X154078940Y-70497700D03*
D16*
X112268000Y-111633000D03*
X112268000Y-109093000D03*
X185928000Y-119253000D03*
X185928000Y-116713000D03*
D17*
X165100000Y-72771000D03*
D18*
X172720000Y-72771000D03*
D17*
X131572000Y-80518000D03*
D18*
X139192000Y-80518000D03*
D19*
X166132000Y-128507000D03*
X166132000Y-108507000D03*
X163592000Y-128507000D03*
X163592000Y-108507000D03*
X161052000Y-128507000D03*
X161052000Y-108507000D03*
X158512000Y-128507000D03*
X158512000Y-108507000D03*
X155972000Y-128507000D03*
X155972000Y-108507000D03*
X153432000Y-128507000D03*
X153432000Y-108507000D03*
X150892000Y-128507000D03*
X150892000Y-108507000D03*
X148352000Y-128507000D03*
X148352000Y-108507000D03*
X145812000Y-128507000D03*
X145812000Y-108507000D03*
X143272000Y-128507000D03*
X143272000Y-108507000D03*
X148717000Y-84583000D03*
X148717000Y-100583000D03*
X151257000Y-84583000D03*
X151257000Y-100583000D03*
X153797000Y-84583000D03*
X153797000Y-100583000D03*
X156337000Y-84583000D03*
X156337000Y-100583000D03*
X158877000Y-84583000D03*
X158877000Y-100583000D03*
X161417000Y-84583000D03*
X161417000Y-100583000D03*
X163957000Y-84583000D03*
X163957000Y-100583000D03*
X166497000Y-84583000D03*
X166497000Y-100583000D03*
X169037000Y-84583000D03*
X169037000Y-100583000D03*
X171577000Y-84583000D03*
X171577000Y-100583000D03*
X174117000Y-84583000D03*
X174117000Y-100583000D03*
X176657000Y-84583000D03*
X176657000Y-100583000D03*
D20*
X130556000Y-112649000D03*
X161417000Y-96901000D03*
X156464000Y-73025000D03*
X122555000Y-91186000D03*
X177546000Y-125222000D03*
X180975000Y-81534000D03*
X156337000Y-87122000D03*
X136017000Y-76962000D03*
X122809000Y-81280000D03*
X157988000Y-76835000D03*
X159004000Y-80899000D03*
X145796000Y-87122000D03*
X147447000Y-73406000D03*
X150495000Y-80772000D03*
X148971000Y-74549000D03*
D21*
X161417000Y-100583000D02*
X161417000Y-96901000D01*
X130905000Y-120745000D02*
X133175000Y-120745000D01*
X130175000Y-120015000D02*
X130905000Y-120745000D01*
X130175000Y-113030000D02*
X130175000Y-120015000D01*
X130556000Y-112649000D02*
X130175000Y-113030000D01*
X133175000Y-120745000D02*
X133175000Y-124381000D01*
X133175000Y-124381000D02*
X128651000Y-128905000D01*
X156451300Y-73037700D02*
X154078940Y-70497700D01*
X156464000Y-73025000D02*
X156451300Y-73037700D01*
X163957000Y-100583000D02*
X163957000Y-101981000D01*
X132969000Y-107442000D02*
X132969000Y-111887000D01*
X136017000Y-104394000D02*
X132969000Y-107442000D01*
X161544000Y-104394000D02*
X136017000Y-104394000D01*
X163957000Y-101981000D02*
X161544000Y-104394000D01*
X128524000Y-107188000D02*
X128524000Y-107442000D01*
X128524000Y-107442000D02*
X132969000Y-111887000D01*
X132969000Y-111887000D02*
X133175000Y-112093000D01*
X133175000Y-112093000D02*
X133175000Y-116745000D01*
X158877000Y-100583000D02*
X158877000Y-97409000D01*
X122333000Y-120745000D02*
X119175000Y-120745000D01*
X123571000Y-119507000D02*
X122333000Y-120745000D01*
X123571000Y-116713000D02*
X123571000Y-119507000D01*
X120650000Y-113792000D02*
X123571000Y-116713000D01*
X120650000Y-103251000D02*
X120650000Y-113792000D01*
X125730000Y-96139000D02*
X120650000Y-103251000D01*
X157099000Y-96139000D02*
X125730000Y-96139000D01*
X158877000Y-97409000D02*
X157099000Y-96139000D01*
X119175000Y-120745000D02*
X111030000Y-120745000D01*
X111030000Y-120745000D02*
X110744000Y-121031000D01*
X122428000Y-91313000D02*
X118518940Y-91313000D01*
X122555000Y-91186000D02*
X122428000Y-91313000D01*
X166132000Y-128507000D02*
X174261000Y-128507000D01*
X174261000Y-128507000D02*
X177546000Y-125222000D01*
X118518940Y-70497700D02*
X118518940Y-91313000D01*
X118518940Y-91313000D02*
X118518940Y-109446060D01*
X118518940Y-109446060D02*
X116332000Y-111633000D01*
X116332000Y-111633000D02*
X112268000Y-111633000D01*
X156337000Y-84583000D02*
X156337000Y-87122000D01*
X180975000Y-81534000D02*
X172720000Y-73279000D01*
X172720000Y-73279000D02*
X172720000Y-72771000D01*
X156337000Y-84583000D02*
X156337000Y-85113998D01*
X121058940Y-70497700D02*
X121058940Y-73814940D01*
X127762000Y-80518000D02*
X131572000Y-80518000D01*
X121058940Y-73814940D02*
X127762000Y-80518000D01*
X174117000Y-84583000D02*
X174117000Y-87122000D01*
X123598940Y-73052940D02*
X123598940Y-70497700D01*
X125984000Y-75438000D02*
X123598940Y-73052940D01*
X130556000Y-75438000D02*
X125984000Y-75438000D01*
X140716000Y-91440000D02*
X130556000Y-75438000D01*
X171958000Y-91440000D02*
X140716000Y-91440000D01*
X174117000Y-87122000D02*
X171958000Y-91440000D01*
X176657000Y-84583000D02*
X185167000Y-84583000D01*
X128678940Y-73179940D02*
X128678940Y-70497700D01*
X129436998Y-73937998D02*
X128678940Y-73179940D01*
X132992998Y-73937998D02*
X129436998Y-73937998D01*
X136017000Y-76962000D02*
X132992998Y-73937998D01*
X122809000Y-86487000D02*
X122809000Y-81280000D01*
X130683000Y-94361000D02*
X122809000Y-86487000D01*
X182880000Y-94361000D02*
X130683000Y-94361000D01*
X185293000Y-91948000D02*
X182880000Y-94361000D01*
X185293000Y-84709000D02*
X185293000Y-91948000D01*
X185167000Y-84583000D02*
X185293000Y-84709000D01*
X141378940Y-70497700D02*
X141378940Y-73687940D01*
X166497000Y-81407000D02*
X166497000Y-84583000D01*
X164084000Y-78994000D02*
X166497000Y-81407000D01*
X146685000Y-78994000D02*
X164084000Y-78994000D01*
X141378940Y-73687940D02*
X146685000Y-78994000D01*
X143918940Y-70497700D02*
X143918940Y-72290940D01*
X143918940Y-72290940D02*
X148463000Y-76835000D01*
X148463000Y-76835000D02*
X157988000Y-76835000D01*
X159004000Y-80899000D02*
X159385000Y-81280000D01*
X159385000Y-81280000D02*
X162687000Y-81280000D01*
X162687000Y-81280000D02*
X163957000Y-82550000D01*
X163957000Y-82550000D02*
X163957000Y-84583000D01*
X158496000Y-89408000D02*
X161417000Y-84583000D01*
X148082000Y-89408000D02*
X158496000Y-89408000D01*
X146431000Y-87757000D02*
X148082000Y-89408000D01*
X145796000Y-87122000D02*
X146431000Y-87757000D01*
X146458940Y-72417940D02*
X147447000Y-73406000D01*
X146458940Y-70497700D02*
X146458940Y-72417940D01*
X158877000Y-84583000D02*
X158877000Y-83820000D01*
X158877000Y-83820000D02*
X155829000Y-80772000D01*
X155829000Y-80772000D02*
X150495000Y-80772000D01*
X148971000Y-74549000D02*
X148998940Y-74521060D01*
X148998940Y-74521060D02*
X148998940Y-70497700D01*
X151538940Y-70497700D02*
X151538940Y-73687940D01*
X162687000Y-75184000D02*
X165100000Y-72771000D01*
X153035000Y-75184000D02*
X162687000Y-75184000D01*
X151538940Y-73687940D02*
X153035000Y-75184000D01*
X143272000Y-108507000D02*
X143272000Y-116856000D01*
X177419000Y-121285000D02*
X185928000Y-119253000D01*
X148717000Y-121285000D02*
X177419000Y-121285000D01*
X143272000Y-116856000D02*
X148717000Y-121285000D01*
X169037000Y-100583000D02*
X169037000Y-102616000D01*
X163592000Y-105521000D02*
X163592000Y-108507000D01*
X164719000Y-104394000D02*
X163592000Y-105521000D01*
X167259000Y-104394000D02*
X164719000Y-104394000D01*
X169037000Y-102616000D02*
X167259000Y-104394000D01*
X171577000Y-100583000D02*
X171577000Y-109728000D01*
X161052000Y-110760000D02*
X161052000Y-108507000D01*
X162687000Y-112395000D02*
X161052000Y-110760000D01*
X168910000Y-112395000D02*
X162687000Y-112395000D01*
X171577000Y-109728000D02*
X168910000Y-112395000D01*
X158512000Y-108507000D02*
X158512000Y-111522000D01*
X174117000Y-111379000D02*
X174117000Y-100583000D01*
X169672000Y-115824000D02*
X174117000Y-111379000D01*
X162814000Y-115824000D02*
X169672000Y-115824000D01*
X158512000Y-111522000D02*
X162814000Y-115824000D01*
X176657000Y-100583000D02*
X176657000Y-114427000D01*
X155972000Y-112919000D02*
X155972000Y-108507000D01*
X161925000Y-118872000D02*
X155972000Y-112919000D01*
X172212000Y-118872000D02*
X161925000Y-118872000D01*
X176657000Y-114427000D02*
X172212000Y-118872000D01*
D22*
G36*
X115851938Y-68027790D02*
X115637665Y-67905137D01*
X115566037Y-67919320D01*
X115088996Y-68178472D01*
X114747441Y-68600453D01*
X114593370Y-69121020D01*
X114593370Y-70370700D01*
X115851940Y-70370700D01*
X115851940Y-70350700D01*
X116105940Y-70350700D01*
X116105940Y-70370700D01*
X116125940Y-70370700D01*
X116125940Y-70624700D01*
X116105940Y-70624700D01*
X116105940Y-72967609D01*
X116320215Y-73090263D01*
X116391843Y-73076080D01*
X116868884Y-72816928D01*
X117210439Y-72394947D01*
X117235241Y-72311148D01*
X117238840Y-72329243D01*
X117383940Y-72546400D01*
X117383940Y-108975928D01*
X115861868Y-110498000D01*
X113815137Y-110498000D01*
X113594013Y-110350249D01*
X113667263Y-110328592D01*
X114090681Y-109986076D01*
X114350793Y-109507597D01*
X114365277Y-109434971D01*
X114242683Y-109220000D01*
X112395000Y-109220000D01*
X112395000Y-109240000D01*
X112141000Y-109240000D01*
X112141000Y-109220000D01*
X110293317Y-109220000D01*
X110170723Y-109434971D01*
X110185207Y-109507597D01*
X110445319Y-109986076D01*
X110868737Y-110328592D01*
X110941987Y-110350249D01*
X110493197Y-110650122D01*
X110191882Y-111101070D01*
X110086075Y-111633000D01*
X110191882Y-112164930D01*
X110493197Y-112615878D01*
X110944145Y-112917193D01*
X111476075Y-113023000D01*
X113059925Y-113023000D01*
X113591855Y-112917193D01*
X113815137Y-112768000D01*
X116332000Y-112768000D01*
X116766346Y-112681603D01*
X117134566Y-112435566D01*
X119321506Y-110248626D01*
X119371348Y-110174032D01*
X119515000Y-109959042D01*
X119515000Y-113792000D01*
X119601397Y-114226346D01*
X119735470Y-114427000D01*
X119847434Y-114594566D01*
X122436000Y-117183132D01*
X122436000Y-119036868D01*
X121862868Y-119610000D01*
X120015914Y-119610000D01*
X119967370Y-119561371D01*
X119454100Y-119348243D01*
X118898339Y-119347758D01*
X118384697Y-119559990D01*
X118334600Y-119610000D01*
X111063805Y-119610000D01*
X111030691Y-119596250D01*
X110459813Y-119595752D01*
X109932200Y-119813757D01*
X109528176Y-120217077D01*
X109309250Y-120744309D01*
X109308752Y-121315187D01*
X109526757Y-121842800D01*
X109930077Y-122246824D01*
X110457309Y-122465750D01*
X111028187Y-122466248D01*
X111555800Y-122248243D01*
X111924686Y-121880000D01*
X118334086Y-121880000D01*
X118382630Y-121928629D01*
X118895900Y-122141757D01*
X119451661Y-122142242D01*
X119965303Y-121930010D01*
X120015400Y-121880000D01*
X122333000Y-121880000D01*
X122767346Y-121793603D01*
X123135566Y-121547566D01*
X124373566Y-120309566D01*
X124619603Y-119941346D01*
X124650716Y-119784930D01*
X124706000Y-119507000D01*
X124706000Y-116713000D01*
X124619603Y-116278654D01*
X124373566Y-115910434D01*
X122729966Y-114266834D01*
X123539543Y-114266834D01*
X123939853Y-115235658D01*
X124680443Y-115977542D01*
X125648567Y-116379542D01*
X126696834Y-116380457D01*
X127665658Y-115980147D01*
X128407542Y-115239557D01*
X128809542Y-114271433D01*
X128810457Y-113223166D01*
X128410147Y-112254342D01*
X127669557Y-111512458D01*
X126701433Y-111110458D01*
X125653166Y-111109543D01*
X124684342Y-111509853D01*
X123942458Y-112250443D01*
X123540458Y-113218567D01*
X123539543Y-114266834D01*
X122729966Y-114266834D01*
X121785000Y-113321868D01*
X121785000Y-108195745D01*
X122695861Y-108195745D01*
X122769995Y-108441864D01*
X123307223Y-108634965D01*
X123877454Y-108607778D01*
X124278005Y-108441864D01*
X124352139Y-108195745D01*
X123524000Y-107367605D01*
X122695861Y-108195745D01*
X121785000Y-108195745D01*
X121785000Y-106971223D01*
X122077035Y-106971223D01*
X122104222Y-107541454D01*
X122270136Y-107942005D01*
X122516255Y-108016139D01*
X123344395Y-107188000D01*
X123703605Y-107188000D01*
X124531745Y-108016139D01*
X124777864Y-107942005D01*
X124946735Y-107472187D01*
X127088752Y-107472187D01*
X127306757Y-107999800D01*
X127710077Y-108403824D01*
X128001845Y-108524977D01*
X131252292Y-111775424D01*
X130990345Y-111600397D01*
X130556000Y-111514001D01*
X130121654Y-111600397D01*
X129753434Y-111846434D01*
X129372434Y-112227434D01*
X129126397Y-112595654D01*
X129040000Y-113030000D01*
X129040000Y-120015000D01*
X129126397Y-120449346D01*
X129255793Y-120643000D01*
X129372434Y-120817566D01*
X130102434Y-121547566D01*
X130470654Y-121793603D01*
X130905000Y-121880000D01*
X132040000Y-121880000D01*
X132040000Y-123910868D01*
X128481016Y-127469852D01*
X128366813Y-127469752D01*
X127839200Y-127687757D01*
X127435176Y-128091077D01*
X127216250Y-128618309D01*
X127215752Y-129189187D01*
X127433757Y-129716800D01*
X127837077Y-130120824D01*
X128364309Y-130339750D01*
X128935187Y-130340248D01*
X129462800Y-130122243D01*
X129866824Y-129718923D01*
X130085750Y-129191691D01*
X130085852Y-129075280D01*
X130527132Y-128634000D01*
X142037000Y-128634000D01*
X142037000Y-129034000D01*
X142179610Y-129496947D01*
X142488526Y-129870080D01*
X142916719Y-130096592D01*
X142954391Y-130100462D01*
X143145000Y-129975731D01*
X143145000Y-128634000D01*
X143399000Y-128634000D01*
X143399000Y-129975731D01*
X143589609Y-130100462D01*
X143627281Y-130096592D01*
X144055474Y-129870080D01*
X144364390Y-129496947D01*
X144507000Y-129034000D01*
X144507000Y-128634000D01*
X143399000Y-128634000D01*
X143145000Y-128634000D01*
X142037000Y-128634000D01*
X130527132Y-128634000D01*
X131181132Y-127980000D01*
X142037000Y-127980000D01*
X142037000Y-128380000D01*
X143145000Y-128380000D01*
X143145000Y-127038269D01*
X143399000Y-127038269D01*
X143399000Y-128380000D01*
X144507000Y-128380000D01*
X144507000Y-128074968D01*
X144577000Y-128074968D01*
X144577000Y-128939032D01*
X144671009Y-129411646D01*
X144938723Y-129812309D01*
X145339386Y-130080023D01*
X145812000Y-130174032D01*
X146284614Y-130080023D01*
X146685277Y-129812309D01*
X146952991Y-129411646D01*
X147047000Y-128939032D01*
X147047000Y-128074968D01*
X147117000Y-128074968D01*
X147117000Y-128939032D01*
X147211009Y-129411646D01*
X147478723Y-129812309D01*
X147879386Y-130080023D01*
X148352000Y-130174032D01*
X148824614Y-130080023D01*
X149225277Y-129812309D01*
X149492991Y-129411646D01*
X149587000Y-128939032D01*
X149587000Y-128074968D01*
X149657000Y-128074968D01*
X149657000Y-128939032D01*
X149751009Y-129411646D01*
X150018723Y-129812309D01*
X150419386Y-130080023D01*
X150892000Y-130174032D01*
X151364614Y-130080023D01*
X151765277Y-129812309D01*
X152032991Y-129411646D01*
X152127000Y-128939032D01*
X152127000Y-128074968D01*
X152197000Y-128074968D01*
X152197000Y-128939032D01*
X152291009Y-129411646D01*
X152558723Y-129812309D01*
X152959386Y-130080023D01*
X153432000Y-130174032D01*
X153904614Y-130080023D01*
X154305277Y-129812309D01*
X154572991Y-129411646D01*
X154667000Y-128939032D01*
X154667000Y-128074968D01*
X154737000Y-128074968D01*
X154737000Y-128939032D01*
X154831009Y-129411646D01*
X155098723Y-129812309D01*
X155499386Y-130080023D01*
X155972000Y-130174032D01*
X156444614Y-130080023D01*
X156845277Y-129812309D01*
X157112991Y-129411646D01*
X157207000Y-128939032D01*
X157207000Y-128074968D01*
X157277000Y-128074968D01*
X157277000Y-128939032D01*
X157371009Y-129411646D01*
X157638723Y-129812309D01*
X158039386Y-130080023D01*
X158512000Y-130174032D01*
X158984614Y-130080023D01*
X159385277Y-129812309D01*
X159652991Y-129411646D01*
X159747000Y-128939032D01*
X159747000Y-128074968D01*
X159817000Y-128074968D01*
X159817000Y-128939032D01*
X159911009Y-129411646D01*
X160178723Y-129812309D01*
X160579386Y-130080023D01*
X161052000Y-130174032D01*
X161524614Y-130080023D01*
X161925277Y-129812309D01*
X162192991Y-129411646D01*
X162287000Y-128939032D01*
X162287000Y-128074968D01*
X162357000Y-128074968D01*
X162357000Y-128939032D01*
X162451009Y-129411646D01*
X162718723Y-129812309D01*
X163119386Y-130080023D01*
X163592000Y-130174032D01*
X164064614Y-130080023D01*
X164465277Y-129812309D01*
X164732991Y-129411646D01*
X164827000Y-128939032D01*
X164827000Y-128074968D01*
X164897000Y-128074968D01*
X164897000Y-128939032D01*
X164991009Y-129411646D01*
X165258723Y-129812309D01*
X165659386Y-130080023D01*
X166132000Y-130174032D01*
X166604614Y-130080023D01*
X167005277Y-129812309D01*
X167119074Y-129642000D01*
X174261000Y-129642000D01*
X174695346Y-129555603D01*
X175063566Y-129309566D01*
X178348567Y-126024566D01*
X178594604Y-125656345D01*
X178681000Y-125222000D01*
X178594604Y-124787654D01*
X178348567Y-124419433D01*
X177980346Y-124173396D01*
X177546000Y-124087000D01*
X177111655Y-124173396D01*
X176743434Y-124419433D01*
X173790868Y-127372000D01*
X167119074Y-127372000D01*
X167005277Y-127201691D01*
X166604614Y-126933977D01*
X166132000Y-126839968D01*
X165659386Y-126933977D01*
X165258723Y-127201691D01*
X164991009Y-127602354D01*
X164897000Y-128074968D01*
X164827000Y-128074968D01*
X164732991Y-127602354D01*
X164465277Y-127201691D01*
X164064614Y-126933977D01*
X163592000Y-126839968D01*
X163119386Y-126933977D01*
X162718723Y-127201691D01*
X162451009Y-127602354D01*
X162357000Y-128074968D01*
X162287000Y-128074968D01*
X162192991Y-127602354D01*
X161925277Y-127201691D01*
X161524614Y-126933977D01*
X161052000Y-126839968D01*
X160579386Y-126933977D01*
X160178723Y-127201691D01*
X159911009Y-127602354D01*
X159817000Y-128074968D01*
X159747000Y-128074968D01*
X159652991Y-127602354D01*
X159385277Y-127201691D01*
X158984614Y-126933977D01*
X158512000Y-126839968D01*
X158039386Y-126933977D01*
X157638723Y-127201691D01*
X157371009Y-127602354D01*
X157277000Y-128074968D01*
X157207000Y-128074968D01*
X157112991Y-127602354D01*
X156845277Y-127201691D01*
X156444614Y-126933977D01*
X155972000Y-126839968D01*
X155499386Y-126933977D01*
X155098723Y-127201691D01*
X154831009Y-127602354D01*
X154737000Y-128074968D01*
X154667000Y-128074968D01*
X154572991Y-127602354D01*
X154305277Y-127201691D01*
X153904614Y-126933977D01*
X153432000Y-126839968D01*
X152959386Y-126933977D01*
X152558723Y-127201691D01*
X152291009Y-127602354D01*
X152197000Y-128074968D01*
X152127000Y-128074968D01*
X152032991Y-127602354D01*
X151765277Y-127201691D01*
X151364614Y-126933977D01*
X150892000Y-126839968D01*
X150419386Y-126933977D01*
X150018723Y-127201691D01*
X149751009Y-127602354D01*
X149657000Y-128074968D01*
X149587000Y-128074968D01*
X149492991Y-127602354D01*
X149225277Y-127201691D01*
X148824614Y-126933977D01*
X148352000Y-126839968D01*
X147879386Y-126933977D01*
X147478723Y-127201691D01*
X147211009Y-127602354D01*
X147117000Y-128074968D01*
X147047000Y-128074968D01*
X146952991Y-127602354D01*
X146685277Y-127201691D01*
X146284614Y-126933977D01*
X145812000Y-126839968D01*
X145339386Y-126933977D01*
X144938723Y-127201691D01*
X144671009Y-127602354D01*
X144577000Y-128074968D01*
X144507000Y-128074968D01*
X144507000Y-127980000D01*
X144364390Y-127517053D01*
X144055474Y-127143920D01*
X143627281Y-126917408D01*
X143589609Y-126913538D01*
X143399000Y-127038269D01*
X143145000Y-127038269D01*
X142954391Y-126913538D01*
X142916719Y-126917408D01*
X142488526Y-127143920D01*
X142179610Y-127517053D01*
X142037000Y-127980000D01*
X131181132Y-127980000D01*
X133977566Y-125183566D01*
X134076700Y-125035201D01*
X134223603Y-124815346D01*
X134310000Y-124381000D01*
X134310000Y-121585914D01*
X134358629Y-121537370D01*
X134571757Y-121024100D01*
X134572242Y-120468339D01*
X134360010Y-119954697D01*
X133967370Y-119561371D01*
X133701273Y-119450878D01*
X133175000Y-118924605D01*
X133160858Y-118938748D01*
X132981253Y-118759143D01*
X132995395Y-118745000D01*
X133354605Y-118745000D01*
X134155213Y-119545608D01*
X134397397Y-119476143D01*
X134584144Y-118952698D01*
X134556362Y-118397632D01*
X134397397Y-118013857D01*
X134155213Y-117944392D01*
X133354605Y-118745000D01*
X132995395Y-118745000D01*
X132194787Y-117944392D01*
X131952603Y-118013857D01*
X131765856Y-118537302D01*
X131793638Y-119092368D01*
X131952603Y-119476143D01*
X132194785Y-119545607D01*
X132130392Y-119610000D01*
X131375132Y-119610000D01*
X131310000Y-119544868D01*
X131310000Y-113500132D01*
X131358566Y-113451566D01*
X131604603Y-113083346D01*
X131690999Y-112649000D01*
X131604603Y-112214655D01*
X131429576Y-111952708D01*
X132040000Y-112563132D01*
X132040000Y-115904086D01*
X131991371Y-115952630D01*
X131778243Y-116465900D01*
X131777758Y-117021661D01*
X131989990Y-117535303D01*
X132382630Y-117928629D01*
X132648727Y-118039122D01*
X133175000Y-118565395D01*
X133701302Y-118039093D01*
X133965303Y-117930010D01*
X134358629Y-117537370D01*
X134571757Y-117024100D01*
X134572242Y-116468339D01*
X134360010Y-115954697D01*
X134310000Y-115904600D01*
X134310000Y-112093000D01*
X134223603Y-111658654D01*
X134104000Y-111479656D01*
X134104000Y-108074968D01*
X142037000Y-108074968D01*
X142037000Y-108939032D01*
X142131009Y-109411646D01*
X142137000Y-109420612D01*
X142137000Y-116856000D01*
X142148467Y-116913651D01*
X142142961Y-116972174D01*
X142191343Y-117129198D01*
X142223397Y-117290346D01*
X142256054Y-117339220D01*
X142273362Y-117395395D01*
X142378149Y-117521949D01*
X142469434Y-117658566D01*
X142518310Y-117691224D01*
X142555797Y-117736498D01*
X148000797Y-122165499D01*
X148146041Y-122242321D01*
X148282654Y-122333603D01*
X148340305Y-122345071D01*
X148392267Y-122372554D01*
X148555853Y-122387946D01*
X148717000Y-122420000D01*
X177419000Y-122420000D01*
X177549584Y-122394025D01*
X177682632Y-122388958D01*
X185058471Y-120627564D01*
X185136075Y-120643000D01*
X186719925Y-120643000D01*
X187251855Y-120537193D01*
X187702803Y-120235878D01*
X188004118Y-119784930D01*
X188109925Y-119253000D01*
X188004118Y-118721070D01*
X187702803Y-118270122D01*
X187254013Y-117970249D01*
X187327263Y-117948592D01*
X187750681Y-117606076D01*
X188010793Y-117127597D01*
X188025277Y-117054971D01*
X187902683Y-116840000D01*
X186055000Y-116840000D01*
X186055000Y-116860000D01*
X185801000Y-116860000D01*
X185801000Y-116840000D01*
X183953317Y-116840000D01*
X183830723Y-117054971D01*
X183845207Y-117127597D01*
X184105319Y-117606076D01*
X184528737Y-117948592D01*
X184601987Y-117970249D01*
X184153197Y-118270122D01*
X183962548Y-118555447D01*
X177285356Y-120150000D01*
X149120320Y-120150000D01*
X144407000Y-116316154D01*
X144407000Y-109420612D01*
X144412991Y-109411646D01*
X144507000Y-108939032D01*
X144507000Y-108074968D01*
X144577000Y-108074968D01*
X144577000Y-108939032D01*
X144671009Y-109411646D01*
X144938723Y-109812309D01*
X145339386Y-110080023D01*
X145812000Y-110174032D01*
X146284614Y-110080023D01*
X146685277Y-109812309D01*
X146952991Y-109411646D01*
X147047000Y-108939032D01*
X147047000Y-108074968D01*
X147117000Y-108074968D01*
X147117000Y-108939032D01*
X147211009Y-109411646D01*
X147478723Y-109812309D01*
X147879386Y-110080023D01*
X148352000Y-110174032D01*
X148824614Y-110080023D01*
X149225277Y-109812309D01*
X149492991Y-109411646D01*
X149587000Y-108939032D01*
X149587000Y-108074968D01*
X149657000Y-108074968D01*
X149657000Y-108939032D01*
X149751009Y-109411646D01*
X150018723Y-109812309D01*
X150419386Y-110080023D01*
X150892000Y-110174032D01*
X151364614Y-110080023D01*
X151765277Y-109812309D01*
X152032991Y-109411646D01*
X152127000Y-108939032D01*
X152127000Y-108634000D01*
X152197000Y-108634000D01*
X152197000Y-109034000D01*
X152339610Y-109496947D01*
X152648526Y-109870080D01*
X153076719Y-110096592D01*
X153114391Y-110100462D01*
X153305000Y-109975731D01*
X153305000Y-108634000D01*
X153559000Y-108634000D01*
X153559000Y-109975731D01*
X153749609Y-110100462D01*
X153787281Y-110096592D01*
X154215474Y-109870080D01*
X154524390Y-109496947D01*
X154667000Y-109034000D01*
X154667000Y-108634000D01*
X153559000Y-108634000D01*
X153305000Y-108634000D01*
X152197000Y-108634000D01*
X152127000Y-108634000D01*
X152127000Y-108074968D01*
X152108110Y-107980000D01*
X152197000Y-107980000D01*
X152197000Y-108380000D01*
X153305000Y-108380000D01*
X153305000Y-107038269D01*
X153559000Y-107038269D01*
X153559000Y-108380000D01*
X154667000Y-108380000D01*
X154667000Y-108074968D01*
X154737000Y-108074968D01*
X154737000Y-108939032D01*
X154831009Y-109411646D01*
X154837000Y-109420612D01*
X154837000Y-112919000D01*
X154923397Y-113353346D01*
X155169434Y-113721566D01*
X161122434Y-119674566D01*
X161490654Y-119920603D01*
X161925000Y-120007000D01*
X172212000Y-120007000D01*
X172646346Y-119920603D01*
X173014566Y-119674566D01*
X176318103Y-116371029D01*
X183830723Y-116371029D01*
X183953317Y-116586000D01*
X185801000Y-116586000D01*
X185801000Y-115323000D01*
X186055000Y-115323000D01*
X186055000Y-116586000D01*
X187902683Y-116586000D01*
X188025277Y-116371029D01*
X188010793Y-116298403D01*
X187750681Y-115819924D01*
X187327263Y-115477408D01*
X186805000Y-115323000D01*
X186055000Y-115323000D01*
X185801000Y-115323000D01*
X185051000Y-115323000D01*
X184528737Y-115477408D01*
X184105319Y-115819924D01*
X183845207Y-116298403D01*
X183830723Y-116371029D01*
X176318103Y-116371029D01*
X177459566Y-115229566D01*
X177477410Y-115202861D01*
X177705603Y-114861346D01*
X177792000Y-114427000D01*
X177792000Y-102349682D01*
X183193207Y-102349682D01*
X183616322Y-103373697D01*
X184399102Y-104157845D01*
X185422377Y-104582746D01*
X186530362Y-104583713D01*
X187554377Y-104160598D01*
X188338525Y-103377818D01*
X188763426Y-102354543D01*
X188764393Y-101246558D01*
X188341278Y-100222543D01*
X187558498Y-99438395D01*
X186535223Y-99013494D01*
X185427238Y-99012527D01*
X184403223Y-99435642D01*
X183619075Y-100218422D01*
X183194174Y-101241697D01*
X183193207Y-102349682D01*
X177792000Y-102349682D01*
X177792000Y-101496612D01*
X177797991Y-101487646D01*
X177892000Y-101015032D01*
X177892000Y-100150968D01*
X177797991Y-99678354D01*
X177530277Y-99277691D01*
X177129614Y-99009977D01*
X176657000Y-98915968D01*
X176184386Y-99009977D01*
X175783723Y-99277691D01*
X175516009Y-99678354D01*
X175422000Y-100150968D01*
X175422000Y-101015032D01*
X175516009Y-101487646D01*
X175522000Y-101496612D01*
X175522000Y-113956868D01*
X171741868Y-117737000D01*
X162395132Y-117737000D01*
X157107000Y-112448868D01*
X157107000Y-109420612D01*
X157112991Y-109411646D01*
X157207000Y-108939032D01*
X157207000Y-108074968D01*
X157277000Y-108074968D01*
X157277000Y-108939032D01*
X157371009Y-109411646D01*
X157377000Y-109420612D01*
X157377000Y-111522000D01*
X157463397Y-111956346D01*
X157659907Y-112250443D01*
X157709434Y-112324566D01*
X162011434Y-116626566D01*
X162379654Y-116872603D01*
X162814000Y-116959000D01*
X169672000Y-116959000D01*
X170106346Y-116872603D01*
X170474566Y-116626566D01*
X174919566Y-112181566D01*
X174995886Y-112067345D01*
X175165603Y-111813346D01*
X175252000Y-111379000D01*
X175252000Y-101496612D01*
X175257991Y-101487646D01*
X175352000Y-101015032D01*
X175352000Y-100150968D01*
X175257991Y-99678354D01*
X174990277Y-99277691D01*
X174589614Y-99009977D01*
X174117000Y-98915968D01*
X173644386Y-99009977D01*
X173243723Y-99277691D01*
X172976009Y-99678354D01*
X172882000Y-100150968D01*
X172882000Y-101015032D01*
X172976009Y-101487646D01*
X172982000Y-101496612D01*
X172982000Y-110908868D01*
X169201868Y-114689000D01*
X163284132Y-114689000D01*
X159647000Y-111051868D01*
X159647000Y-109420612D01*
X159652991Y-109411646D01*
X159747000Y-108939032D01*
X159747000Y-108074968D01*
X159817000Y-108074968D01*
X159817000Y-108939032D01*
X159911009Y-109411646D01*
X159917000Y-109420612D01*
X159917000Y-110760000D01*
X160003397Y-111194346D01*
X160126779Y-111379000D01*
X160249434Y-111562566D01*
X161884434Y-113197566D01*
X162252654Y-113443603D01*
X162687000Y-113530000D01*
X168910000Y-113530000D01*
X169344346Y-113443603D01*
X169712566Y-113197566D01*
X172379567Y-110530566D01*
X172625604Y-110162345D01*
X172712000Y-109728000D01*
X172712000Y-101496612D01*
X172717991Y-101487646D01*
X172812000Y-101015032D01*
X172812000Y-100150968D01*
X172717991Y-99678354D01*
X172450277Y-99277691D01*
X172049614Y-99009977D01*
X171577000Y-98915968D01*
X171104386Y-99009977D01*
X170703723Y-99277691D01*
X170436009Y-99678354D01*
X170342000Y-100150968D01*
X170342000Y-101015032D01*
X170436009Y-101487646D01*
X170442000Y-101496612D01*
X170442000Y-109257867D01*
X168439868Y-111260000D01*
X163157132Y-111260000D01*
X162187000Y-110289868D01*
X162187000Y-109420612D01*
X162192991Y-109411646D01*
X162287000Y-108939032D01*
X162287000Y-108074968D01*
X162192991Y-107602354D01*
X161925277Y-107201691D01*
X161524614Y-106933977D01*
X161052000Y-106839968D01*
X160579386Y-106933977D01*
X160178723Y-107201691D01*
X159911009Y-107602354D01*
X159817000Y-108074968D01*
X159747000Y-108074968D01*
X159652991Y-107602354D01*
X159385277Y-107201691D01*
X158984614Y-106933977D01*
X158512000Y-106839968D01*
X158039386Y-106933977D01*
X157638723Y-107201691D01*
X157371009Y-107602354D01*
X157277000Y-108074968D01*
X157207000Y-108074968D01*
X157112991Y-107602354D01*
X156845277Y-107201691D01*
X156444614Y-106933977D01*
X155972000Y-106839968D01*
X155499386Y-106933977D01*
X155098723Y-107201691D01*
X154831009Y-107602354D01*
X154737000Y-108074968D01*
X154667000Y-108074968D01*
X154667000Y-107980000D01*
X154524390Y-107517053D01*
X154215474Y-107143920D01*
X153787281Y-106917408D01*
X153749609Y-106913538D01*
X153559000Y-107038269D01*
X153305000Y-107038269D01*
X153114391Y-106913538D01*
X153076719Y-106917408D01*
X152648526Y-107143920D01*
X152339610Y-107517053D01*
X152197000Y-107980000D01*
X152108110Y-107980000D01*
X152032991Y-107602354D01*
X151765277Y-107201691D01*
X151364614Y-106933977D01*
X150892000Y-106839968D01*
X150419386Y-106933977D01*
X150018723Y-107201691D01*
X149751009Y-107602354D01*
X149657000Y-108074968D01*
X149587000Y-108074968D01*
X149492991Y-107602354D01*
X149225277Y-107201691D01*
X148824614Y-106933977D01*
X148352000Y-106839968D01*
X147879386Y-106933977D01*
X147478723Y-107201691D01*
X147211009Y-107602354D01*
X147117000Y-108074968D01*
X147047000Y-108074968D01*
X146952991Y-107602354D01*
X146685277Y-107201691D01*
X146284614Y-106933977D01*
X145812000Y-106839968D01*
X145339386Y-106933977D01*
X144938723Y-107201691D01*
X144671009Y-107602354D01*
X144577000Y-108074968D01*
X144507000Y-108074968D01*
X144412991Y-107602354D01*
X144145277Y-107201691D01*
X143744614Y-106933977D01*
X143272000Y-106839968D01*
X142799386Y-106933977D01*
X142398723Y-107201691D01*
X142131009Y-107602354D01*
X142037000Y-108074968D01*
X134104000Y-108074968D01*
X134104000Y-107912132D01*
X136487132Y-105529000D01*
X161544000Y-105529000D01*
X161978346Y-105442603D01*
X162346566Y-105196566D01*
X162718424Y-104824708D01*
X162543397Y-105086654D01*
X162457000Y-105521000D01*
X162457000Y-107593388D01*
X162451009Y-107602354D01*
X162357000Y-108074968D01*
X162357000Y-108939032D01*
X162451009Y-109411646D01*
X162718723Y-109812309D01*
X163119386Y-110080023D01*
X163592000Y-110174032D01*
X164064614Y-110080023D01*
X164465277Y-109812309D01*
X164732991Y-109411646D01*
X164827000Y-108939032D01*
X164827000Y-108074968D01*
X164897000Y-108074968D01*
X164897000Y-108939032D01*
X164991009Y-109411646D01*
X165258723Y-109812309D01*
X165659386Y-110080023D01*
X166132000Y-110174032D01*
X166604614Y-110080023D01*
X167005277Y-109812309D01*
X167272991Y-109411646D01*
X167367000Y-108939032D01*
X167367000Y-108074968D01*
X167272991Y-107602354D01*
X167005277Y-107201691D01*
X166604614Y-106933977D01*
X166132000Y-106839968D01*
X165659386Y-106933977D01*
X165258723Y-107201691D01*
X164991009Y-107602354D01*
X164897000Y-108074968D01*
X164827000Y-108074968D01*
X164732991Y-107602354D01*
X164727000Y-107593388D01*
X164727000Y-105991132D01*
X165189132Y-105529000D01*
X167259000Y-105529000D01*
X167693346Y-105442603D01*
X168061566Y-105196566D01*
X169839566Y-103418566D01*
X169866793Y-103377818D01*
X170085603Y-103050346D01*
X170172000Y-102616000D01*
X170172000Y-101496612D01*
X170177991Y-101487646D01*
X170272000Y-101015032D01*
X170272000Y-100150968D01*
X170177991Y-99678354D01*
X169910277Y-99277691D01*
X169509614Y-99009977D01*
X169037000Y-98915968D01*
X168564386Y-99009977D01*
X168163723Y-99277691D01*
X167896009Y-99678354D01*
X167802000Y-100150968D01*
X167802000Y-101015032D01*
X167896009Y-101487646D01*
X167902000Y-101496612D01*
X167902000Y-102145868D01*
X166788868Y-103259000D01*
X164719000Y-103259000D01*
X164284655Y-103345396D01*
X164022709Y-103520423D01*
X164759566Y-102783566D01*
X165005603Y-102415346D01*
X165053120Y-102176462D01*
X165092000Y-101981000D01*
X165092000Y-101496612D01*
X165097991Y-101487646D01*
X165192000Y-101015032D01*
X165192000Y-100150968D01*
X165262000Y-100150968D01*
X165262000Y-101015032D01*
X165356009Y-101487646D01*
X165623723Y-101888309D01*
X166024386Y-102156023D01*
X166497000Y-102250032D01*
X166969614Y-102156023D01*
X167370277Y-101888309D01*
X167637991Y-101487646D01*
X167732000Y-101015032D01*
X167732000Y-100150968D01*
X167637991Y-99678354D01*
X167370277Y-99277691D01*
X166969614Y-99009977D01*
X166497000Y-98915968D01*
X166024386Y-99009977D01*
X165623723Y-99277691D01*
X165356009Y-99678354D01*
X165262000Y-100150968D01*
X165192000Y-100150968D01*
X165097991Y-99678354D01*
X164830277Y-99277691D01*
X164429614Y-99009977D01*
X163957000Y-98915968D01*
X163484386Y-99009977D01*
X163083723Y-99277691D01*
X162816009Y-99678354D01*
X162722000Y-100150968D01*
X162722000Y-101015032D01*
X162816009Y-101487646D01*
X162822000Y-101496612D01*
X162822000Y-101510868D01*
X161073868Y-103259000D01*
X136017000Y-103259000D01*
X135582654Y-103345397D01*
X135214434Y-103591434D01*
X132166434Y-106639434D01*
X131920397Y-107007654D01*
X131834000Y-107442000D01*
X131834000Y-109146868D01*
X129958927Y-107271795D01*
X129959248Y-106903813D01*
X129741243Y-106376200D01*
X129337923Y-105972176D01*
X128810691Y-105753250D01*
X128239813Y-105752752D01*
X127712200Y-105970757D01*
X127308176Y-106374077D01*
X127089250Y-106901309D01*
X127088752Y-107472187D01*
X124946735Y-107472187D01*
X124970965Y-107404777D01*
X124943778Y-106834546D01*
X124777864Y-106433995D01*
X124531745Y-106359861D01*
X123703605Y-107188000D01*
X123344395Y-107188000D01*
X122516255Y-106359861D01*
X122270136Y-106433995D01*
X122077035Y-106971223D01*
X121785000Y-106971223D01*
X121785000Y-106180255D01*
X122695861Y-106180255D01*
X123524000Y-107008395D01*
X124352139Y-106180255D01*
X124278005Y-105934136D01*
X123740777Y-105741035D01*
X123170546Y-105768222D01*
X122769995Y-105934136D01*
X122695861Y-106180255D01*
X121785000Y-106180255D01*
X121785000Y-103614727D01*
X124259113Y-100150968D01*
X147482000Y-100150968D01*
X147482000Y-101015032D01*
X147576009Y-101487646D01*
X147843723Y-101888309D01*
X148244386Y-102156023D01*
X148717000Y-102250032D01*
X149189614Y-102156023D01*
X149590277Y-101888309D01*
X149857991Y-101487646D01*
X149952000Y-101015032D01*
X149952000Y-100150968D01*
X150022000Y-100150968D01*
X150022000Y-101015032D01*
X150116009Y-101487646D01*
X150383723Y-101888309D01*
X150784386Y-102156023D01*
X151257000Y-102250032D01*
X151729614Y-102156023D01*
X152130277Y-101888309D01*
X152397991Y-101487646D01*
X152492000Y-101015032D01*
X152492000Y-100150968D01*
X152562000Y-100150968D01*
X152562000Y-101015032D01*
X152656009Y-101487646D01*
X152923723Y-101888309D01*
X153324386Y-102156023D01*
X153797000Y-102250032D01*
X154269614Y-102156023D01*
X154670277Y-101888309D01*
X154937991Y-101487646D01*
X155032000Y-101015032D01*
X155032000Y-100710000D01*
X155102000Y-100710000D01*
X155102000Y-101110000D01*
X155244610Y-101572947D01*
X155553526Y-101946080D01*
X155981719Y-102172592D01*
X156019391Y-102176462D01*
X156210000Y-102051731D01*
X156210000Y-100710000D01*
X156464000Y-100710000D01*
X156464000Y-102051731D01*
X156654609Y-102176462D01*
X156692281Y-102172592D01*
X157120474Y-101946080D01*
X157429390Y-101572947D01*
X157572000Y-101110000D01*
X157572000Y-100710000D01*
X156464000Y-100710000D01*
X156210000Y-100710000D01*
X155102000Y-100710000D01*
X155032000Y-100710000D01*
X155032000Y-100150968D01*
X155013110Y-100056000D01*
X155102000Y-100056000D01*
X155102000Y-100456000D01*
X156210000Y-100456000D01*
X156210000Y-99114269D01*
X156464000Y-99114269D01*
X156464000Y-100456000D01*
X157572000Y-100456000D01*
X157572000Y-100056000D01*
X157429390Y-99593053D01*
X157120474Y-99219920D01*
X156692281Y-98993408D01*
X156654609Y-98989538D01*
X156464000Y-99114269D01*
X156210000Y-99114269D01*
X156019391Y-98989538D01*
X155981719Y-98993408D01*
X155553526Y-99219920D01*
X155244610Y-99593053D01*
X155102000Y-100056000D01*
X155013110Y-100056000D01*
X154937991Y-99678354D01*
X154670277Y-99277691D01*
X154269614Y-99009977D01*
X153797000Y-98915968D01*
X153324386Y-99009977D01*
X152923723Y-99277691D01*
X152656009Y-99678354D01*
X152562000Y-100150968D01*
X152492000Y-100150968D01*
X152397991Y-99678354D01*
X152130277Y-99277691D01*
X151729614Y-99009977D01*
X151257000Y-98915968D01*
X150784386Y-99009977D01*
X150383723Y-99277691D01*
X150116009Y-99678354D01*
X150022000Y-100150968D01*
X149952000Y-100150968D01*
X149857991Y-99678354D01*
X149590277Y-99277691D01*
X149189614Y-99009977D01*
X148717000Y-98915968D01*
X148244386Y-99009977D01*
X147843723Y-99277691D01*
X147576009Y-99678354D01*
X147482000Y-100150968D01*
X124259113Y-100150968D01*
X126314091Y-97274000D01*
X156735273Y-97274000D01*
X157742000Y-97993091D01*
X157742000Y-99669388D01*
X157736009Y-99678354D01*
X157642000Y-100150968D01*
X157642000Y-101015032D01*
X157736009Y-101487646D01*
X158003723Y-101888309D01*
X158404386Y-102156023D01*
X158877000Y-102250032D01*
X159349614Y-102156023D01*
X159750277Y-101888309D01*
X160017991Y-101487646D01*
X160112000Y-101015032D01*
X160112000Y-100150968D01*
X160182000Y-100150968D01*
X160182000Y-101015032D01*
X160276009Y-101487646D01*
X160543723Y-101888309D01*
X160944386Y-102156023D01*
X161417000Y-102250032D01*
X161889614Y-102156023D01*
X162290277Y-101888309D01*
X162557991Y-101487646D01*
X162652000Y-101015032D01*
X162652000Y-100150968D01*
X162557991Y-99678354D01*
X162552000Y-99669388D01*
X162552000Y-96901000D01*
X162465603Y-96466654D01*
X162219566Y-96098434D01*
X161851346Y-95852397D01*
X161417000Y-95766000D01*
X160982654Y-95852397D01*
X160614434Y-96098434D01*
X160368397Y-96466654D01*
X160282000Y-96901000D01*
X160282000Y-99669388D01*
X160276009Y-99678354D01*
X160182000Y-100150968D01*
X160112000Y-100150968D01*
X160017991Y-99678354D01*
X160012000Y-99669388D01*
X160012000Y-97409000D01*
X159993618Y-97316586D01*
X159996557Y-97222407D01*
X159950828Y-97101466D01*
X159925603Y-96974654D01*
X159873255Y-96896310D01*
X159839930Y-96808175D01*
X159751399Y-96713940D01*
X159679566Y-96606434D01*
X159601222Y-96554086D01*
X159536706Y-96485413D01*
X158151527Y-95496000D01*
X182880000Y-95496000D01*
X183314346Y-95409603D01*
X183682566Y-95163566D01*
X186095566Y-92750566D01*
X186341603Y-92382346D01*
X186381125Y-92183654D01*
X186428000Y-91948000D01*
X186428000Y-84709000D01*
X186341603Y-84274654D01*
X186095566Y-83906434D01*
X185969566Y-83780434D01*
X185826739Y-83685000D01*
X185601346Y-83534397D01*
X185167000Y-83448000D01*
X177644074Y-83448000D01*
X177530277Y-83277691D01*
X177129614Y-83009977D01*
X176657000Y-82915968D01*
X176184386Y-83009977D01*
X175783723Y-83277691D01*
X175516009Y-83678354D01*
X175422000Y-84150968D01*
X175422000Y-85015032D01*
X175516009Y-85487646D01*
X175783723Y-85888309D01*
X176184386Y-86156023D01*
X176657000Y-86250032D01*
X177129614Y-86156023D01*
X177530277Y-85888309D01*
X177644074Y-85718000D01*
X184158000Y-85718000D01*
X184158000Y-91477868D01*
X182409868Y-93226000D01*
X131153132Y-93226000D01*
X123944000Y-86016868D01*
X123944000Y-81280000D01*
X123857603Y-80845654D01*
X123611566Y-80477434D01*
X123243346Y-80231397D01*
X122809000Y-80145000D01*
X122374654Y-80231397D01*
X122006434Y-80477434D01*
X121760397Y-80845654D01*
X121674000Y-81280000D01*
X121674000Y-86487000D01*
X121760397Y-86921346D01*
X121782506Y-86954434D01*
X122006434Y-87289566D01*
X129720868Y-95004000D01*
X125730000Y-95004000D01*
X125637581Y-95022383D01*
X125543407Y-95019444D01*
X125422470Y-95065172D01*
X125295654Y-95090397D01*
X125217309Y-95142745D01*
X125129175Y-95176070D01*
X125034940Y-95264601D01*
X124927434Y-95336434D01*
X124875086Y-95414778D01*
X124806412Y-95479295D01*
X119726413Y-102591295D01*
X119673232Y-102709146D01*
X119653940Y-102738018D01*
X119653940Y-92448000D01*
X122428000Y-92448000D01*
X122862346Y-92361603D01*
X123230566Y-92115566D01*
X123357566Y-91988566D01*
X123603603Y-91620345D01*
X123690000Y-91186000D01*
X123603603Y-90751655D01*
X123357566Y-90383434D01*
X122989345Y-90137397D01*
X122555000Y-90051000D01*
X122120655Y-90137397D01*
X122059888Y-90178000D01*
X119653940Y-90178000D01*
X119653940Y-72546400D01*
X119788940Y-72344359D01*
X119923940Y-72546400D01*
X119923940Y-73814940D01*
X120010337Y-74249286D01*
X120147526Y-74454603D01*
X120256374Y-74617506D01*
X126959434Y-81320566D01*
X127327654Y-81566603D01*
X127762000Y-81653000D01*
X130824193Y-81653000D01*
X131305287Y-81852768D01*
X131836383Y-81853231D01*
X132327229Y-81650418D01*
X132703098Y-81275204D01*
X132787958Y-81070839D01*
X139757818Y-92048369D01*
X139844047Y-92138721D01*
X139913434Y-92242566D01*
X139995460Y-92297374D01*
X140063569Y-92368740D01*
X140177808Y-92419215D01*
X140281654Y-92488603D01*
X140378411Y-92507849D01*
X140468645Y-92547718D01*
X140593503Y-92550634D01*
X140716000Y-92575000D01*
X171958000Y-92575000D01*
X172136433Y-92539507D01*
X172316918Y-92516755D01*
X172352346Y-92496559D01*
X172392346Y-92488603D01*
X172543611Y-92387531D01*
X172701654Y-92297440D01*
X172726658Y-92265223D01*
X172760566Y-92242566D01*
X172861636Y-92091305D01*
X172973175Y-91947587D01*
X175132175Y-87629587D01*
X175142946Y-87590254D01*
X175165603Y-87556346D01*
X175201094Y-87377923D01*
X175249145Y-87202458D01*
X175244044Y-87161996D01*
X175252000Y-87122000D01*
X175252000Y-85496612D01*
X175257991Y-85487646D01*
X175352000Y-85015032D01*
X175352000Y-84150968D01*
X175257991Y-83678354D01*
X174990277Y-83277691D01*
X174589614Y-83009977D01*
X174117000Y-82915968D01*
X173644386Y-83009977D01*
X173243723Y-83277691D01*
X172976009Y-83678354D01*
X172882000Y-84150968D01*
X172882000Y-85015032D01*
X172976009Y-85487646D01*
X172982000Y-85496612D01*
X172982000Y-86854062D01*
X171256531Y-90305000D01*
X159184197Y-90305000D01*
X159226543Y-90258690D01*
X159298566Y-90210566D01*
X159374592Y-90096784D01*
X159466939Y-89995795D01*
X161778060Y-86178213D01*
X161889614Y-86156023D01*
X162290277Y-85888309D01*
X162557991Y-85487646D01*
X162652000Y-85015032D01*
X162652000Y-84150968D01*
X162557991Y-83678354D01*
X162290277Y-83277691D01*
X161889614Y-83009977D01*
X161417000Y-82915968D01*
X160944386Y-83009977D01*
X160543723Y-83277691D01*
X160276009Y-83678354D01*
X160182000Y-84150968D01*
X160182000Y-84431390D01*
X160112000Y-84547018D01*
X160112000Y-84150968D01*
X160017991Y-83678354D01*
X159969342Y-83605546D01*
X159925603Y-83385654D01*
X159679566Y-83017434D01*
X159000687Y-82338555D01*
X159385000Y-82415000D01*
X162216868Y-82415000D01*
X162822000Y-83020132D01*
X162822000Y-83669388D01*
X162816009Y-83678354D01*
X162722000Y-84150968D01*
X162722000Y-85015032D01*
X162816009Y-85487646D01*
X163083723Y-85888309D01*
X163484386Y-86156023D01*
X163957000Y-86250032D01*
X164429614Y-86156023D01*
X164830277Y-85888309D01*
X165097991Y-85487646D01*
X165192000Y-85015032D01*
X165192000Y-84150968D01*
X165097991Y-83678354D01*
X165092000Y-83669388D01*
X165092000Y-82550000D01*
X165005603Y-82115654D01*
X164759566Y-81747434D01*
X163489566Y-80477434D01*
X163470441Y-80464655D01*
X163121346Y-80231397D01*
X162687000Y-80145000D01*
X159855132Y-80145000D01*
X159839132Y-80129000D01*
X163613868Y-80129000D01*
X165362000Y-81877132D01*
X165362000Y-83669388D01*
X165356009Y-83678354D01*
X165262000Y-84150968D01*
X165262000Y-85015032D01*
X165356009Y-85487646D01*
X165623723Y-85888309D01*
X166024386Y-86156023D01*
X166497000Y-86250032D01*
X166969614Y-86156023D01*
X167370277Y-85888309D01*
X167637991Y-85487646D01*
X167732000Y-85015032D01*
X167732000Y-84150968D01*
X167802000Y-84150968D01*
X167802000Y-85015032D01*
X167896009Y-85487646D01*
X168163723Y-85888309D01*
X168564386Y-86156023D01*
X169037000Y-86250032D01*
X169509614Y-86156023D01*
X169910277Y-85888309D01*
X170177991Y-85487646D01*
X170272000Y-85015032D01*
X170272000Y-84150968D01*
X170342000Y-84150968D01*
X170342000Y-85015032D01*
X170436009Y-85487646D01*
X170703723Y-85888309D01*
X171104386Y-86156023D01*
X171577000Y-86250032D01*
X172049614Y-86156023D01*
X172450277Y-85888309D01*
X172717991Y-85487646D01*
X172812000Y-85015032D01*
X172812000Y-84150968D01*
X172717991Y-83678354D01*
X172450277Y-83277691D01*
X172049614Y-83009977D01*
X171577000Y-82915968D01*
X171104386Y-83009977D01*
X170703723Y-83277691D01*
X170436009Y-83678354D01*
X170342000Y-84150968D01*
X170272000Y-84150968D01*
X170177991Y-83678354D01*
X169910277Y-83277691D01*
X169509614Y-83009977D01*
X169037000Y-82915968D01*
X168564386Y-83009977D01*
X168163723Y-83277691D01*
X167896009Y-83678354D01*
X167802000Y-84150968D01*
X167732000Y-84150968D01*
X167637991Y-83678354D01*
X167632000Y-83669388D01*
X167632000Y-81407000D01*
X167545603Y-80972654D01*
X167299566Y-80604434D01*
X164886566Y-78191434D01*
X164518346Y-77945397D01*
X164084000Y-77859000D01*
X158459167Y-77859000D01*
X158790566Y-77637566D01*
X159036603Y-77269346D01*
X159123000Y-76835000D01*
X159036603Y-76400654D01*
X158982043Y-76319000D01*
X162687000Y-76319000D01*
X163121346Y-76232603D01*
X163489566Y-75986566D01*
X165373786Y-74102346D01*
X165855229Y-73903418D01*
X166231098Y-73528204D01*
X166434768Y-73037713D01*
X166435000Y-72771000D01*
X171358846Y-72771000D01*
X171460467Y-73281882D01*
X171638604Y-73548484D01*
X171671397Y-73713346D01*
X171821505Y-73937998D01*
X171917434Y-74081566D01*
X180172434Y-82336566D01*
X180540655Y-82582603D01*
X180975000Y-82669000D01*
X181409345Y-82582603D01*
X181777566Y-82336566D01*
X182023603Y-81968345D01*
X182110000Y-81534000D01*
X182023603Y-81099655D01*
X181777566Y-80731434D01*
X174037350Y-72991218D01*
X174081154Y-72771000D01*
X173979533Y-72260118D01*
X173690142Y-71827012D01*
X173257036Y-71537621D01*
X172746154Y-71436000D01*
X172693846Y-71436000D01*
X172182964Y-71537621D01*
X171749858Y-71827012D01*
X171460467Y-72260118D01*
X171358846Y-72771000D01*
X166435000Y-72771000D01*
X166435231Y-72506617D01*
X166232418Y-72015771D01*
X165857204Y-71639902D01*
X165366713Y-71436232D01*
X164835617Y-71435769D01*
X164344771Y-71638582D01*
X163968902Y-72013796D01*
X163767825Y-72498043D01*
X162216868Y-74049000D01*
X153505132Y-74049000D01*
X152673940Y-73217808D01*
X152673940Y-72546400D01*
X152819040Y-72329243D01*
X152822639Y-72311148D01*
X152847441Y-72394947D01*
X153188996Y-72816928D01*
X153666037Y-73076080D01*
X153737665Y-73090263D01*
X153951940Y-72967609D01*
X153951940Y-70624700D01*
X154205940Y-70624700D01*
X154205940Y-72967609D01*
X154420215Y-73090263D01*
X154491843Y-73076080D01*
X154968884Y-72816928D01*
X155310439Y-72394947D01*
X155464510Y-71874380D01*
X155464510Y-71348982D01*
X183244007Y-71348982D01*
X183667122Y-72372997D01*
X184449902Y-73157145D01*
X185473177Y-73582046D01*
X186581162Y-73583013D01*
X187605177Y-73159898D01*
X188389325Y-72377118D01*
X188814226Y-71353843D01*
X188815193Y-70245858D01*
X188392078Y-69221843D01*
X187609298Y-68437695D01*
X186586023Y-68012794D01*
X185478038Y-68011827D01*
X184454023Y-68434942D01*
X183669875Y-69217722D01*
X183244974Y-70240997D01*
X183244007Y-71348982D01*
X155464510Y-71348982D01*
X155464510Y-70624700D01*
X154205940Y-70624700D01*
X153951940Y-70624700D01*
X153931940Y-70624700D01*
X153931940Y-70370700D01*
X153951940Y-70370700D01*
X153951940Y-70350700D01*
X154205940Y-70350700D01*
X154205940Y-70370700D01*
X155464510Y-70370700D01*
X155464510Y-69121020D01*
X155310439Y-68600453D01*
X154968884Y-68178472D01*
X154491843Y-67919320D01*
X154420215Y-67905137D01*
X154205942Y-68027790D01*
X154205942Y-67868000D01*
X188926000Y-67868000D01*
X188926000Y-131014000D01*
X108000000Y-131014000D01*
X108000000Y-129912745D01*
X122822861Y-129912745D01*
X122896995Y-130158864D01*
X123434223Y-130351965D01*
X124004454Y-130324778D01*
X124405005Y-130158864D01*
X124479139Y-129912745D01*
X123651000Y-129084605D01*
X122822861Y-129912745D01*
X108000000Y-129912745D01*
X108000000Y-128688223D01*
X122204035Y-128688223D01*
X122231222Y-129258454D01*
X122397136Y-129659005D01*
X122643255Y-129733139D01*
X123471395Y-128905000D01*
X123830605Y-128905000D01*
X124658745Y-129733139D01*
X124904864Y-129659005D01*
X125097965Y-129121777D01*
X125070778Y-128551546D01*
X124904864Y-128150995D01*
X124658745Y-128076861D01*
X123830605Y-128905000D01*
X123471395Y-128905000D01*
X122643255Y-128076861D01*
X122397136Y-128150995D01*
X122204035Y-128688223D01*
X108000000Y-128688223D01*
X108000000Y-127897255D01*
X122822861Y-127897255D01*
X123651000Y-128725395D01*
X124479139Y-127897255D01*
X124405005Y-127651136D01*
X123867777Y-127458035D01*
X123297546Y-127485222D01*
X122896995Y-127651136D01*
X122822861Y-127897255D01*
X108000000Y-127897255D01*
X108000000Y-124266834D01*
X123539543Y-124266834D01*
X123939853Y-125235658D01*
X124680443Y-125977542D01*
X125648567Y-126379542D01*
X126696834Y-126380457D01*
X127665658Y-125980147D01*
X128407542Y-125239557D01*
X128809542Y-124271433D01*
X128810457Y-123223166D01*
X128410147Y-122254342D01*
X127669557Y-121512458D01*
X126701433Y-121110458D01*
X125653166Y-121109543D01*
X124684342Y-121509853D01*
X123942458Y-122250443D01*
X123540458Y-123218567D01*
X123539543Y-124266834D01*
X108000000Y-124266834D01*
X108000000Y-117725213D01*
X118374392Y-117725213D01*
X118443857Y-117967397D01*
X118967302Y-118154144D01*
X119522368Y-118126362D01*
X119906143Y-117967397D01*
X119975608Y-117725213D01*
X119175000Y-116924605D01*
X118374392Y-117725213D01*
X108000000Y-117725213D01*
X108000000Y-117038745D01*
X109915861Y-117038745D01*
X109989995Y-117284864D01*
X110527223Y-117477965D01*
X111097454Y-117450778D01*
X111498005Y-117284864D01*
X111572139Y-117038745D01*
X110744000Y-116210605D01*
X109915861Y-117038745D01*
X108000000Y-117038745D01*
X108000000Y-115814223D01*
X109297035Y-115814223D01*
X109324222Y-116384454D01*
X109490136Y-116785005D01*
X109736255Y-116859139D01*
X110564395Y-116031000D01*
X110923605Y-116031000D01*
X111751745Y-116859139D01*
X111997864Y-116785005D01*
X112086898Y-116537302D01*
X117765856Y-116537302D01*
X117793638Y-117092368D01*
X117952603Y-117476143D01*
X118194787Y-117545608D01*
X118995395Y-116745000D01*
X119354605Y-116745000D01*
X120155213Y-117545608D01*
X120397397Y-117476143D01*
X120584144Y-116952698D01*
X120556362Y-116397632D01*
X120397397Y-116013857D01*
X120155213Y-115944392D01*
X119354605Y-116745000D01*
X118995395Y-116745000D01*
X118194787Y-115944392D01*
X117952603Y-116013857D01*
X117765856Y-116537302D01*
X112086898Y-116537302D01*
X112190965Y-116247777D01*
X112167938Y-115764787D01*
X118374392Y-115764787D01*
X119175000Y-116565395D01*
X119975608Y-115764787D01*
X119906143Y-115522603D01*
X119382698Y-115335856D01*
X118827632Y-115363638D01*
X118443857Y-115522603D01*
X118374392Y-115764787D01*
X112167938Y-115764787D01*
X112163778Y-115677546D01*
X111997864Y-115276995D01*
X111751745Y-115202861D01*
X110923605Y-116031000D01*
X110564395Y-116031000D01*
X109736255Y-115202861D01*
X109490136Y-115276995D01*
X109297035Y-115814223D01*
X108000000Y-115814223D01*
X108000000Y-115023255D01*
X109915861Y-115023255D01*
X110744000Y-115851395D01*
X111572139Y-115023255D01*
X111498005Y-114777136D01*
X110960777Y-114584035D01*
X110390546Y-114611222D01*
X109989995Y-114777136D01*
X109915861Y-115023255D01*
X108000000Y-115023255D01*
X108000000Y-108751029D01*
X110170723Y-108751029D01*
X110293317Y-108966000D01*
X112141000Y-108966000D01*
X112141000Y-107703000D01*
X112395000Y-107703000D01*
X112395000Y-108966000D01*
X114242683Y-108966000D01*
X114365277Y-108751029D01*
X114350793Y-108678403D01*
X114090681Y-108199924D01*
X113667263Y-107857408D01*
X113145000Y-107703000D01*
X112395000Y-107703000D01*
X112141000Y-107703000D01*
X111391000Y-107703000D01*
X110868737Y-107857408D01*
X110445319Y-108199924D01*
X110185207Y-108678403D01*
X110170723Y-108751029D01*
X108000000Y-108751029D01*
X108000000Y-102349682D01*
X108194627Y-102349682D01*
X108617742Y-103373697D01*
X109400522Y-104157845D01*
X110423797Y-104582746D01*
X111531782Y-104583713D01*
X112555797Y-104160598D01*
X113339945Y-103377818D01*
X113764846Y-102354543D01*
X113765813Y-101246558D01*
X113342698Y-100222543D01*
X112559918Y-99438395D01*
X111536643Y-99013494D01*
X110428658Y-99012527D01*
X109404643Y-99435642D01*
X108620495Y-100218422D01*
X108195594Y-101241697D01*
X108194627Y-102349682D01*
X108000000Y-102349682D01*
X108000000Y-71348982D01*
X108194627Y-71348982D01*
X108617742Y-72372997D01*
X109400522Y-73157145D01*
X110423797Y-73582046D01*
X111531782Y-73583013D01*
X112555797Y-73159898D01*
X113339945Y-72377118D01*
X113764846Y-71353843D01*
X113765482Y-70624700D01*
X114593370Y-70624700D01*
X114593370Y-71874380D01*
X114747441Y-72394947D01*
X115088996Y-72816928D01*
X115566037Y-73076080D01*
X115637665Y-73090263D01*
X115851940Y-72967609D01*
X115851940Y-70624700D01*
X114593370Y-70624700D01*
X113765482Y-70624700D01*
X113765813Y-70245858D01*
X113342698Y-69221843D01*
X112559918Y-68437695D01*
X111536643Y-68012794D01*
X110428658Y-68011827D01*
X109404643Y-68434942D01*
X108620495Y-69217722D01*
X108195594Y-70240997D01*
X108194627Y-71348982D01*
X108000000Y-71348982D01*
X108000000Y-67868000D01*
X115851938Y-67868000D01*
X115851938Y-68027790D01*
X115851938Y-68027790D01*
G37*
X115851938Y-68027790D02*
X115637665Y-67905137D01*
X115566037Y-67919320D01*
X115088996Y-68178472D01*
X114747441Y-68600453D01*
X114593370Y-69121020D01*
X114593370Y-70370700D01*
X115851940Y-70370700D01*
X115851940Y-70350700D01*
X116105940Y-70350700D01*
X116105940Y-70370700D01*
X116125940Y-70370700D01*
X116125940Y-70624700D01*
X116105940Y-70624700D01*
X116105940Y-72967609D01*
X116320215Y-73090263D01*
X116391843Y-73076080D01*
X116868884Y-72816928D01*
X117210439Y-72394947D01*
X117235241Y-72311148D01*
X117238840Y-72329243D01*
X117383940Y-72546400D01*
X117383940Y-108975928D01*
X115861868Y-110498000D01*
X113815137Y-110498000D01*
X113594013Y-110350249D01*
X113667263Y-110328592D01*
X114090681Y-109986076D01*
X114350793Y-109507597D01*
X114365277Y-109434971D01*
X114242683Y-109220000D01*
X112395000Y-109220000D01*
X112395000Y-109240000D01*
X112141000Y-109240000D01*
X112141000Y-109220000D01*
X110293317Y-109220000D01*
X110170723Y-109434971D01*
X110185207Y-109507597D01*
X110445319Y-109986076D01*
X110868737Y-110328592D01*
X110941987Y-110350249D01*
X110493197Y-110650122D01*
X110191882Y-111101070D01*
X110086075Y-111633000D01*
X110191882Y-112164930D01*
X110493197Y-112615878D01*
X110944145Y-112917193D01*
X111476075Y-113023000D01*
X113059925Y-113023000D01*
X113591855Y-112917193D01*
X113815137Y-112768000D01*
X116332000Y-112768000D01*
X116766346Y-112681603D01*
X117134566Y-112435566D01*
X119321506Y-110248626D01*
X119371348Y-110174032D01*
X119515000Y-109959042D01*
X119515000Y-113792000D01*
X119601397Y-114226346D01*
X119735470Y-114427000D01*
X119847434Y-114594566D01*
X122436000Y-117183132D01*
X122436000Y-119036868D01*
X121862868Y-119610000D01*
X120015914Y-119610000D01*
X119967370Y-119561371D01*
X119454100Y-119348243D01*
X118898339Y-119347758D01*
X118384697Y-119559990D01*
X118334600Y-119610000D01*
X111063805Y-119610000D01*
X111030691Y-119596250D01*
X110459813Y-119595752D01*
X109932200Y-119813757D01*
X109528176Y-120217077D01*
X109309250Y-120744309D01*
X109308752Y-121315187D01*
X109526757Y-121842800D01*
X109930077Y-122246824D01*
X110457309Y-122465750D01*
X111028187Y-122466248D01*
X111555800Y-122248243D01*
X111924686Y-121880000D01*
X118334086Y-121880000D01*
X118382630Y-121928629D01*
X118895900Y-122141757D01*
X119451661Y-122142242D01*
X119965303Y-121930010D01*
X120015400Y-121880000D01*
X122333000Y-121880000D01*
X122767346Y-121793603D01*
X123135566Y-121547566D01*
X124373566Y-120309566D01*
X124619603Y-119941346D01*
X124650716Y-119784930D01*
X124706000Y-119507000D01*
X124706000Y-116713000D01*
X124619603Y-116278654D01*
X124373566Y-115910434D01*
X122729966Y-114266834D01*
X123539543Y-114266834D01*
X123939853Y-115235658D01*
X124680443Y-115977542D01*
X125648567Y-116379542D01*
X126696834Y-116380457D01*
X127665658Y-115980147D01*
X128407542Y-115239557D01*
X128809542Y-114271433D01*
X128810457Y-113223166D01*
X128410147Y-112254342D01*
X127669557Y-111512458D01*
X126701433Y-111110458D01*
X125653166Y-111109543D01*
X124684342Y-111509853D01*
X123942458Y-112250443D01*
X123540458Y-113218567D01*
X123539543Y-114266834D01*
X122729966Y-114266834D01*
X121785000Y-113321868D01*
X121785000Y-108195745D01*
X122695861Y-108195745D01*
X122769995Y-108441864D01*
X123307223Y-108634965D01*
X123877454Y-108607778D01*
X124278005Y-108441864D01*
X124352139Y-108195745D01*
X123524000Y-107367605D01*
X122695861Y-108195745D01*
X121785000Y-108195745D01*
X121785000Y-106971223D01*
X122077035Y-106971223D01*
X122104222Y-107541454D01*
X122270136Y-107942005D01*
X122516255Y-108016139D01*
X123344395Y-107188000D01*
X123703605Y-107188000D01*
X124531745Y-108016139D01*
X124777864Y-107942005D01*
X124946735Y-107472187D01*
X127088752Y-107472187D01*
X127306757Y-107999800D01*
X127710077Y-108403824D01*
X128001845Y-108524977D01*
X131252292Y-111775424D01*
X130990345Y-111600397D01*
X130556000Y-111514001D01*
X130121654Y-111600397D01*
X129753434Y-111846434D01*
X129372434Y-112227434D01*
X129126397Y-112595654D01*
X129040000Y-113030000D01*
X129040000Y-120015000D01*
X129126397Y-120449346D01*
X129255793Y-120643000D01*
X129372434Y-120817566D01*
X130102434Y-121547566D01*
X130470654Y-121793603D01*
X130905000Y-121880000D01*
X132040000Y-121880000D01*
X132040000Y-123910868D01*
X128481016Y-127469852D01*
X128366813Y-127469752D01*
X127839200Y-127687757D01*
X127435176Y-128091077D01*
X127216250Y-128618309D01*
X127215752Y-129189187D01*
X127433757Y-129716800D01*
X127837077Y-130120824D01*
X128364309Y-130339750D01*
X128935187Y-130340248D01*
X129462800Y-130122243D01*
X129866824Y-129718923D01*
X130085750Y-129191691D01*
X130085852Y-129075280D01*
X130527132Y-128634000D01*
X142037000Y-128634000D01*
X142037000Y-129034000D01*
X142179610Y-129496947D01*
X142488526Y-129870080D01*
X142916719Y-130096592D01*
X142954391Y-130100462D01*
X143145000Y-129975731D01*
X143145000Y-128634000D01*
X143399000Y-128634000D01*
X143399000Y-129975731D01*
X143589609Y-130100462D01*
X143627281Y-130096592D01*
X144055474Y-129870080D01*
X144364390Y-129496947D01*
X144507000Y-129034000D01*
X144507000Y-128634000D01*
X143399000Y-128634000D01*
X143145000Y-128634000D01*
X142037000Y-128634000D01*
X130527132Y-128634000D01*
X131181132Y-127980000D01*
X142037000Y-127980000D01*
X142037000Y-128380000D01*
X143145000Y-128380000D01*
X143145000Y-127038269D01*
X143399000Y-127038269D01*
X143399000Y-128380000D01*
X144507000Y-128380000D01*
X144507000Y-128074968D01*
X144577000Y-128074968D01*
X144577000Y-128939032D01*
X144671009Y-129411646D01*
X144938723Y-129812309D01*
X145339386Y-130080023D01*
X145812000Y-130174032D01*
X146284614Y-130080023D01*
X146685277Y-129812309D01*
X146952991Y-129411646D01*
X147047000Y-128939032D01*
X147047000Y-128074968D01*
X147117000Y-128074968D01*
X147117000Y-128939032D01*
X147211009Y-129411646D01*
X147478723Y-129812309D01*
X147879386Y-130080023D01*
X148352000Y-130174032D01*
X148824614Y-130080023D01*
X149225277Y-129812309D01*
X149492991Y-129411646D01*
X149587000Y-128939032D01*
X149587000Y-128074968D01*
X149657000Y-128074968D01*
X149657000Y-128939032D01*
X149751009Y-129411646D01*
X150018723Y-129812309D01*
X150419386Y-130080023D01*
X150892000Y-130174032D01*
X151364614Y-130080023D01*
X151765277Y-129812309D01*
X152032991Y-129411646D01*
X152127000Y-128939032D01*
X152127000Y-128074968D01*
X152197000Y-128074968D01*
X152197000Y-128939032D01*
X152291009Y-129411646D01*
X152558723Y-129812309D01*
X152959386Y-130080023D01*
X153432000Y-130174032D01*
X153904614Y-130080023D01*
X154305277Y-129812309D01*
X154572991Y-129411646D01*
X154667000Y-128939032D01*
X154667000Y-128074968D01*
X154737000Y-128074968D01*
X154737000Y-128939032D01*
X154831009Y-129411646D01*
X155098723Y-129812309D01*
X155499386Y-130080023D01*
X155972000Y-130174032D01*
X156444614Y-130080023D01*
X156845277Y-129812309D01*
X157112991Y-129411646D01*
X157207000Y-128939032D01*
X157207000Y-128074968D01*
X157277000Y-128074968D01*
X157277000Y-128939032D01*
X157371009Y-129411646D01*
X157638723Y-129812309D01*
X158039386Y-130080023D01*
X158512000Y-130174032D01*
X158984614Y-130080023D01*
X159385277Y-129812309D01*
X159652991Y-129411646D01*
X159747000Y-128939032D01*
X159747000Y-128074968D01*
X159817000Y-128074968D01*
X159817000Y-128939032D01*
X159911009Y-129411646D01*
X160178723Y-129812309D01*
X160579386Y-130080023D01*
X161052000Y-130174032D01*
X161524614Y-130080023D01*
X161925277Y-129812309D01*
X162192991Y-129411646D01*
X162287000Y-128939032D01*
X162287000Y-128074968D01*
X162357000Y-128074968D01*
X162357000Y-128939032D01*
X162451009Y-129411646D01*
X162718723Y-129812309D01*
X163119386Y-130080023D01*
X163592000Y-130174032D01*
X164064614Y-130080023D01*
X164465277Y-129812309D01*
X164732991Y-129411646D01*
X164827000Y-128939032D01*
X164827000Y-128074968D01*
X164897000Y-128074968D01*
X164897000Y-128939032D01*
X164991009Y-129411646D01*
X165258723Y-129812309D01*
X165659386Y-130080023D01*
X166132000Y-130174032D01*
X166604614Y-130080023D01*
X167005277Y-129812309D01*
X167119074Y-129642000D01*
X174261000Y-129642000D01*
X174695346Y-129555603D01*
X175063566Y-129309566D01*
X178348567Y-126024566D01*
X178594604Y-125656345D01*
X178681000Y-125222000D01*
X178594604Y-124787654D01*
X178348567Y-124419433D01*
X177980346Y-124173396D01*
X177546000Y-124087000D01*
X177111655Y-124173396D01*
X176743434Y-124419433D01*
X173790868Y-127372000D01*
X167119074Y-127372000D01*
X167005277Y-127201691D01*
X166604614Y-126933977D01*
X166132000Y-126839968D01*
X165659386Y-126933977D01*
X165258723Y-127201691D01*
X164991009Y-127602354D01*
X164897000Y-128074968D01*
X164827000Y-128074968D01*
X164732991Y-127602354D01*
X164465277Y-127201691D01*
X164064614Y-126933977D01*
X163592000Y-126839968D01*
X163119386Y-126933977D01*
X162718723Y-127201691D01*
X162451009Y-127602354D01*
X162357000Y-128074968D01*
X162287000Y-128074968D01*
X162192991Y-127602354D01*
X161925277Y-127201691D01*
X161524614Y-126933977D01*
X161052000Y-126839968D01*
X160579386Y-126933977D01*
X160178723Y-127201691D01*
X159911009Y-127602354D01*
X159817000Y-128074968D01*
X159747000Y-128074968D01*
X159652991Y-127602354D01*
X159385277Y-127201691D01*
X158984614Y-126933977D01*
X158512000Y-126839968D01*
X158039386Y-126933977D01*
X157638723Y-127201691D01*
X157371009Y-127602354D01*
X157277000Y-128074968D01*
X157207000Y-128074968D01*
X157112991Y-127602354D01*
X156845277Y-127201691D01*
X156444614Y-126933977D01*
X155972000Y-126839968D01*
X155499386Y-126933977D01*
X155098723Y-127201691D01*
X154831009Y-127602354D01*
X154737000Y-128074968D01*
X154667000Y-128074968D01*
X154572991Y-127602354D01*
X154305277Y-127201691D01*
X153904614Y-126933977D01*
X153432000Y-126839968D01*
X152959386Y-126933977D01*
X152558723Y-127201691D01*
X152291009Y-127602354D01*
X152197000Y-128074968D01*
X152127000Y-128074968D01*
X152032991Y-127602354D01*
X151765277Y-127201691D01*
X151364614Y-126933977D01*
X150892000Y-126839968D01*
X150419386Y-126933977D01*
X150018723Y-127201691D01*
X149751009Y-127602354D01*
X149657000Y-128074968D01*
X149587000Y-128074968D01*
X149492991Y-127602354D01*
X149225277Y-127201691D01*
X148824614Y-126933977D01*
X148352000Y-126839968D01*
X147879386Y-126933977D01*
X147478723Y-127201691D01*
X147211009Y-127602354D01*
X147117000Y-128074968D01*
X147047000Y-128074968D01*
X146952991Y-127602354D01*
X146685277Y-127201691D01*
X146284614Y-126933977D01*
X145812000Y-126839968D01*
X145339386Y-126933977D01*
X144938723Y-127201691D01*
X144671009Y-127602354D01*
X144577000Y-128074968D01*
X144507000Y-128074968D01*
X144507000Y-127980000D01*
X144364390Y-127517053D01*
X144055474Y-127143920D01*
X143627281Y-126917408D01*
X143589609Y-126913538D01*
X143399000Y-127038269D01*
X143145000Y-127038269D01*
X142954391Y-126913538D01*
X142916719Y-126917408D01*
X142488526Y-127143920D01*
X142179610Y-127517053D01*
X142037000Y-127980000D01*
X131181132Y-127980000D01*
X133977566Y-125183566D01*
X134076700Y-125035201D01*
X134223603Y-124815346D01*
X134310000Y-124381000D01*
X134310000Y-121585914D01*
X134358629Y-121537370D01*
X134571757Y-121024100D01*
X134572242Y-120468339D01*
X134360010Y-119954697D01*
X133967370Y-119561371D01*
X133701273Y-119450878D01*
X133175000Y-118924605D01*
X133160858Y-118938748D01*
X132981253Y-118759143D01*
X132995395Y-118745000D01*
X133354605Y-118745000D01*
X134155213Y-119545608D01*
X134397397Y-119476143D01*
X134584144Y-118952698D01*
X134556362Y-118397632D01*
X134397397Y-118013857D01*
X134155213Y-117944392D01*
X133354605Y-118745000D01*
X132995395Y-118745000D01*
X132194787Y-117944392D01*
X131952603Y-118013857D01*
X131765856Y-118537302D01*
X131793638Y-119092368D01*
X131952603Y-119476143D01*
X132194785Y-119545607D01*
X132130392Y-119610000D01*
X131375132Y-119610000D01*
X131310000Y-119544868D01*
X131310000Y-113500132D01*
X131358566Y-113451566D01*
X131604603Y-113083346D01*
X131690999Y-112649000D01*
X131604603Y-112214655D01*
X131429576Y-111952708D01*
X132040000Y-112563132D01*
X132040000Y-115904086D01*
X131991371Y-115952630D01*
X131778243Y-116465900D01*
X131777758Y-117021661D01*
X131989990Y-117535303D01*
X132382630Y-117928629D01*
X132648727Y-118039122D01*
X133175000Y-118565395D01*
X133701302Y-118039093D01*
X133965303Y-117930010D01*
X134358629Y-117537370D01*
X134571757Y-117024100D01*
X134572242Y-116468339D01*
X134360010Y-115954697D01*
X134310000Y-115904600D01*
X134310000Y-112093000D01*
X134223603Y-111658654D01*
X134104000Y-111479656D01*
X134104000Y-108074968D01*
X142037000Y-108074968D01*
X142037000Y-108939032D01*
X142131009Y-109411646D01*
X142137000Y-109420612D01*
X142137000Y-116856000D01*
X142148467Y-116913651D01*
X142142961Y-116972174D01*
X142191343Y-117129198D01*
X142223397Y-117290346D01*
X142256054Y-117339220D01*
X142273362Y-117395395D01*
X142378149Y-117521949D01*
X142469434Y-117658566D01*
X142518310Y-117691224D01*
X142555797Y-117736498D01*
X148000797Y-122165499D01*
X148146041Y-122242321D01*
X148282654Y-122333603D01*
X148340305Y-122345071D01*
X148392267Y-122372554D01*
X148555853Y-122387946D01*
X148717000Y-122420000D01*
X177419000Y-122420000D01*
X177549584Y-122394025D01*
X177682632Y-122388958D01*
X185058471Y-120627564D01*
X185136075Y-120643000D01*
X186719925Y-120643000D01*
X187251855Y-120537193D01*
X187702803Y-120235878D01*
X188004118Y-119784930D01*
X188109925Y-119253000D01*
X188004118Y-118721070D01*
X187702803Y-118270122D01*
X187254013Y-117970249D01*
X187327263Y-117948592D01*
X187750681Y-117606076D01*
X188010793Y-117127597D01*
X188025277Y-117054971D01*
X187902683Y-116840000D01*
X186055000Y-116840000D01*
X186055000Y-116860000D01*
X185801000Y-116860000D01*
X185801000Y-116840000D01*
X183953317Y-116840000D01*
X183830723Y-117054971D01*
X183845207Y-117127597D01*
X184105319Y-117606076D01*
X184528737Y-117948592D01*
X184601987Y-117970249D01*
X184153197Y-118270122D01*
X183962548Y-118555447D01*
X177285356Y-120150000D01*
X149120320Y-120150000D01*
X144407000Y-116316154D01*
X144407000Y-109420612D01*
X144412991Y-109411646D01*
X144507000Y-108939032D01*
X144507000Y-108074968D01*
X144577000Y-108074968D01*
X144577000Y-108939032D01*
X144671009Y-109411646D01*
X144938723Y-109812309D01*
X145339386Y-110080023D01*
X145812000Y-110174032D01*
X146284614Y-110080023D01*
X146685277Y-109812309D01*
X146952991Y-109411646D01*
X147047000Y-108939032D01*
X147047000Y-108074968D01*
X147117000Y-108074968D01*
X147117000Y-108939032D01*
X147211009Y-109411646D01*
X147478723Y-109812309D01*
X147879386Y-110080023D01*
X148352000Y-110174032D01*
X148824614Y-110080023D01*
X149225277Y-109812309D01*
X149492991Y-109411646D01*
X149587000Y-108939032D01*
X149587000Y-108074968D01*
X149657000Y-108074968D01*
X149657000Y-108939032D01*
X149751009Y-109411646D01*
X150018723Y-109812309D01*
X150419386Y-110080023D01*
X150892000Y-110174032D01*
X151364614Y-110080023D01*
X151765277Y-109812309D01*
X152032991Y-109411646D01*
X152127000Y-108939032D01*
X152127000Y-108634000D01*
X152197000Y-108634000D01*
X152197000Y-109034000D01*
X152339610Y-109496947D01*
X152648526Y-109870080D01*
X153076719Y-110096592D01*
X153114391Y-110100462D01*
X153305000Y-109975731D01*
X153305000Y-108634000D01*
X153559000Y-108634000D01*
X153559000Y-109975731D01*
X153749609Y-110100462D01*
X153787281Y-110096592D01*
X154215474Y-109870080D01*
X154524390Y-109496947D01*
X154667000Y-109034000D01*
X154667000Y-108634000D01*
X153559000Y-108634000D01*
X153305000Y-108634000D01*
X152197000Y-108634000D01*
X152127000Y-108634000D01*
X152127000Y-108074968D01*
X152108110Y-107980000D01*
X152197000Y-107980000D01*
X152197000Y-108380000D01*
X153305000Y-108380000D01*
X153305000Y-107038269D01*
X153559000Y-107038269D01*
X153559000Y-108380000D01*
X154667000Y-108380000D01*
X154667000Y-108074968D01*
X154737000Y-108074968D01*
X154737000Y-108939032D01*
X154831009Y-109411646D01*
X154837000Y-109420612D01*
X154837000Y-112919000D01*
X154923397Y-113353346D01*
X155169434Y-113721566D01*
X161122434Y-119674566D01*
X161490654Y-119920603D01*
X161925000Y-120007000D01*
X172212000Y-120007000D01*
X172646346Y-119920603D01*
X173014566Y-119674566D01*
X176318103Y-116371029D01*
X183830723Y-116371029D01*
X183953317Y-116586000D01*
X185801000Y-116586000D01*
X185801000Y-115323000D01*
X186055000Y-115323000D01*
X186055000Y-116586000D01*
X187902683Y-116586000D01*
X188025277Y-116371029D01*
X188010793Y-116298403D01*
X187750681Y-115819924D01*
X187327263Y-115477408D01*
X186805000Y-115323000D01*
X186055000Y-115323000D01*
X185801000Y-115323000D01*
X185051000Y-115323000D01*
X184528737Y-115477408D01*
X184105319Y-115819924D01*
X183845207Y-116298403D01*
X183830723Y-116371029D01*
X176318103Y-116371029D01*
X177459566Y-115229566D01*
X177477410Y-115202861D01*
X177705603Y-114861346D01*
X177792000Y-114427000D01*
X177792000Y-102349682D01*
X183193207Y-102349682D01*
X183616322Y-103373697D01*
X184399102Y-104157845D01*
X185422377Y-104582746D01*
X186530362Y-104583713D01*
X187554377Y-104160598D01*
X188338525Y-103377818D01*
X188763426Y-102354543D01*
X188764393Y-101246558D01*
X188341278Y-100222543D01*
X187558498Y-99438395D01*
X186535223Y-99013494D01*
X185427238Y-99012527D01*
X184403223Y-99435642D01*
X183619075Y-100218422D01*
X183194174Y-101241697D01*
X183193207Y-102349682D01*
X177792000Y-102349682D01*
X177792000Y-101496612D01*
X177797991Y-101487646D01*
X177892000Y-101015032D01*
X177892000Y-100150968D01*
X177797991Y-99678354D01*
X177530277Y-99277691D01*
X177129614Y-99009977D01*
X176657000Y-98915968D01*
X176184386Y-99009977D01*
X175783723Y-99277691D01*
X175516009Y-99678354D01*
X175422000Y-100150968D01*
X175422000Y-101015032D01*
X175516009Y-101487646D01*
X175522000Y-101496612D01*
X175522000Y-113956868D01*
X171741868Y-117737000D01*
X162395132Y-117737000D01*
X157107000Y-112448868D01*
X157107000Y-109420612D01*
X157112991Y-109411646D01*
X157207000Y-108939032D01*
X157207000Y-108074968D01*
X157277000Y-108074968D01*
X157277000Y-108939032D01*
X157371009Y-109411646D01*
X157377000Y-109420612D01*
X157377000Y-111522000D01*
X157463397Y-111956346D01*
X157659907Y-112250443D01*
X157709434Y-112324566D01*
X162011434Y-116626566D01*
X162379654Y-116872603D01*
X162814000Y-116959000D01*
X169672000Y-116959000D01*
X170106346Y-116872603D01*
X170474566Y-116626566D01*
X174919566Y-112181566D01*
X174995886Y-112067345D01*
X175165603Y-111813346D01*
X175252000Y-111379000D01*
X175252000Y-101496612D01*
X175257991Y-101487646D01*
X175352000Y-101015032D01*
X175352000Y-100150968D01*
X175257991Y-99678354D01*
X174990277Y-99277691D01*
X174589614Y-99009977D01*
X174117000Y-98915968D01*
X173644386Y-99009977D01*
X173243723Y-99277691D01*
X172976009Y-99678354D01*
X172882000Y-100150968D01*
X172882000Y-101015032D01*
X172976009Y-101487646D01*
X172982000Y-101496612D01*
X172982000Y-110908868D01*
X169201868Y-114689000D01*
X163284132Y-114689000D01*
X159647000Y-111051868D01*
X159647000Y-109420612D01*
X159652991Y-109411646D01*
X159747000Y-108939032D01*
X159747000Y-108074968D01*
X159817000Y-108074968D01*
X159817000Y-108939032D01*
X159911009Y-109411646D01*
X159917000Y-109420612D01*
X159917000Y-110760000D01*
X160003397Y-111194346D01*
X160126779Y-111379000D01*
X160249434Y-111562566D01*
X161884434Y-113197566D01*
X162252654Y-113443603D01*
X162687000Y-113530000D01*
X168910000Y-113530000D01*
X169344346Y-113443603D01*
X169712566Y-113197566D01*
X172379567Y-110530566D01*
X172625604Y-110162345D01*
X172712000Y-109728000D01*
X172712000Y-101496612D01*
X172717991Y-101487646D01*
X172812000Y-101015032D01*
X172812000Y-100150968D01*
X172717991Y-99678354D01*
X172450277Y-99277691D01*
X172049614Y-99009977D01*
X171577000Y-98915968D01*
X171104386Y-99009977D01*
X170703723Y-99277691D01*
X170436009Y-99678354D01*
X170342000Y-100150968D01*
X170342000Y-101015032D01*
X170436009Y-101487646D01*
X170442000Y-101496612D01*
X170442000Y-109257867D01*
X168439868Y-111260000D01*
X163157132Y-111260000D01*
X162187000Y-110289868D01*
X162187000Y-109420612D01*
X162192991Y-109411646D01*
X162287000Y-108939032D01*
X162287000Y-108074968D01*
X162192991Y-107602354D01*
X161925277Y-107201691D01*
X161524614Y-106933977D01*
X161052000Y-106839968D01*
X160579386Y-106933977D01*
X160178723Y-107201691D01*
X159911009Y-107602354D01*
X159817000Y-108074968D01*
X159747000Y-108074968D01*
X159652991Y-107602354D01*
X159385277Y-107201691D01*
X158984614Y-106933977D01*
X158512000Y-106839968D01*
X158039386Y-106933977D01*
X157638723Y-107201691D01*
X157371009Y-107602354D01*
X157277000Y-108074968D01*
X157207000Y-108074968D01*
X157112991Y-107602354D01*
X156845277Y-107201691D01*
X156444614Y-106933977D01*
X155972000Y-106839968D01*
X155499386Y-106933977D01*
X155098723Y-107201691D01*
X154831009Y-107602354D01*
X154737000Y-108074968D01*
X154667000Y-108074968D01*
X154667000Y-107980000D01*
X154524390Y-107517053D01*
X154215474Y-107143920D01*
X153787281Y-106917408D01*
X153749609Y-106913538D01*
X153559000Y-107038269D01*
X153305000Y-107038269D01*
X153114391Y-106913538D01*
X153076719Y-106917408D01*
X152648526Y-107143920D01*
X152339610Y-107517053D01*
X152197000Y-107980000D01*
X152108110Y-107980000D01*
X152032991Y-107602354D01*
X151765277Y-107201691D01*
X151364614Y-106933977D01*
X150892000Y-106839968D01*
X150419386Y-106933977D01*
X150018723Y-107201691D01*
X149751009Y-107602354D01*
X149657000Y-108074968D01*
X149587000Y-108074968D01*
X149492991Y-107602354D01*
X149225277Y-107201691D01*
X148824614Y-106933977D01*
X148352000Y-106839968D01*
X147879386Y-106933977D01*
X147478723Y-107201691D01*
X147211009Y-107602354D01*
X147117000Y-108074968D01*
X147047000Y-108074968D01*
X146952991Y-107602354D01*
X146685277Y-107201691D01*
X146284614Y-106933977D01*
X145812000Y-106839968D01*
X145339386Y-106933977D01*
X144938723Y-107201691D01*
X144671009Y-107602354D01*
X144577000Y-108074968D01*
X144507000Y-108074968D01*
X144412991Y-107602354D01*
X144145277Y-107201691D01*
X143744614Y-106933977D01*
X143272000Y-106839968D01*
X142799386Y-106933977D01*
X142398723Y-107201691D01*
X142131009Y-107602354D01*
X142037000Y-108074968D01*
X134104000Y-108074968D01*
X134104000Y-107912132D01*
X136487132Y-105529000D01*
X161544000Y-105529000D01*
X161978346Y-105442603D01*
X162346566Y-105196566D01*
X162718424Y-104824708D01*
X162543397Y-105086654D01*
X162457000Y-105521000D01*
X162457000Y-107593388D01*
X162451009Y-107602354D01*
X162357000Y-108074968D01*
X162357000Y-108939032D01*
X162451009Y-109411646D01*
X162718723Y-109812309D01*
X163119386Y-110080023D01*
X163592000Y-110174032D01*
X164064614Y-110080023D01*
X164465277Y-109812309D01*
X164732991Y-109411646D01*
X164827000Y-108939032D01*
X164827000Y-108074968D01*
X164897000Y-108074968D01*
X164897000Y-108939032D01*
X164991009Y-109411646D01*
X165258723Y-109812309D01*
X165659386Y-110080023D01*
X166132000Y-110174032D01*
X166604614Y-110080023D01*
X167005277Y-109812309D01*
X167272991Y-109411646D01*
X167367000Y-108939032D01*
X167367000Y-108074968D01*
X167272991Y-107602354D01*
X167005277Y-107201691D01*
X166604614Y-106933977D01*
X166132000Y-106839968D01*
X165659386Y-106933977D01*
X165258723Y-107201691D01*
X164991009Y-107602354D01*
X164897000Y-108074968D01*
X164827000Y-108074968D01*
X164732991Y-107602354D01*
X164727000Y-107593388D01*
X164727000Y-105991132D01*
X165189132Y-105529000D01*
X167259000Y-105529000D01*
X167693346Y-105442603D01*
X168061566Y-105196566D01*
X169839566Y-103418566D01*
X169866793Y-103377818D01*
X170085603Y-103050346D01*
X170172000Y-102616000D01*
X170172000Y-101496612D01*
X170177991Y-101487646D01*
X170272000Y-101015032D01*
X170272000Y-100150968D01*
X170177991Y-99678354D01*
X169910277Y-99277691D01*
X169509614Y-99009977D01*
X169037000Y-98915968D01*
X168564386Y-99009977D01*
X168163723Y-99277691D01*
X167896009Y-99678354D01*
X167802000Y-100150968D01*
X167802000Y-101015032D01*
X167896009Y-101487646D01*
X167902000Y-101496612D01*
X167902000Y-102145868D01*
X166788868Y-103259000D01*
X164719000Y-103259000D01*
X164284655Y-103345396D01*
X164022709Y-103520423D01*
X164759566Y-102783566D01*
X165005603Y-102415346D01*
X165053120Y-102176462D01*
X165092000Y-101981000D01*
X165092000Y-101496612D01*
X165097991Y-101487646D01*
X165192000Y-101015032D01*
X165192000Y-100150968D01*
X165262000Y-100150968D01*
X165262000Y-101015032D01*
X165356009Y-101487646D01*
X165623723Y-101888309D01*
X166024386Y-102156023D01*
X166497000Y-102250032D01*
X166969614Y-102156023D01*
X167370277Y-101888309D01*
X167637991Y-101487646D01*
X167732000Y-101015032D01*
X167732000Y-100150968D01*
X167637991Y-99678354D01*
X167370277Y-99277691D01*
X166969614Y-99009977D01*
X166497000Y-98915968D01*
X166024386Y-99009977D01*
X165623723Y-99277691D01*
X165356009Y-99678354D01*
X165262000Y-100150968D01*
X165192000Y-100150968D01*
X165097991Y-99678354D01*
X164830277Y-99277691D01*
X164429614Y-99009977D01*
X163957000Y-98915968D01*
X163484386Y-99009977D01*
X163083723Y-99277691D01*
X162816009Y-99678354D01*
X162722000Y-100150968D01*
X162722000Y-101015032D01*
X162816009Y-101487646D01*
X162822000Y-101496612D01*
X162822000Y-101510868D01*
X161073868Y-103259000D01*
X136017000Y-103259000D01*
X135582654Y-103345397D01*
X135214434Y-103591434D01*
X132166434Y-106639434D01*
X131920397Y-107007654D01*
X131834000Y-107442000D01*
X131834000Y-109146868D01*
X129958927Y-107271795D01*
X129959248Y-106903813D01*
X129741243Y-106376200D01*
X129337923Y-105972176D01*
X128810691Y-105753250D01*
X128239813Y-105752752D01*
X127712200Y-105970757D01*
X127308176Y-106374077D01*
X127089250Y-106901309D01*
X127088752Y-107472187D01*
X124946735Y-107472187D01*
X124970965Y-107404777D01*
X124943778Y-106834546D01*
X124777864Y-106433995D01*
X124531745Y-106359861D01*
X123703605Y-107188000D01*
X123344395Y-107188000D01*
X122516255Y-106359861D01*
X122270136Y-106433995D01*
X122077035Y-106971223D01*
X121785000Y-106971223D01*
X121785000Y-106180255D01*
X122695861Y-106180255D01*
X123524000Y-107008395D01*
X124352139Y-106180255D01*
X124278005Y-105934136D01*
X123740777Y-105741035D01*
X123170546Y-105768222D01*
X122769995Y-105934136D01*
X122695861Y-106180255D01*
X121785000Y-106180255D01*
X121785000Y-103614727D01*
X124259113Y-100150968D01*
X147482000Y-100150968D01*
X147482000Y-101015032D01*
X147576009Y-101487646D01*
X147843723Y-101888309D01*
X148244386Y-102156023D01*
X148717000Y-102250032D01*
X149189614Y-102156023D01*
X149590277Y-101888309D01*
X149857991Y-101487646D01*
X149952000Y-101015032D01*
X149952000Y-100150968D01*
X150022000Y-100150968D01*
X150022000Y-101015032D01*
X150116009Y-101487646D01*
X150383723Y-101888309D01*
X150784386Y-102156023D01*
X151257000Y-102250032D01*
X151729614Y-102156023D01*
X152130277Y-101888309D01*
X152397991Y-101487646D01*
X152492000Y-101015032D01*
X152492000Y-100150968D01*
X152562000Y-100150968D01*
X152562000Y-101015032D01*
X152656009Y-101487646D01*
X152923723Y-101888309D01*
X153324386Y-102156023D01*
X153797000Y-102250032D01*
X154269614Y-102156023D01*
X154670277Y-101888309D01*
X154937991Y-101487646D01*
X155032000Y-101015032D01*
X155032000Y-100710000D01*
X155102000Y-100710000D01*
X155102000Y-101110000D01*
X155244610Y-101572947D01*
X155553526Y-101946080D01*
X155981719Y-102172592D01*
X156019391Y-102176462D01*
X156210000Y-102051731D01*
X156210000Y-100710000D01*
X156464000Y-100710000D01*
X156464000Y-102051731D01*
X156654609Y-102176462D01*
X156692281Y-102172592D01*
X157120474Y-101946080D01*
X157429390Y-101572947D01*
X157572000Y-101110000D01*
X157572000Y-100710000D01*
X156464000Y-100710000D01*
X156210000Y-100710000D01*
X155102000Y-100710000D01*
X155032000Y-100710000D01*
X155032000Y-100150968D01*
X155013110Y-100056000D01*
X155102000Y-100056000D01*
X155102000Y-100456000D01*
X156210000Y-100456000D01*
X156210000Y-99114269D01*
X156464000Y-99114269D01*
X156464000Y-100456000D01*
X157572000Y-100456000D01*
X157572000Y-100056000D01*
X157429390Y-99593053D01*
X157120474Y-99219920D01*
X156692281Y-98993408D01*
X156654609Y-98989538D01*
X156464000Y-99114269D01*
X156210000Y-99114269D01*
X156019391Y-98989538D01*
X155981719Y-98993408D01*
X155553526Y-99219920D01*
X155244610Y-99593053D01*
X155102000Y-100056000D01*
X155013110Y-100056000D01*
X154937991Y-99678354D01*
X154670277Y-99277691D01*
X154269614Y-99009977D01*
X153797000Y-98915968D01*
X153324386Y-99009977D01*
X152923723Y-99277691D01*
X152656009Y-99678354D01*
X152562000Y-100150968D01*
X152492000Y-100150968D01*
X152397991Y-99678354D01*
X152130277Y-99277691D01*
X151729614Y-99009977D01*
X151257000Y-98915968D01*
X150784386Y-99009977D01*
X150383723Y-99277691D01*
X150116009Y-99678354D01*
X150022000Y-100150968D01*
X149952000Y-100150968D01*
X149857991Y-99678354D01*
X149590277Y-99277691D01*
X149189614Y-99009977D01*
X148717000Y-98915968D01*
X148244386Y-99009977D01*
X147843723Y-99277691D01*
X147576009Y-99678354D01*
X147482000Y-100150968D01*
X124259113Y-100150968D01*
X126314091Y-97274000D01*
X156735273Y-97274000D01*
X157742000Y-97993091D01*
X157742000Y-99669388D01*
X157736009Y-99678354D01*
X157642000Y-100150968D01*
X157642000Y-101015032D01*
X157736009Y-101487646D01*
X158003723Y-101888309D01*
X158404386Y-102156023D01*
X158877000Y-102250032D01*
X159349614Y-102156023D01*
X159750277Y-101888309D01*
X160017991Y-101487646D01*
X160112000Y-101015032D01*
X160112000Y-100150968D01*
X160182000Y-100150968D01*
X160182000Y-101015032D01*
X160276009Y-101487646D01*
X160543723Y-101888309D01*
X160944386Y-102156023D01*
X161417000Y-102250032D01*
X161889614Y-102156023D01*
X162290277Y-101888309D01*
X162557991Y-101487646D01*
X162652000Y-101015032D01*
X162652000Y-100150968D01*
X162557991Y-99678354D01*
X162552000Y-99669388D01*
X162552000Y-96901000D01*
X162465603Y-96466654D01*
X162219566Y-96098434D01*
X161851346Y-95852397D01*
X161417000Y-95766000D01*
X160982654Y-95852397D01*
X160614434Y-96098434D01*
X160368397Y-96466654D01*
X160282000Y-96901000D01*
X160282000Y-99669388D01*
X160276009Y-99678354D01*
X160182000Y-100150968D01*
X160112000Y-100150968D01*
X160017991Y-99678354D01*
X160012000Y-99669388D01*
X160012000Y-97409000D01*
X159993618Y-97316586D01*
X159996557Y-97222407D01*
X159950828Y-97101466D01*
X159925603Y-96974654D01*
X159873255Y-96896310D01*
X159839930Y-96808175D01*
X159751399Y-96713940D01*
X159679566Y-96606434D01*
X159601222Y-96554086D01*
X159536706Y-96485413D01*
X158151527Y-95496000D01*
X182880000Y-95496000D01*
X183314346Y-95409603D01*
X183682566Y-95163566D01*
X186095566Y-92750566D01*
X186341603Y-92382346D01*
X186381125Y-92183654D01*
X186428000Y-91948000D01*
X186428000Y-84709000D01*
X186341603Y-84274654D01*
X186095566Y-83906434D01*
X185969566Y-83780434D01*
X185826739Y-83685000D01*
X185601346Y-83534397D01*
X185167000Y-83448000D01*
X177644074Y-83448000D01*
X177530277Y-83277691D01*
X177129614Y-83009977D01*
X176657000Y-82915968D01*
X176184386Y-83009977D01*
X175783723Y-83277691D01*
X175516009Y-83678354D01*
X175422000Y-84150968D01*
X175422000Y-85015032D01*
X175516009Y-85487646D01*
X175783723Y-85888309D01*
X176184386Y-86156023D01*
X176657000Y-86250032D01*
X177129614Y-86156023D01*
X177530277Y-85888309D01*
X177644074Y-85718000D01*
X184158000Y-85718000D01*
X184158000Y-91477868D01*
X182409868Y-93226000D01*
X131153132Y-93226000D01*
X123944000Y-86016868D01*
X123944000Y-81280000D01*
X123857603Y-80845654D01*
X123611566Y-80477434D01*
X123243346Y-80231397D01*
X122809000Y-80145000D01*
X122374654Y-80231397D01*
X122006434Y-80477434D01*
X121760397Y-80845654D01*
X121674000Y-81280000D01*
X121674000Y-86487000D01*
X121760397Y-86921346D01*
X121782506Y-86954434D01*
X122006434Y-87289566D01*
X129720868Y-95004000D01*
X125730000Y-95004000D01*
X125637581Y-95022383D01*
X125543407Y-95019444D01*
X125422470Y-95065172D01*
X125295654Y-95090397D01*
X125217309Y-95142745D01*
X125129175Y-95176070D01*
X125034940Y-95264601D01*
X124927434Y-95336434D01*
X124875086Y-95414778D01*
X124806412Y-95479295D01*
X119726413Y-102591295D01*
X119673232Y-102709146D01*
X119653940Y-102738018D01*
X119653940Y-92448000D01*
X122428000Y-92448000D01*
X122862346Y-92361603D01*
X123230566Y-92115566D01*
X123357566Y-91988566D01*
X123603603Y-91620345D01*
X123690000Y-91186000D01*
X123603603Y-90751655D01*
X123357566Y-90383434D01*
X122989345Y-90137397D01*
X122555000Y-90051000D01*
X122120655Y-90137397D01*
X122059888Y-90178000D01*
X119653940Y-90178000D01*
X119653940Y-72546400D01*
X119788940Y-72344359D01*
X119923940Y-72546400D01*
X119923940Y-73814940D01*
X120010337Y-74249286D01*
X120147526Y-74454603D01*
X120256374Y-74617506D01*
X126959434Y-81320566D01*
X127327654Y-81566603D01*
X127762000Y-81653000D01*
X130824193Y-81653000D01*
X131305287Y-81852768D01*
X131836383Y-81853231D01*
X132327229Y-81650418D01*
X132703098Y-81275204D01*
X132787958Y-81070839D01*
X139757818Y-92048369D01*
X139844047Y-92138721D01*
X139913434Y-92242566D01*
X139995460Y-92297374D01*
X140063569Y-92368740D01*
X140177808Y-92419215D01*
X140281654Y-92488603D01*
X140378411Y-92507849D01*
X140468645Y-92547718D01*
X140593503Y-92550634D01*
X140716000Y-92575000D01*
X171958000Y-92575000D01*
X172136433Y-92539507D01*
X172316918Y-92516755D01*
X172352346Y-92496559D01*
X172392346Y-92488603D01*
X172543611Y-92387531D01*
X172701654Y-92297440D01*
X172726658Y-92265223D01*
X172760566Y-92242566D01*
X172861636Y-92091305D01*
X172973175Y-91947587D01*
X175132175Y-87629587D01*
X175142946Y-87590254D01*
X175165603Y-87556346D01*
X175201094Y-87377923D01*
X175249145Y-87202458D01*
X175244044Y-87161996D01*
X175252000Y-87122000D01*
X175252000Y-85496612D01*
X175257991Y-85487646D01*
X175352000Y-85015032D01*
X175352000Y-84150968D01*
X175257991Y-83678354D01*
X174990277Y-83277691D01*
X174589614Y-83009977D01*
X174117000Y-82915968D01*
X173644386Y-83009977D01*
X173243723Y-83277691D01*
X172976009Y-83678354D01*
X172882000Y-84150968D01*
X172882000Y-85015032D01*
X172976009Y-85487646D01*
X172982000Y-85496612D01*
X172982000Y-86854062D01*
X171256531Y-90305000D01*
X159184197Y-90305000D01*
X159226543Y-90258690D01*
X159298566Y-90210566D01*
X159374592Y-90096784D01*
X159466939Y-89995795D01*
X161778060Y-86178213D01*
X161889614Y-86156023D01*
X162290277Y-85888309D01*
X162557991Y-85487646D01*
X162652000Y-85015032D01*
X162652000Y-84150968D01*
X162557991Y-83678354D01*
X162290277Y-83277691D01*
X161889614Y-83009977D01*
X161417000Y-82915968D01*
X160944386Y-83009977D01*
X160543723Y-83277691D01*
X160276009Y-83678354D01*
X160182000Y-84150968D01*
X160182000Y-84431390D01*
X160112000Y-84547018D01*
X160112000Y-84150968D01*
X160017991Y-83678354D01*
X159969342Y-83605546D01*
X159925603Y-83385654D01*
X159679566Y-83017434D01*
X159000687Y-82338555D01*
X159385000Y-82415000D01*
X162216868Y-82415000D01*
X162822000Y-83020132D01*
X162822000Y-83669388D01*
X162816009Y-83678354D01*
X162722000Y-84150968D01*
X162722000Y-85015032D01*
X162816009Y-85487646D01*
X163083723Y-85888309D01*
X163484386Y-86156023D01*
X163957000Y-86250032D01*
X164429614Y-86156023D01*
X164830277Y-85888309D01*
X165097991Y-85487646D01*
X165192000Y-85015032D01*
X165192000Y-84150968D01*
X165097991Y-83678354D01*
X165092000Y-83669388D01*
X165092000Y-82550000D01*
X165005603Y-82115654D01*
X164759566Y-81747434D01*
X163489566Y-80477434D01*
X163470441Y-80464655D01*
X163121346Y-80231397D01*
X162687000Y-80145000D01*
X159855132Y-80145000D01*
X159839132Y-80129000D01*
X163613868Y-80129000D01*
X165362000Y-81877132D01*
X165362000Y-83669388D01*
X165356009Y-83678354D01*
X165262000Y-84150968D01*
X165262000Y-85015032D01*
X165356009Y-85487646D01*
X165623723Y-85888309D01*
X166024386Y-86156023D01*
X166497000Y-86250032D01*
X166969614Y-86156023D01*
X167370277Y-85888309D01*
X167637991Y-85487646D01*
X167732000Y-85015032D01*
X167732000Y-84150968D01*
X167802000Y-84150968D01*
X167802000Y-85015032D01*
X167896009Y-85487646D01*
X168163723Y-85888309D01*
X168564386Y-86156023D01*
X169037000Y-86250032D01*
X169509614Y-86156023D01*
X169910277Y-85888309D01*
X170177991Y-85487646D01*
X170272000Y-85015032D01*
X170272000Y-84150968D01*
X170342000Y-84150968D01*
X170342000Y-85015032D01*
X170436009Y-85487646D01*
X170703723Y-85888309D01*
X171104386Y-86156023D01*
X171577000Y-86250032D01*
X172049614Y-86156023D01*
X172450277Y-85888309D01*
X172717991Y-85487646D01*
X172812000Y-85015032D01*
X172812000Y-84150968D01*
X172717991Y-83678354D01*
X172450277Y-83277691D01*
X172049614Y-83009977D01*
X171577000Y-82915968D01*
X171104386Y-83009977D01*
X170703723Y-83277691D01*
X170436009Y-83678354D01*
X170342000Y-84150968D01*
X170272000Y-84150968D01*
X170177991Y-83678354D01*
X169910277Y-83277691D01*
X169509614Y-83009977D01*
X169037000Y-82915968D01*
X168564386Y-83009977D01*
X168163723Y-83277691D01*
X167896009Y-83678354D01*
X167802000Y-84150968D01*
X167732000Y-84150968D01*
X167637991Y-83678354D01*
X167632000Y-83669388D01*
X167632000Y-81407000D01*
X167545603Y-80972654D01*
X167299566Y-80604434D01*
X164886566Y-78191434D01*
X164518346Y-77945397D01*
X164084000Y-77859000D01*
X158459167Y-77859000D01*
X158790566Y-77637566D01*
X159036603Y-77269346D01*
X159123000Y-76835000D01*
X159036603Y-76400654D01*
X158982043Y-76319000D01*
X162687000Y-76319000D01*
X163121346Y-76232603D01*
X163489566Y-75986566D01*
X165373786Y-74102346D01*
X165855229Y-73903418D01*
X166231098Y-73528204D01*
X166434768Y-73037713D01*
X166435000Y-72771000D01*
X171358846Y-72771000D01*
X171460467Y-73281882D01*
X171638604Y-73548484D01*
X171671397Y-73713346D01*
X171821505Y-73937998D01*
X171917434Y-74081566D01*
X180172434Y-82336566D01*
X180540655Y-82582603D01*
X180975000Y-82669000D01*
X181409345Y-82582603D01*
X181777566Y-82336566D01*
X182023603Y-81968345D01*
X182110000Y-81534000D01*
X182023603Y-81099655D01*
X181777566Y-80731434D01*
X174037350Y-72991218D01*
X174081154Y-72771000D01*
X173979533Y-72260118D01*
X173690142Y-71827012D01*
X173257036Y-71537621D01*
X172746154Y-71436000D01*
X172693846Y-71436000D01*
X172182964Y-71537621D01*
X171749858Y-71827012D01*
X171460467Y-72260118D01*
X171358846Y-72771000D01*
X166435000Y-72771000D01*
X166435231Y-72506617D01*
X166232418Y-72015771D01*
X165857204Y-71639902D01*
X165366713Y-71436232D01*
X164835617Y-71435769D01*
X164344771Y-71638582D01*
X163968902Y-72013796D01*
X163767825Y-72498043D01*
X162216868Y-74049000D01*
X153505132Y-74049000D01*
X152673940Y-73217808D01*
X152673940Y-72546400D01*
X152819040Y-72329243D01*
X152822639Y-72311148D01*
X152847441Y-72394947D01*
X153188996Y-72816928D01*
X153666037Y-73076080D01*
X153737665Y-73090263D01*
X153951940Y-72967609D01*
X153951940Y-70624700D01*
X154205940Y-70624700D01*
X154205940Y-72967609D01*
X154420215Y-73090263D01*
X154491843Y-73076080D01*
X154968884Y-72816928D01*
X155310439Y-72394947D01*
X155464510Y-71874380D01*
X155464510Y-71348982D01*
X183244007Y-71348982D01*
X183667122Y-72372997D01*
X184449902Y-73157145D01*
X185473177Y-73582046D01*
X186581162Y-73583013D01*
X187605177Y-73159898D01*
X188389325Y-72377118D01*
X188814226Y-71353843D01*
X188815193Y-70245858D01*
X188392078Y-69221843D01*
X187609298Y-68437695D01*
X186586023Y-68012794D01*
X185478038Y-68011827D01*
X184454023Y-68434942D01*
X183669875Y-69217722D01*
X183244974Y-70240997D01*
X183244007Y-71348982D01*
X155464510Y-71348982D01*
X155464510Y-70624700D01*
X154205940Y-70624700D01*
X153951940Y-70624700D01*
X153931940Y-70624700D01*
X153931940Y-70370700D01*
X153951940Y-70370700D01*
X153951940Y-70350700D01*
X154205940Y-70350700D01*
X154205940Y-70370700D01*
X155464510Y-70370700D01*
X155464510Y-69121020D01*
X155310439Y-68600453D01*
X154968884Y-68178472D01*
X154491843Y-67919320D01*
X154420215Y-67905137D01*
X154205942Y-68027790D01*
X154205942Y-67868000D01*
X188926000Y-67868000D01*
X188926000Y-131014000D01*
X108000000Y-131014000D01*
X108000000Y-129912745D01*
X122822861Y-129912745D01*
X122896995Y-130158864D01*
X123434223Y-130351965D01*
X124004454Y-130324778D01*
X124405005Y-130158864D01*
X124479139Y-129912745D01*
X123651000Y-129084605D01*
X122822861Y-129912745D01*
X108000000Y-129912745D01*
X108000000Y-128688223D01*
X122204035Y-128688223D01*
X122231222Y-129258454D01*
X122397136Y-129659005D01*
X122643255Y-129733139D01*
X123471395Y-128905000D01*
X123830605Y-128905000D01*
X124658745Y-129733139D01*
X124904864Y-129659005D01*
X125097965Y-129121777D01*
X125070778Y-128551546D01*
X124904864Y-128150995D01*
X124658745Y-128076861D01*
X123830605Y-128905000D01*
X123471395Y-128905000D01*
X122643255Y-128076861D01*
X122397136Y-128150995D01*
X122204035Y-128688223D01*
X108000000Y-128688223D01*
X108000000Y-127897255D01*
X122822861Y-127897255D01*
X123651000Y-128725395D01*
X124479139Y-127897255D01*
X124405005Y-127651136D01*
X123867777Y-127458035D01*
X123297546Y-127485222D01*
X122896995Y-127651136D01*
X122822861Y-127897255D01*
X108000000Y-127897255D01*
X108000000Y-124266834D01*
X123539543Y-124266834D01*
X123939853Y-125235658D01*
X124680443Y-125977542D01*
X125648567Y-126379542D01*
X126696834Y-126380457D01*
X127665658Y-125980147D01*
X128407542Y-125239557D01*
X128809542Y-124271433D01*
X128810457Y-123223166D01*
X128410147Y-122254342D01*
X127669557Y-121512458D01*
X126701433Y-121110458D01*
X125653166Y-121109543D01*
X124684342Y-121509853D01*
X123942458Y-122250443D01*
X123540458Y-123218567D01*
X123539543Y-124266834D01*
X108000000Y-124266834D01*
X108000000Y-117725213D01*
X118374392Y-117725213D01*
X118443857Y-117967397D01*
X118967302Y-118154144D01*
X119522368Y-118126362D01*
X119906143Y-117967397D01*
X119975608Y-117725213D01*
X119175000Y-116924605D01*
X118374392Y-117725213D01*
X108000000Y-117725213D01*
X108000000Y-117038745D01*
X109915861Y-117038745D01*
X109989995Y-117284864D01*
X110527223Y-117477965D01*
X111097454Y-117450778D01*
X111498005Y-117284864D01*
X111572139Y-117038745D01*
X110744000Y-116210605D01*
X109915861Y-117038745D01*
X108000000Y-117038745D01*
X108000000Y-115814223D01*
X109297035Y-115814223D01*
X109324222Y-116384454D01*
X109490136Y-116785005D01*
X109736255Y-116859139D01*
X110564395Y-116031000D01*
X110923605Y-116031000D01*
X111751745Y-116859139D01*
X111997864Y-116785005D01*
X112086898Y-116537302D01*
X117765856Y-116537302D01*
X117793638Y-117092368D01*
X117952603Y-117476143D01*
X118194787Y-117545608D01*
X118995395Y-116745000D01*
X119354605Y-116745000D01*
X120155213Y-117545608D01*
X120397397Y-117476143D01*
X120584144Y-116952698D01*
X120556362Y-116397632D01*
X120397397Y-116013857D01*
X120155213Y-115944392D01*
X119354605Y-116745000D01*
X118995395Y-116745000D01*
X118194787Y-115944392D01*
X117952603Y-116013857D01*
X117765856Y-116537302D01*
X112086898Y-116537302D01*
X112190965Y-116247777D01*
X112167938Y-115764787D01*
X118374392Y-115764787D01*
X119175000Y-116565395D01*
X119975608Y-115764787D01*
X119906143Y-115522603D01*
X119382698Y-115335856D01*
X118827632Y-115363638D01*
X118443857Y-115522603D01*
X118374392Y-115764787D01*
X112167938Y-115764787D01*
X112163778Y-115677546D01*
X111997864Y-115276995D01*
X111751745Y-115202861D01*
X110923605Y-116031000D01*
X110564395Y-116031000D01*
X109736255Y-115202861D01*
X109490136Y-115276995D01*
X109297035Y-115814223D01*
X108000000Y-115814223D01*
X108000000Y-115023255D01*
X109915861Y-115023255D01*
X110744000Y-115851395D01*
X111572139Y-115023255D01*
X111498005Y-114777136D01*
X110960777Y-114584035D01*
X110390546Y-114611222D01*
X109989995Y-114777136D01*
X109915861Y-115023255D01*
X108000000Y-115023255D01*
X108000000Y-108751029D01*
X110170723Y-108751029D01*
X110293317Y-108966000D01*
X112141000Y-108966000D01*
X112141000Y-107703000D01*
X112395000Y-107703000D01*
X112395000Y-108966000D01*
X114242683Y-108966000D01*
X114365277Y-108751029D01*
X114350793Y-108678403D01*
X114090681Y-108199924D01*
X113667263Y-107857408D01*
X113145000Y-107703000D01*
X112395000Y-107703000D01*
X112141000Y-107703000D01*
X111391000Y-107703000D01*
X110868737Y-107857408D01*
X110445319Y-108199924D01*
X110185207Y-108678403D01*
X110170723Y-108751029D01*
X108000000Y-108751029D01*
X108000000Y-102349682D01*
X108194627Y-102349682D01*
X108617742Y-103373697D01*
X109400522Y-104157845D01*
X110423797Y-104582746D01*
X111531782Y-104583713D01*
X112555797Y-104160598D01*
X113339945Y-103377818D01*
X113764846Y-102354543D01*
X113765813Y-101246558D01*
X113342698Y-100222543D01*
X112559918Y-99438395D01*
X111536643Y-99013494D01*
X110428658Y-99012527D01*
X109404643Y-99435642D01*
X108620495Y-100218422D01*
X108195594Y-101241697D01*
X108194627Y-102349682D01*
X108000000Y-102349682D01*
X108000000Y-71348982D01*
X108194627Y-71348982D01*
X108617742Y-72372997D01*
X109400522Y-73157145D01*
X110423797Y-73582046D01*
X111531782Y-73583013D01*
X112555797Y-73159898D01*
X113339945Y-72377118D01*
X113764846Y-71353843D01*
X113765482Y-70624700D01*
X114593370Y-70624700D01*
X114593370Y-71874380D01*
X114747441Y-72394947D01*
X115088996Y-72816928D01*
X115566037Y-73076080D01*
X115637665Y-73090263D01*
X115851940Y-72967609D01*
X115851940Y-70624700D01*
X114593370Y-70624700D01*
X113765482Y-70624700D01*
X113765813Y-70245858D01*
X113342698Y-69221843D01*
X112559918Y-68437695D01*
X111536643Y-68012794D01*
X110428658Y-68011827D01*
X109404643Y-68434942D01*
X108620495Y-69217722D01*
X108195594Y-70240997D01*
X108194627Y-71348982D01*
X108000000Y-71348982D01*
X108000000Y-67868000D01*
X115851938Y-67868000D01*
X115851938Y-68027790D01*
G36*
X140243940Y-72546400D02*
X140243940Y-73687940D01*
X140330337Y-74122286D01*
X140576374Y-74490506D01*
X145882434Y-79796566D01*
X146250654Y-80042603D01*
X146685000Y-80129000D01*
X149585815Y-80129000D01*
X149446397Y-80337654D01*
X149360000Y-80772000D01*
X149446397Y-81206346D01*
X149692434Y-81574566D01*
X150060654Y-81820603D01*
X150495000Y-81907000D01*
X155358868Y-81907000D01*
X156375493Y-82923625D01*
X156337000Y-82915968D01*
X155864386Y-83009977D01*
X155463723Y-83277691D01*
X155196009Y-83678354D01*
X155102000Y-84150968D01*
X155102000Y-85015032D01*
X155196009Y-85487646D01*
X155202000Y-85496612D01*
X155202000Y-87122000D01*
X155288397Y-87556346D01*
X155534434Y-87924566D01*
X155902654Y-88170603D01*
X156337000Y-88257000D01*
X156771346Y-88170603D01*
X157139566Y-87924566D01*
X157385603Y-87556346D01*
X157472000Y-87122000D01*
X157472000Y-85496612D01*
X157477991Y-85487646D01*
X157572000Y-85015032D01*
X157572000Y-84150968D01*
X157564343Y-84112475D01*
X157642000Y-84190132D01*
X157642000Y-85015032D01*
X157736009Y-85487646D01*
X158003723Y-85888309D01*
X158404386Y-86156023D01*
X158877000Y-86250032D01*
X159108945Y-86203895D01*
X157856333Y-88273000D01*
X148552132Y-88273000D01*
X146598566Y-86319434D01*
X146230345Y-86073397D01*
X145796000Y-85987000D01*
X145361655Y-86073397D01*
X144993434Y-86319434D01*
X144747397Y-86687655D01*
X144661000Y-87122000D01*
X144747397Y-87556345D01*
X144993434Y-87924566D01*
X147279434Y-90210566D01*
X147420764Y-90305000D01*
X141339812Y-90305000D01*
X137432492Y-84150968D01*
X147482000Y-84150968D01*
X147482000Y-85015032D01*
X147576009Y-85487646D01*
X147843723Y-85888309D01*
X148244386Y-86156023D01*
X148717000Y-86250032D01*
X149189614Y-86156023D01*
X149590277Y-85888309D01*
X149857991Y-85487646D01*
X149952000Y-85015032D01*
X149952000Y-84710000D01*
X150022000Y-84710000D01*
X150022000Y-85110000D01*
X150164610Y-85572947D01*
X150473526Y-85946080D01*
X150901719Y-86172592D01*
X150939391Y-86176462D01*
X151130000Y-86051731D01*
X151130000Y-84710000D01*
X151384000Y-84710000D01*
X151384000Y-86051731D01*
X151574609Y-86176462D01*
X151612281Y-86172592D01*
X152040474Y-85946080D01*
X152349390Y-85572947D01*
X152492000Y-85110000D01*
X152492000Y-84710000D01*
X151384000Y-84710000D01*
X151130000Y-84710000D01*
X150022000Y-84710000D01*
X149952000Y-84710000D01*
X149952000Y-84150968D01*
X149933110Y-84056000D01*
X150022000Y-84056000D01*
X150022000Y-84456000D01*
X151130000Y-84456000D01*
X151130000Y-83114269D01*
X151384000Y-83114269D01*
X151384000Y-84456000D01*
X152492000Y-84456000D01*
X152492000Y-84150968D01*
X152562000Y-84150968D01*
X152562000Y-85015032D01*
X152656009Y-85487646D01*
X152923723Y-85888309D01*
X153324386Y-86156023D01*
X153797000Y-86250032D01*
X154269614Y-86156023D01*
X154670277Y-85888309D01*
X154937991Y-85487646D01*
X155032000Y-85015032D01*
X155032000Y-84150968D01*
X154937991Y-83678354D01*
X154670277Y-83277691D01*
X154269614Y-83009977D01*
X153797000Y-82915968D01*
X153324386Y-83009977D01*
X152923723Y-83277691D01*
X152656009Y-83678354D01*
X152562000Y-84150968D01*
X152492000Y-84150968D01*
X152492000Y-84056000D01*
X152349390Y-83593053D01*
X152040474Y-83219920D01*
X151612281Y-82993408D01*
X151574609Y-82989538D01*
X151384000Y-83114269D01*
X151130000Y-83114269D01*
X150939391Y-82989538D01*
X150901719Y-82993408D01*
X150473526Y-83219920D01*
X150164610Y-83593053D01*
X150022000Y-84056000D01*
X149933110Y-84056000D01*
X149857991Y-83678354D01*
X149590277Y-83277691D01*
X149189614Y-83009977D01*
X148717000Y-82915968D01*
X148244386Y-83009977D01*
X147843723Y-83277691D01*
X147576009Y-83678354D01*
X147482000Y-84150968D01*
X137432492Y-84150968D01*
X135337483Y-80851329D01*
X137899284Y-80851329D01*
X138042203Y-81196396D01*
X138389337Y-81584764D01*
X138858669Y-81810727D01*
X139065000Y-81688206D01*
X139065000Y-80645000D01*
X139319000Y-80645000D01*
X139319000Y-81688206D01*
X139525331Y-81810727D01*
X139994663Y-81584764D01*
X140341797Y-81196396D01*
X140484716Y-80851329D01*
X140361374Y-80645000D01*
X139319000Y-80645000D01*
X139065000Y-80645000D01*
X138022626Y-80645000D01*
X137899284Y-80851329D01*
X135337483Y-80851329D01*
X134914209Y-80184671D01*
X137899284Y-80184671D01*
X138022626Y-80391000D01*
X139065000Y-80391000D01*
X139065000Y-79347794D01*
X139319000Y-79347794D01*
X139319000Y-80391000D01*
X140361374Y-80391000D01*
X140484716Y-80184671D01*
X140341797Y-79839604D01*
X139994663Y-79451236D01*
X139525331Y-79225273D01*
X139319000Y-79347794D01*
X139065000Y-79347794D01*
X138858669Y-79225273D01*
X138389337Y-79451236D01*
X138042203Y-79839604D01*
X137899284Y-80184671D01*
X134914209Y-80184671D01*
X131668701Y-75072998D01*
X132522866Y-75072998D01*
X135214434Y-77764566D01*
X135582655Y-78010604D01*
X136017000Y-78097000D01*
X136451346Y-78010604D01*
X136819566Y-77764566D01*
X137065604Y-77396346D01*
X137152000Y-76962000D01*
X137065604Y-76527655D01*
X136819566Y-76159434D01*
X133830480Y-73170348D01*
X134289175Y-73079108D01*
X134738686Y-72778754D01*
X135028940Y-72344359D01*
X135319194Y-72778754D01*
X135768705Y-73079108D01*
X136298940Y-73184578D01*
X136829175Y-73079108D01*
X137278686Y-72778754D01*
X137568940Y-72344359D01*
X137859194Y-72778754D01*
X138308705Y-73079108D01*
X138838940Y-73184578D01*
X139369175Y-73079108D01*
X139818686Y-72778754D01*
X140108940Y-72344359D01*
X140243940Y-72546400D01*
X140243940Y-72546400D01*
G37*
X140243940Y-72546400D02*
X140243940Y-73687940D01*
X140330337Y-74122286D01*
X140576374Y-74490506D01*
X145882434Y-79796566D01*
X146250654Y-80042603D01*
X146685000Y-80129000D01*
X149585815Y-80129000D01*
X149446397Y-80337654D01*
X149360000Y-80772000D01*
X149446397Y-81206346D01*
X149692434Y-81574566D01*
X150060654Y-81820603D01*
X150495000Y-81907000D01*
X155358868Y-81907000D01*
X156375493Y-82923625D01*
X156337000Y-82915968D01*
X155864386Y-83009977D01*
X155463723Y-83277691D01*
X155196009Y-83678354D01*
X155102000Y-84150968D01*
X155102000Y-85015032D01*
X155196009Y-85487646D01*
X155202000Y-85496612D01*
X155202000Y-87122000D01*
X155288397Y-87556346D01*
X155534434Y-87924566D01*
X155902654Y-88170603D01*
X156337000Y-88257000D01*
X156771346Y-88170603D01*
X157139566Y-87924566D01*
X157385603Y-87556346D01*
X157472000Y-87122000D01*
X157472000Y-85496612D01*
X157477991Y-85487646D01*
X157572000Y-85015032D01*
X157572000Y-84150968D01*
X157564343Y-84112475D01*
X157642000Y-84190132D01*
X157642000Y-85015032D01*
X157736009Y-85487646D01*
X158003723Y-85888309D01*
X158404386Y-86156023D01*
X158877000Y-86250032D01*
X159108945Y-86203895D01*
X157856333Y-88273000D01*
X148552132Y-88273000D01*
X146598566Y-86319434D01*
X146230345Y-86073397D01*
X145796000Y-85987000D01*
X145361655Y-86073397D01*
X144993434Y-86319434D01*
X144747397Y-86687655D01*
X144661000Y-87122000D01*
X144747397Y-87556345D01*
X144993434Y-87924566D01*
X147279434Y-90210566D01*
X147420764Y-90305000D01*
X141339812Y-90305000D01*
X137432492Y-84150968D01*
X147482000Y-84150968D01*
X147482000Y-85015032D01*
X147576009Y-85487646D01*
X147843723Y-85888309D01*
X148244386Y-86156023D01*
X148717000Y-86250032D01*
X149189614Y-86156023D01*
X149590277Y-85888309D01*
X149857991Y-85487646D01*
X149952000Y-85015032D01*
X149952000Y-84710000D01*
X150022000Y-84710000D01*
X150022000Y-85110000D01*
X150164610Y-85572947D01*
X150473526Y-85946080D01*
X150901719Y-86172592D01*
X150939391Y-86176462D01*
X151130000Y-86051731D01*
X151130000Y-84710000D01*
X151384000Y-84710000D01*
X151384000Y-86051731D01*
X151574609Y-86176462D01*
X151612281Y-86172592D01*
X152040474Y-85946080D01*
X152349390Y-85572947D01*
X152492000Y-85110000D01*
X152492000Y-84710000D01*
X151384000Y-84710000D01*
X151130000Y-84710000D01*
X150022000Y-84710000D01*
X149952000Y-84710000D01*
X149952000Y-84150968D01*
X149933110Y-84056000D01*
X150022000Y-84056000D01*
X150022000Y-84456000D01*
X151130000Y-84456000D01*
X151130000Y-83114269D01*
X151384000Y-83114269D01*
X151384000Y-84456000D01*
X152492000Y-84456000D01*
X152492000Y-84150968D01*
X152562000Y-84150968D01*
X152562000Y-85015032D01*
X152656009Y-85487646D01*
X152923723Y-85888309D01*
X153324386Y-86156023D01*
X153797000Y-86250032D01*
X154269614Y-86156023D01*
X154670277Y-85888309D01*
X154937991Y-85487646D01*
X155032000Y-85015032D01*
X155032000Y-84150968D01*
X154937991Y-83678354D01*
X154670277Y-83277691D01*
X154269614Y-83009977D01*
X153797000Y-82915968D01*
X153324386Y-83009977D01*
X152923723Y-83277691D01*
X152656009Y-83678354D01*
X152562000Y-84150968D01*
X152492000Y-84150968D01*
X152492000Y-84056000D01*
X152349390Y-83593053D01*
X152040474Y-83219920D01*
X151612281Y-82993408D01*
X151574609Y-82989538D01*
X151384000Y-83114269D01*
X151130000Y-83114269D01*
X150939391Y-82989538D01*
X150901719Y-82993408D01*
X150473526Y-83219920D01*
X150164610Y-83593053D01*
X150022000Y-84056000D01*
X149933110Y-84056000D01*
X149857991Y-83678354D01*
X149590277Y-83277691D01*
X149189614Y-83009977D01*
X148717000Y-82915968D01*
X148244386Y-83009977D01*
X147843723Y-83277691D01*
X147576009Y-83678354D01*
X147482000Y-84150968D01*
X137432492Y-84150968D01*
X135337483Y-80851329D01*
X137899284Y-80851329D01*
X138042203Y-81196396D01*
X138389337Y-81584764D01*
X138858669Y-81810727D01*
X139065000Y-81688206D01*
X139065000Y-80645000D01*
X139319000Y-80645000D01*
X139319000Y-81688206D01*
X139525331Y-81810727D01*
X139994663Y-81584764D01*
X140341797Y-81196396D01*
X140484716Y-80851329D01*
X140361374Y-80645000D01*
X139319000Y-80645000D01*
X139065000Y-80645000D01*
X138022626Y-80645000D01*
X137899284Y-80851329D01*
X135337483Y-80851329D01*
X134914209Y-80184671D01*
X137899284Y-80184671D01*
X138022626Y-80391000D01*
X139065000Y-80391000D01*
X139065000Y-79347794D01*
X139319000Y-79347794D01*
X139319000Y-80391000D01*
X140361374Y-80391000D01*
X140484716Y-80184671D01*
X140341797Y-79839604D01*
X139994663Y-79451236D01*
X139525331Y-79225273D01*
X139319000Y-79347794D01*
X139065000Y-79347794D01*
X138858669Y-79225273D01*
X138389337Y-79451236D01*
X138042203Y-79839604D01*
X137899284Y-80184671D01*
X134914209Y-80184671D01*
X131668701Y-75072998D01*
X132522866Y-75072998D01*
X135214434Y-77764566D01*
X135582655Y-78010604D01*
X136017000Y-78097000D01*
X136451346Y-78010604D01*
X136819566Y-77764566D01*
X137065604Y-77396346D01*
X137152000Y-76962000D01*
X137065604Y-76527655D01*
X136819566Y-76159434D01*
X133830480Y-73170348D01*
X134289175Y-73079108D01*
X134738686Y-72778754D01*
X135028940Y-72344359D01*
X135319194Y-72778754D01*
X135768705Y-73079108D01*
X136298940Y-73184578D01*
X136829175Y-73079108D01*
X137278686Y-72778754D01*
X137568940Y-72344359D01*
X137859194Y-72778754D01*
X138308705Y-73079108D01*
X138838940Y-73184578D01*
X139369175Y-73079108D01*
X139818686Y-72778754D01*
X140108940Y-72344359D01*
X140243940Y-72546400D01*
G36*
X126265940Y-70370700D02*
X126285940Y-70370700D01*
X126285940Y-70624700D01*
X126265940Y-70624700D01*
X126265940Y-72967609D01*
X126480215Y-73090263D01*
X126551843Y-73076080D01*
X127028884Y-72816928D01*
X127370439Y-72394947D01*
X127395241Y-72311148D01*
X127398840Y-72329243D01*
X127543940Y-72546400D01*
X127543940Y-73179940D01*
X127630337Y-73614286D01*
X127764410Y-73814940D01*
X127876374Y-73982506D01*
X128196868Y-74303000D01*
X126454132Y-74303000D01*
X124733940Y-72582808D01*
X124733940Y-72546400D01*
X124879040Y-72329243D01*
X124882639Y-72311148D01*
X124907441Y-72394947D01*
X125248996Y-72816928D01*
X125726037Y-73076080D01*
X125797665Y-73090263D01*
X126011940Y-72967609D01*
X126011940Y-70624700D01*
X125991940Y-70624700D01*
X125991940Y-70370700D01*
X126011940Y-70370700D01*
X126011940Y-70350700D01*
X126265940Y-70350700D01*
X126265940Y-70370700D01*
X126265940Y-70370700D01*
G37*
X126265940Y-70370700D02*
X126285940Y-70370700D01*
X126285940Y-70624700D01*
X126265940Y-70624700D01*
X126265940Y-72967609D01*
X126480215Y-73090263D01*
X126551843Y-73076080D01*
X127028884Y-72816928D01*
X127370439Y-72394947D01*
X127395241Y-72311148D01*
X127398840Y-72329243D01*
X127543940Y-72546400D01*
X127543940Y-73179940D01*
X127630337Y-73614286D01*
X127764410Y-73814940D01*
X127876374Y-73982506D01*
X128196868Y-74303000D01*
X126454132Y-74303000D01*
X124733940Y-72582808D01*
X124733940Y-72546400D01*
X124879040Y-72329243D01*
X124882639Y-72311148D01*
X124907441Y-72394947D01*
X125248996Y-72816928D01*
X125726037Y-73076080D01*
X125797665Y-73090263D01*
X126011940Y-72967609D01*
X126011940Y-70624700D01*
X125991940Y-70624700D01*
X125991940Y-70370700D01*
X126011940Y-70370700D01*
X126011940Y-70350700D01*
X126265940Y-70350700D01*
X126265940Y-70370700D01*
M02*
