%FSLAX45Y45*%
G04 Gerber Fmt 4.5, Leading zero omitted, Abs format (unit mm)*
G04 Created by KiCad (PCBNEW 4.0.4-stable) date 02/14/17 18:31:33*
%MOMM*%
%LPD*%
G01*
G04 APERTURE LIST*
%ADD10C,0.127000*%
%ADD11C,0.100000*%
%ADD12C,0.200000*%
%ADD13C,0.300000*%
G04 APERTURE END LIST*
D10*
D11*
X10731500Y-13169900D02*
X10731500Y-6718300D01*
X18961100Y-13169900D02*
X10731500Y-13169900D01*
X18961100Y-6718300D02*
X18961100Y-13169900D01*
X10731500Y-6718300D02*
X18961100Y-6718300D01*
D12*
X12235500Y-9098600D02*
X12275500Y-9138600D01*
X12275500Y-9098600D02*
X12235500Y-9138600D01*
X12260900Y-8108000D02*
X12300900Y-8148000D01*
X12300900Y-8108000D02*
X12260900Y-8148000D01*
X13035600Y-11244900D02*
X13075600Y-11284900D01*
X13075600Y-11244900D02*
X13035600Y-11284900D01*
X13581700Y-7676200D02*
X13621700Y-7716200D01*
X13621700Y-7676200D02*
X13581700Y-7716200D01*
X14559600Y-8692200D02*
X14599600Y-8732200D01*
X14599600Y-8692200D02*
X14559600Y-8732200D01*
X14724700Y-7320600D02*
X14764700Y-7360600D01*
X14764700Y-7320600D02*
X14724700Y-7360600D01*
X14877100Y-7434900D02*
X14917100Y-7474900D01*
X14917100Y-7434900D02*
X14877100Y-7474900D01*
X15029500Y-8057200D02*
X15069500Y-8097200D01*
X15069500Y-8057200D02*
X15029500Y-8097200D01*
X15613700Y-8692200D02*
X15653700Y-8732200D01*
X15653700Y-8692200D02*
X15613700Y-8732200D01*
X15626400Y-7282500D02*
X15666400Y-7322500D01*
X15666400Y-7282500D02*
X15626400Y-7322500D01*
X15778800Y-7663500D02*
X15818800Y-7703500D01*
X15818800Y-7663500D02*
X15778800Y-7703500D01*
X15880400Y-8069900D02*
X15920400Y-8109900D01*
X15920400Y-8069900D02*
X15880400Y-8109900D01*
X16121700Y-9670100D02*
X16161700Y-9710100D01*
X16161700Y-9670100D02*
X16121700Y-9710100D01*
X17734600Y-12502200D02*
X17774600Y-12542200D01*
X17774600Y-12502200D02*
X17734600Y-12542200D01*
X18077500Y-8133400D02*
X18117500Y-8173400D01*
X18117500Y-8133400D02*
X18077500Y-8173400D01*
X13192200Y-8051800D02*
G75*
G03X13192200Y-8051800I-35000J0D01*
G01*
X13954200Y-8051800D02*
G75*
G03X13954200Y-8051800I-35000J0D01*
G01*
X16545000Y-7277100D02*
G75*
G03X16545000Y-7277100I-35000J0D01*
G01*
X17307000Y-7277100D02*
G75*
G03X17307000Y-7277100I-35000J0D01*
G01*
X11074400Y-11563100D02*
X11074400Y-11643100D01*
X11034400Y-11603100D02*
X11114400Y-11603100D01*
X11074400Y-12063100D02*
X11074400Y-12143100D01*
X11034400Y-12103100D02*
X11114400Y-12103100D01*
X12352400Y-10678800D02*
X12352400Y-10758800D01*
X12312400Y-10718800D02*
X12392400Y-10718800D01*
X12365100Y-12850500D02*
X12365100Y-12930500D01*
X12325100Y-12890500D02*
X12405100Y-12890500D01*
X12852400Y-10678800D02*
X12852400Y-10758800D01*
X12812400Y-10718800D02*
X12892400Y-10718800D01*
X12865100Y-12850500D02*
X12865100Y-12930500D01*
X12825100Y-12890500D02*
X12905100Y-12890500D01*
X11262156Y-10944656D02*
X11262156Y-10873944D01*
X11191444Y-10873944D01*
X11191444Y-10944656D01*
X11262156Y-10944656D01*
X11262156Y-11198656D02*
X11262156Y-11127944D01*
X11191444Y-11127944D01*
X11191444Y-11198656D01*
X11262156Y-11198656D01*
X11952856Y-11709856D02*
X11952856Y-11639144D01*
X11882144Y-11639144D01*
X11882144Y-11709856D01*
X11952856Y-11709856D01*
X11952856Y-12109856D02*
X11952856Y-12039144D01*
X11882144Y-12039144D01*
X11882144Y-12109856D01*
X11952856Y-12109856D01*
X13352856Y-11709856D02*
X13352856Y-11639144D01*
X13282144Y-11639144D01*
X13282144Y-11709856D01*
X13352856Y-11709856D01*
X13352856Y-11909856D02*
X13352856Y-11839144D01*
X13282144Y-11839144D01*
X13282144Y-11909856D01*
X13352856Y-11909856D01*
X13352856Y-12109856D02*
X13352856Y-12039144D01*
X13282144Y-12039144D01*
X13282144Y-12109856D01*
X13352856Y-12109856D01*
X14362556Y-10886056D02*
X14362556Y-10815344D01*
X14291844Y-10815344D01*
X14291844Y-10886056D01*
X14362556Y-10886056D01*
X14362556Y-12886056D02*
X14362556Y-12815344D01*
X14291844Y-12815344D01*
X14291844Y-12886056D01*
X14362556Y-12886056D01*
X14616556Y-10886056D02*
X14616556Y-10815344D01*
X14545844Y-10815344D01*
X14545844Y-10886056D01*
X14616556Y-10886056D01*
X14616556Y-12886056D02*
X14616556Y-12815344D01*
X14545844Y-12815344D01*
X14545844Y-12886056D01*
X14616556Y-12886056D01*
X14870556Y-10886056D02*
X14870556Y-10815344D01*
X14799844Y-10815344D01*
X14799844Y-10886056D01*
X14870556Y-10886056D01*
X14870556Y-12886056D02*
X14870556Y-12815344D01*
X14799844Y-12815344D01*
X14799844Y-12886056D01*
X14870556Y-12886056D01*
X14907056Y-8493656D02*
X14907056Y-8422944D01*
X14836344Y-8422944D01*
X14836344Y-8493656D01*
X14907056Y-8493656D01*
X14907056Y-10093656D02*
X14907056Y-10022944D01*
X14836344Y-10022944D01*
X14836344Y-10093656D01*
X14907056Y-10093656D01*
X15124556Y-10886056D02*
X15124556Y-10815344D01*
X15053844Y-10815344D01*
X15053844Y-10886056D01*
X15124556Y-10886056D01*
X15124556Y-12886056D02*
X15124556Y-12815344D01*
X15053844Y-12815344D01*
X15053844Y-12886056D01*
X15124556Y-12886056D01*
X15161056Y-8493656D02*
X15161056Y-8422944D01*
X15090344Y-8422944D01*
X15090344Y-8493656D01*
X15161056Y-8493656D01*
X15161056Y-10093656D02*
X15161056Y-10022944D01*
X15090344Y-10022944D01*
X15090344Y-10093656D01*
X15161056Y-10093656D01*
X15378556Y-10886056D02*
X15378556Y-10815344D01*
X15307844Y-10815344D01*
X15307844Y-10886056D01*
X15378556Y-10886056D01*
X15378556Y-12886056D02*
X15378556Y-12815344D01*
X15307844Y-12815344D01*
X15307844Y-12886056D01*
X15378556Y-12886056D01*
X15415056Y-8493656D02*
X15415056Y-8422944D01*
X15344344Y-8422944D01*
X15344344Y-8493656D01*
X15415056Y-8493656D01*
X15415056Y-10093656D02*
X15415056Y-10022944D01*
X15344344Y-10022944D01*
X15344344Y-10093656D01*
X15415056Y-10093656D01*
X15632556Y-10886056D02*
X15632556Y-10815344D01*
X15561844Y-10815344D01*
X15561844Y-10886056D01*
X15632556Y-10886056D01*
X15632556Y-12886056D02*
X15632556Y-12815344D01*
X15561844Y-12815344D01*
X15561844Y-12886056D01*
X15632556Y-12886056D01*
X15669056Y-8493656D02*
X15669056Y-8422944D01*
X15598344Y-8422944D01*
X15598344Y-8493656D01*
X15669056Y-8493656D01*
X15669056Y-10093656D02*
X15669056Y-10022944D01*
X15598344Y-10022944D01*
X15598344Y-10093656D01*
X15669056Y-10093656D01*
X15886556Y-10886056D02*
X15886556Y-10815344D01*
X15815844Y-10815344D01*
X15815844Y-10886056D01*
X15886556Y-10886056D01*
X15886556Y-12886056D02*
X15886556Y-12815344D01*
X15815844Y-12815344D01*
X15815844Y-12886056D01*
X15886556Y-12886056D01*
X15923056Y-8493656D02*
X15923056Y-8422944D01*
X15852344Y-8422944D01*
X15852344Y-8493656D01*
X15923056Y-8493656D01*
X15923056Y-10093656D02*
X15923056Y-10022944D01*
X15852344Y-10022944D01*
X15852344Y-10093656D01*
X15923056Y-10093656D01*
X16140556Y-10886056D02*
X16140556Y-10815344D01*
X16069844Y-10815344D01*
X16069844Y-10886056D01*
X16140556Y-10886056D01*
X16140556Y-12886056D02*
X16140556Y-12815344D01*
X16069844Y-12815344D01*
X16069844Y-12886056D01*
X16140556Y-12886056D01*
X16177056Y-8493656D02*
X16177056Y-8422944D01*
X16106344Y-8422944D01*
X16106344Y-8493656D01*
X16177056Y-8493656D01*
X16177056Y-10093656D02*
X16177056Y-10022944D01*
X16106344Y-10022944D01*
X16106344Y-10093656D01*
X16177056Y-10093656D01*
X16394556Y-10886056D02*
X16394556Y-10815344D01*
X16323844Y-10815344D01*
X16323844Y-10886056D01*
X16394556Y-10886056D01*
X16394556Y-12886056D02*
X16394556Y-12815344D01*
X16323844Y-12815344D01*
X16323844Y-12886056D01*
X16394556Y-12886056D01*
X16431056Y-8493656D02*
X16431056Y-8422944D01*
X16360344Y-8422944D01*
X16360344Y-8493656D01*
X16431056Y-8493656D01*
X16431056Y-10093656D02*
X16431056Y-10022944D01*
X16360344Y-10022944D01*
X16360344Y-10093656D01*
X16431056Y-10093656D01*
X16648556Y-10886056D02*
X16648556Y-10815344D01*
X16577844Y-10815344D01*
X16577844Y-10886056D01*
X16648556Y-10886056D01*
X16648556Y-12886056D02*
X16648556Y-12815344D01*
X16577844Y-12815344D01*
X16577844Y-12886056D01*
X16648556Y-12886056D01*
X16685056Y-8493656D02*
X16685056Y-8422944D01*
X16614344Y-8422944D01*
X16614344Y-8493656D01*
X16685056Y-8493656D01*
X16685056Y-10093656D02*
X16685056Y-10022944D01*
X16614344Y-10022944D01*
X16614344Y-10093656D01*
X16685056Y-10093656D01*
X16939056Y-8493656D02*
X16939056Y-8422944D01*
X16868344Y-8422944D01*
X16868344Y-8493656D01*
X16939056Y-8493656D01*
X16939056Y-10093656D02*
X16939056Y-10022944D01*
X16868344Y-10022944D01*
X16868344Y-10093656D01*
X16939056Y-10093656D01*
X17193056Y-8493656D02*
X17193056Y-8422944D01*
X17122344Y-8422944D01*
X17122344Y-8493656D01*
X17193056Y-8493656D01*
X17193056Y-10093656D02*
X17193056Y-10022944D01*
X17122344Y-10022944D01*
X17122344Y-10093656D01*
X17193056Y-10093656D01*
X17447056Y-8493656D02*
X17447056Y-8422944D01*
X17376344Y-8422944D01*
X17376344Y-8493656D01*
X17447056Y-8493656D01*
X17447056Y-10093656D02*
X17447056Y-10022944D01*
X17376344Y-10022944D01*
X17376344Y-10093656D01*
X17447056Y-10093656D01*
X17701056Y-8493656D02*
X17701056Y-8422944D01*
X17630344Y-8422944D01*
X17630344Y-8493656D01*
X17701056Y-8493656D01*
X17701056Y-10093656D02*
X17701056Y-10022944D01*
X17630344Y-10022944D01*
X17630344Y-10093656D01*
X17701056Y-10093656D01*
X18628156Y-11706656D02*
X18628156Y-11635944D01*
X18557444Y-11635944D01*
X18557444Y-11706656D01*
X18628156Y-11706656D01*
X18628156Y-11960656D02*
X18628156Y-11889944D01*
X18557444Y-11889944D01*
X18557444Y-11960656D01*
X18628156Y-11960656D01*
X11597894Y-7099808D02*
X11647932Y-7049770D01*
X11597894Y-6999732D01*
X11547856Y-7049770D01*
X11597894Y-7099808D01*
X11851894Y-7099808D02*
X11901932Y-7049770D01*
X11851894Y-6999732D01*
X11801856Y-7049770D01*
X11851894Y-7099808D01*
X12105894Y-7099808D02*
X12155932Y-7049770D01*
X12105894Y-6999732D01*
X12055856Y-7049770D01*
X12105894Y-7099808D01*
X12359894Y-7099808D02*
X12409932Y-7049770D01*
X12359894Y-6999732D01*
X12309856Y-7049770D01*
X12359894Y-7099808D01*
X12613894Y-7099808D02*
X12663932Y-7049770D01*
X12613894Y-6999732D01*
X12563856Y-7049770D01*
X12613894Y-7099808D01*
X12867894Y-7099808D02*
X12917932Y-7049770D01*
X12867894Y-6999732D01*
X12817856Y-7049770D01*
X12867894Y-7099808D01*
X13121894Y-7099808D02*
X13171932Y-7049770D01*
X13121894Y-6999732D01*
X13071856Y-7049770D01*
X13121894Y-7099808D01*
X13375894Y-7099808D02*
X13425932Y-7049770D01*
X13375894Y-6999732D01*
X13325856Y-7049770D01*
X13375894Y-7099808D01*
X13629894Y-7099808D02*
X13679932Y-7049770D01*
X13629894Y-6999732D01*
X13579856Y-7049770D01*
X13629894Y-7099808D01*
X13883894Y-7099808D02*
X13933932Y-7049770D01*
X13883894Y-6999732D01*
X13833856Y-7049770D01*
X13883894Y-7099808D01*
X14137894Y-7099808D02*
X14187932Y-7049770D01*
X14137894Y-6999732D01*
X14087856Y-7049770D01*
X14137894Y-7099808D01*
X14391894Y-7099808D02*
X14441932Y-7049770D01*
X14391894Y-6999732D01*
X14341856Y-7049770D01*
X14391894Y-7099808D01*
X14645894Y-7099808D02*
X14695932Y-7049770D01*
X14645894Y-6999732D01*
X14595856Y-7049770D01*
X14645894Y-7099808D01*
X14899894Y-7099808D02*
X14949932Y-7049770D01*
X14899894Y-6999732D01*
X14849856Y-7049770D01*
X14899894Y-7099808D01*
X15153894Y-7099808D02*
X15203932Y-7049770D01*
X15153894Y-6999732D01*
X15103856Y-7049770D01*
X15153894Y-7099808D01*
X15407894Y-7099808D02*
X15457932Y-7049770D01*
X15407894Y-6999732D01*
X15357856Y-7049770D01*
X15407894Y-7099808D01*
X12502500Y-11259500D02*
X12732500Y-11489500D01*
X12732500Y-11259500D02*
X12502500Y-11489500D01*
X12732500Y-11374500D02*
G75*
G03X12732500Y-11374500I-115000J0D01*
G01*
X12502500Y-12259500D02*
X12732500Y-12489500D01*
X12732500Y-12259500D02*
X12502500Y-12489500D01*
X12732500Y-12374500D02*
G75*
G03X12732500Y-12374500I-115000J0D01*
G01*
X10973054Y-6954774D02*
X11222990Y-7204710D01*
X11222990Y-6954774D02*
X10973054Y-7204710D01*
X11098022Y-6954774D02*
X11098022Y-7204710D01*
X10973054Y-7079742D02*
X11222990Y-7079742D01*
X10973054Y-10054844D02*
X11222990Y-10304780D01*
X11222990Y-10054844D02*
X10973054Y-10304780D01*
X11098022Y-10054844D02*
X11098022Y-10304780D01*
X10973054Y-10179812D02*
X11222990Y-10179812D01*
X18472912Y-10054844D02*
X18722848Y-10304780D01*
X18722848Y-10054844D02*
X18472912Y-10304780D01*
X18597880Y-10054844D02*
X18597880Y-10304780D01*
X18472912Y-10179812D02*
X18722848Y-10179812D01*
X18477992Y-6954774D02*
X18727928Y-7204710D01*
X18727928Y-6954774D02*
X18477992Y-7204710D01*
X18602960Y-6954774D02*
X18602960Y-7204710D01*
X18477992Y-7079742D02*
X18727928Y-7079742D01*
D13*
X10997929Y-13640614D02*
X10997929Y-13340614D01*
X11069357Y-13340614D01*
X11112214Y-13354900D01*
X11140786Y-13383471D01*
X11155071Y-13412043D01*
X11169357Y-13469186D01*
X11169357Y-13512043D01*
X11155071Y-13569186D01*
X11140786Y-13597757D01*
X11112214Y-13626329D01*
X11069357Y-13640614D01*
X10997929Y-13640614D01*
X11297928Y-13640614D02*
X11297928Y-13440614D01*
X11297928Y-13497757D02*
X11312214Y-13469186D01*
X11326500Y-13454900D01*
X11355071Y-13440614D01*
X11383643Y-13440614D01*
X11483643Y-13640614D02*
X11483643Y-13440614D01*
X11483643Y-13340614D02*
X11469357Y-13354900D01*
X11483643Y-13369186D01*
X11497928Y-13354900D01*
X11483643Y-13340614D01*
X11483643Y-13369186D01*
X11669357Y-13640614D02*
X11640786Y-13626329D01*
X11626500Y-13597757D01*
X11626500Y-13340614D01*
X11826500Y-13640614D02*
X11797928Y-13626329D01*
X11783643Y-13597757D01*
X11783643Y-13340614D01*
X12169357Y-13640614D02*
X12169357Y-13340614D01*
X12269357Y-13554900D01*
X12369357Y-13340614D01*
X12369357Y-13640614D01*
X12640786Y-13640614D02*
X12640786Y-13483471D01*
X12626500Y-13454900D01*
X12597928Y-13440614D01*
X12540786Y-13440614D01*
X12512214Y-13454900D01*
X12640786Y-13626329D02*
X12612214Y-13640614D01*
X12540786Y-13640614D01*
X12512214Y-13626329D01*
X12497928Y-13597757D01*
X12497928Y-13569186D01*
X12512214Y-13540614D01*
X12540786Y-13526329D01*
X12612214Y-13526329D01*
X12640786Y-13512043D01*
X12783643Y-13440614D02*
X12783643Y-13740614D01*
X12783643Y-13454900D02*
X12812214Y-13440614D01*
X12869357Y-13440614D01*
X12897928Y-13454900D01*
X12912214Y-13469186D01*
X12926500Y-13497757D01*
X12926500Y-13583471D01*
X12912214Y-13612043D01*
X12897928Y-13626329D01*
X12869357Y-13640614D01*
X12812214Y-13640614D01*
X12783643Y-13626329D01*
X13055071Y-13612043D02*
X13069357Y-13626329D01*
X13055071Y-13640614D01*
X13040786Y-13626329D01*
X13055071Y-13612043D01*
X13055071Y-13640614D01*
X13055071Y-13454900D02*
X13069357Y-13469186D01*
X13055071Y-13483471D01*
X13040786Y-13469186D01*
X13055071Y-13454900D01*
X13055071Y-13483471D01*
X10686500Y-14114900D02*
X10726500Y-14154900D01*
X10726500Y-14114900D02*
X10686500Y-14154900D01*
X11055071Y-13970614D02*
X11083643Y-13970614D01*
X11112214Y-13984900D01*
X11126500Y-13999186D01*
X11140786Y-14027757D01*
X11155071Y-14084900D01*
X11155071Y-14156329D01*
X11140786Y-14213471D01*
X11126500Y-14242043D01*
X11112214Y-14256329D01*
X11083643Y-14270614D01*
X11055071Y-14270614D01*
X11026500Y-14256329D01*
X11012214Y-14242043D01*
X10997929Y-14213471D01*
X10983643Y-14156329D01*
X10983643Y-14084900D01*
X10997929Y-14027757D01*
X11012214Y-13999186D01*
X11026500Y-13984900D01*
X11055071Y-13970614D01*
X11283643Y-14242043D02*
X11297928Y-14256329D01*
X11283643Y-14270614D01*
X11269357Y-14256329D01*
X11283643Y-14242043D01*
X11283643Y-14270614D01*
X11555071Y-14070614D02*
X11555071Y-14270614D01*
X11483643Y-13956329D02*
X11412214Y-14170614D01*
X11597928Y-14170614D01*
X11769357Y-13970614D02*
X11797928Y-13970614D01*
X11826500Y-13984900D01*
X11840786Y-13999186D01*
X11855071Y-14027757D01*
X11869357Y-14084900D01*
X11869357Y-14156329D01*
X11855071Y-14213471D01*
X11840786Y-14242043D01*
X11826500Y-14256329D01*
X11797928Y-14270614D01*
X11769357Y-14270614D01*
X11740786Y-14256329D01*
X11726500Y-14242043D01*
X11712214Y-14213471D01*
X11697928Y-14156329D01*
X11697928Y-14084900D01*
X11712214Y-14027757D01*
X11726500Y-13999186D01*
X11740786Y-13984900D01*
X11769357Y-13970614D01*
X11997928Y-14270614D02*
X11997928Y-14070614D01*
X11997928Y-14099186D02*
X12012214Y-14084900D01*
X12040786Y-14070614D01*
X12083643Y-14070614D01*
X12112214Y-14084900D01*
X12126500Y-14113471D01*
X12126500Y-14270614D01*
X12126500Y-14113471D02*
X12140786Y-14084900D01*
X12169357Y-14070614D01*
X12212214Y-14070614D01*
X12240786Y-14084900D01*
X12255071Y-14113471D01*
X12255071Y-14270614D01*
X12397928Y-14270614D02*
X12397928Y-14070614D01*
X12397928Y-14099186D02*
X12412214Y-14084900D01*
X12440786Y-14070614D01*
X12483643Y-14070614D01*
X12512214Y-14084900D01*
X12526500Y-14113471D01*
X12526500Y-14270614D01*
X12526500Y-14113471D02*
X12540786Y-14084900D01*
X12569357Y-14070614D01*
X12612214Y-14070614D01*
X12640786Y-14084900D01*
X12655071Y-14113471D01*
X12655071Y-14270614D01*
X13240786Y-13956329D02*
X12983643Y-14342043D01*
X13626500Y-13970614D02*
X13655071Y-13970614D01*
X13683643Y-13984900D01*
X13697928Y-13999186D01*
X13712214Y-14027757D01*
X13726500Y-14084900D01*
X13726500Y-14156329D01*
X13712214Y-14213471D01*
X13697928Y-14242043D01*
X13683643Y-14256329D01*
X13655071Y-14270614D01*
X13626500Y-14270614D01*
X13597928Y-14256329D01*
X13583643Y-14242043D01*
X13569357Y-14213471D01*
X13555071Y-14156329D01*
X13555071Y-14084900D01*
X13569357Y-14027757D01*
X13583643Y-13999186D01*
X13597928Y-13984900D01*
X13626500Y-13970614D01*
X13855071Y-14242043D02*
X13869357Y-14256329D01*
X13855071Y-14270614D01*
X13840786Y-14256329D01*
X13855071Y-14242043D01*
X13855071Y-14270614D01*
X14055071Y-13970614D02*
X14083643Y-13970614D01*
X14112214Y-13984900D01*
X14126500Y-13999186D01*
X14140785Y-14027757D01*
X14155071Y-14084900D01*
X14155071Y-14156329D01*
X14140785Y-14213471D01*
X14126500Y-14242043D01*
X14112214Y-14256329D01*
X14083643Y-14270614D01*
X14055071Y-14270614D01*
X14026500Y-14256329D01*
X14012214Y-14242043D01*
X13997928Y-14213471D01*
X13983643Y-14156329D01*
X13983643Y-14084900D01*
X13997928Y-14027757D01*
X14012214Y-13999186D01*
X14026500Y-13984900D01*
X14055071Y-13970614D01*
X14440785Y-14270614D02*
X14269357Y-14270614D01*
X14355071Y-14270614D02*
X14355071Y-13970614D01*
X14326500Y-14013471D01*
X14297928Y-14042043D01*
X14269357Y-14056329D01*
X14697928Y-13970614D02*
X14640785Y-13970614D01*
X14612214Y-13984900D01*
X14597928Y-13999186D01*
X14569357Y-14042043D01*
X14555071Y-14099186D01*
X14555071Y-14213471D01*
X14569357Y-14242043D01*
X14583643Y-14256329D01*
X14612214Y-14270614D01*
X14669357Y-14270614D01*
X14697928Y-14256329D01*
X14712214Y-14242043D01*
X14726500Y-14213471D01*
X14726500Y-14142043D01*
X14712214Y-14113471D01*
X14697928Y-14099186D01*
X14669357Y-14084900D01*
X14612214Y-14084900D01*
X14583643Y-14099186D01*
X14569357Y-14113471D01*
X14555071Y-14142043D01*
X14840786Y-13970614D02*
X14840786Y-14027757D01*
X14955071Y-13970614D02*
X14955071Y-14027757D01*
X15397928Y-14384900D02*
X15383643Y-14370614D01*
X15355071Y-14327757D01*
X15340785Y-14299186D01*
X15326500Y-14256329D01*
X15312214Y-14184900D01*
X15312214Y-14127757D01*
X15326500Y-14056329D01*
X15340785Y-14013471D01*
X15355071Y-13984900D01*
X15383643Y-13942043D01*
X15397928Y-13927757D01*
X15669357Y-14270614D02*
X15497928Y-14270614D01*
X15583643Y-14270614D02*
X15583643Y-13970614D01*
X15555071Y-14013471D01*
X15526500Y-14042043D01*
X15497928Y-14056329D01*
X15940785Y-13970614D02*
X15797928Y-13970614D01*
X15783643Y-14113471D01*
X15797928Y-14099186D01*
X15826500Y-14084900D01*
X15897928Y-14084900D01*
X15926500Y-14099186D01*
X15940785Y-14113471D01*
X15955071Y-14142043D01*
X15955071Y-14213471D01*
X15940785Y-14242043D01*
X15926500Y-14256329D01*
X15897928Y-14270614D01*
X15826500Y-14270614D01*
X15797928Y-14256329D01*
X15783643Y-14242043D01*
X16312214Y-14270614D02*
X16312214Y-13970614D01*
X16440785Y-14270614D02*
X16440785Y-14113471D01*
X16426500Y-14084900D01*
X16397928Y-14070614D01*
X16355071Y-14070614D01*
X16326500Y-14084900D01*
X16312214Y-14099186D01*
X16626500Y-14270614D02*
X16597928Y-14256329D01*
X16583643Y-14242043D01*
X16569357Y-14213471D01*
X16569357Y-14127757D01*
X16583643Y-14099186D01*
X16597928Y-14084900D01*
X16626500Y-14070614D01*
X16669357Y-14070614D01*
X16697928Y-14084900D01*
X16712214Y-14099186D01*
X16726500Y-14127757D01*
X16726500Y-14213471D01*
X16712214Y-14242043D01*
X16697928Y-14256329D01*
X16669357Y-14270614D01*
X16626500Y-14270614D01*
X16897928Y-14270614D02*
X16869357Y-14256329D01*
X16855071Y-14227757D01*
X16855071Y-13970614D01*
X17126500Y-14256329D02*
X17097929Y-14270614D01*
X17040786Y-14270614D01*
X17012214Y-14256329D01*
X16997929Y-14227757D01*
X16997929Y-14113471D01*
X17012214Y-14084900D01*
X17040786Y-14070614D01*
X17097929Y-14070614D01*
X17126500Y-14084900D01*
X17140786Y-14113471D01*
X17140786Y-14142043D01*
X16997929Y-14170614D01*
X17255071Y-14256329D02*
X17283643Y-14270614D01*
X17340786Y-14270614D01*
X17369357Y-14256329D01*
X17383643Y-14227757D01*
X17383643Y-14213471D01*
X17369357Y-14184900D01*
X17340786Y-14170614D01*
X17297929Y-14170614D01*
X17269357Y-14156329D01*
X17255071Y-14127757D01*
X17255071Y-14113471D01*
X17269357Y-14084900D01*
X17297929Y-14070614D01*
X17340786Y-14070614D01*
X17369357Y-14084900D01*
X17483643Y-14384900D02*
X17497929Y-14370614D01*
X17526500Y-14327757D01*
X17540786Y-14299186D01*
X17555071Y-14256329D01*
X17569357Y-14184900D01*
X17569357Y-14127757D01*
X17555071Y-14056329D01*
X17540786Y-14013471D01*
X17526500Y-13984900D01*
X17497929Y-13942043D01*
X17483643Y-13927757D01*
X10726500Y-14530900D02*
G75*
G03X10726500Y-14530900I-35000J0D01*
G01*
X11055071Y-14366614D02*
X11083643Y-14366614D01*
X11112214Y-14380900D01*
X11126500Y-14395186D01*
X11140786Y-14423757D01*
X11155071Y-14480900D01*
X11155071Y-14552329D01*
X11140786Y-14609471D01*
X11126500Y-14638043D01*
X11112214Y-14652329D01*
X11083643Y-14666614D01*
X11055071Y-14666614D01*
X11026500Y-14652329D01*
X11012214Y-14638043D01*
X10997929Y-14609471D01*
X10983643Y-14552329D01*
X10983643Y-14480900D01*
X10997929Y-14423757D01*
X11012214Y-14395186D01*
X11026500Y-14380900D01*
X11055071Y-14366614D01*
X11283643Y-14638043D02*
X11297928Y-14652329D01*
X11283643Y-14666614D01*
X11269357Y-14652329D01*
X11283643Y-14638043D01*
X11283643Y-14666614D01*
X11397928Y-14366614D02*
X11597928Y-14366614D01*
X11469357Y-14666614D01*
X11769357Y-14366614D02*
X11797928Y-14366614D01*
X11826500Y-14380900D01*
X11840786Y-14395186D01*
X11855071Y-14423757D01*
X11869357Y-14480900D01*
X11869357Y-14552329D01*
X11855071Y-14609471D01*
X11840786Y-14638043D01*
X11826500Y-14652329D01*
X11797928Y-14666614D01*
X11769357Y-14666614D01*
X11740786Y-14652329D01*
X11726500Y-14638043D01*
X11712214Y-14609471D01*
X11697928Y-14552329D01*
X11697928Y-14480900D01*
X11712214Y-14423757D01*
X11726500Y-14395186D01*
X11740786Y-14380900D01*
X11769357Y-14366614D01*
X11997928Y-14666614D02*
X11997928Y-14466614D01*
X11997928Y-14495186D02*
X12012214Y-14480900D01*
X12040786Y-14466614D01*
X12083643Y-14466614D01*
X12112214Y-14480900D01*
X12126500Y-14509471D01*
X12126500Y-14666614D01*
X12126500Y-14509471D02*
X12140786Y-14480900D01*
X12169357Y-14466614D01*
X12212214Y-14466614D01*
X12240786Y-14480900D01*
X12255071Y-14509471D01*
X12255071Y-14666614D01*
X12397928Y-14666614D02*
X12397928Y-14466614D01*
X12397928Y-14495186D02*
X12412214Y-14480900D01*
X12440786Y-14466614D01*
X12483643Y-14466614D01*
X12512214Y-14480900D01*
X12526500Y-14509471D01*
X12526500Y-14666614D01*
X12526500Y-14509471D02*
X12540786Y-14480900D01*
X12569357Y-14466614D01*
X12612214Y-14466614D01*
X12640786Y-14480900D01*
X12655071Y-14509471D01*
X12655071Y-14666614D01*
X13240786Y-14352329D02*
X12983643Y-14738043D01*
X13626500Y-14366614D02*
X13655071Y-14366614D01*
X13683643Y-14380900D01*
X13697928Y-14395186D01*
X13712214Y-14423757D01*
X13726500Y-14480900D01*
X13726500Y-14552329D01*
X13712214Y-14609471D01*
X13697928Y-14638043D01*
X13683643Y-14652329D01*
X13655071Y-14666614D01*
X13626500Y-14666614D01*
X13597928Y-14652329D01*
X13583643Y-14638043D01*
X13569357Y-14609471D01*
X13555071Y-14552329D01*
X13555071Y-14480900D01*
X13569357Y-14423757D01*
X13583643Y-14395186D01*
X13597928Y-14380900D01*
X13626500Y-14366614D01*
X13855071Y-14638043D02*
X13869357Y-14652329D01*
X13855071Y-14666614D01*
X13840786Y-14652329D01*
X13855071Y-14638043D01*
X13855071Y-14666614D01*
X14055071Y-14366614D02*
X14083643Y-14366614D01*
X14112214Y-14380900D01*
X14126500Y-14395186D01*
X14140785Y-14423757D01*
X14155071Y-14480900D01*
X14155071Y-14552329D01*
X14140785Y-14609471D01*
X14126500Y-14638043D01*
X14112214Y-14652329D01*
X14083643Y-14666614D01*
X14055071Y-14666614D01*
X14026500Y-14652329D01*
X14012214Y-14638043D01*
X13997928Y-14609471D01*
X13983643Y-14552329D01*
X13983643Y-14480900D01*
X13997928Y-14423757D01*
X14012214Y-14395186D01*
X14026500Y-14380900D01*
X14055071Y-14366614D01*
X14269357Y-14395186D02*
X14283643Y-14380900D01*
X14312214Y-14366614D01*
X14383643Y-14366614D01*
X14412214Y-14380900D01*
X14426500Y-14395186D01*
X14440785Y-14423757D01*
X14440785Y-14452329D01*
X14426500Y-14495186D01*
X14255071Y-14666614D01*
X14440785Y-14666614D01*
X14612214Y-14495186D02*
X14583643Y-14480900D01*
X14569357Y-14466614D01*
X14555071Y-14438043D01*
X14555071Y-14423757D01*
X14569357Y-14395186D01*
X14583643Y-14380900D01*
X14612214Y-14366614D01*
X14669357Y-14366614D01*
X14697928Y-14380900D01*
X14712214Y-14395186D01*
X14726500Y-14423757D01*
X14726500Y-14438043D01*
X14712214Y-14466614D01*
X14697928Y-14480900D01*
X14669357Y-14495186D01*
X14612214Y-14495186D01*
X14583643Y-14509471D01*
X14569357Y-14523757D01*
X14555071Y-14552329D01*
X14555071Y-14609471D01*
X14569357Y-14638043D01*
X14583643Y-14652329D01*
X14612214Y-14666614D01*
X14669357Y-14666614D01*
X14697928Y-14652329D01*
X14712214Y-14638043D01*
X14726500Y-14609471D01*
X14726500Y-14552329D01*
X14712214Y-14523757D01*
X14697928Y-14509471D01*
X14669357Y-14495186D01*
X14840786Y-14366614D02*
X14840786Y-14423757D01*
X14955071Y-14366614D02*
X14955071Y-14423757D01*
X15397928Y-14780900D02*
X15383643Y-14766614D01*
X15355071Y-14723757D01*
X15340785Y-14695186D01*
X15326500Y-14652329D01*
X15312214Y-14580900D01*
X15312214Y-14523757D01*
X15326500Y-14452329D01*
X15340785Y-14409471D01*
X15355071Y-14380900D01*
X15383643Y-14338043D01*
X15397928Y-14323757D01*
X15640785Y-14466614D02*
X15640785Y-14666614D01*
X15569357Y-14352329D02*
X15497928Y-14566614D01*
X15683643Y-14566614D01*
X16026500Y-14666614D02*
X16026500Y-14366614D01*
X16155071Y-14666614D02*
X16155071Y-14509471D01*
X16140785Y-14480900D01*
X16112214Y-14466614D01*
X16069357Y-14466614D01*
X16040785Y-14480900D01*
X16026500Y-14495186D01*
X16340785Y-14666614D02*
X16312214Y-14652329D01*
X16297928Y-14638043D01*
X16283643Y-14609471D01*
X16283643Y-14523757D01*
X16297928Y-14495186D01*
X16312214Y-14480900D01*
X16340785Y-14466614D01*
X16383643Y-14466614D01*
X16412214Y-14480900D01*
X16426500Y-14495186D01*
X16440785Y-14523757D01*
X16440785Y-14609471D01*
X16426500Y-14638043D01*
X16412214Y-14652329D01*
X16383643Y-14666614D01*
X16340785Y-14666614D01*
X16612214Y-14666614D02*
X16583643Y-14652329D01*
X16569357Y-14623757D01*
X16569357Y-14366614D01*
X16840786Y-14652329D02*
X16812214Y-14666614D01*
X16755071Y-14666614D01*
X16726500Y-14652329D01*
X16712214Y-14623757D01*
X16712214Y-14509471D01*
X16726500Y-14480900D01*
X16755071Y-14466614D01*
X16812214Y-14466614D01*
X16840786Y-14480900D01*
X16855071Y-14509471D01*
X16855071Y-14538043D01*
X16712214Y-14566614D01*
X16969357Y-14652329D02*
X16997929Y-14666614D01*
X17055071Y-14666614D01*
X17083643Y-14652329D01*
X17097929Y-14623757D01*
X17097929Y-14609471D01*
X17083643Y-14580900D01*
X17055071Y-14566614D01*
X17012214Y-14566614D01*
X16983643Y-14552329D01*
X16969357Y-14523757D01*
X16969357Y-14509471D01*
X16983643Y-14480900D01*
X17012214Y-14466614D01*
X17055071Y-14466614D01*
X17083643Y-14480900D01*
X17197928Y-14780900D02*
X17212214Y-14766614D01*
X17240786Y-14723757D01*
X17255071Y-14695186D01*
X17269357Y-14652329D01*
X17283643Y-14580900D01*
X17283643Y-14523757D01*
X17269357Y-14452329D01*
X17255071Y-14409471D01*
X17240786Y-14380900D01*
X17212214Y-14338043D01*
X17197928Y-14323757D01*
X10686500Y-14886900D02*
X10686500Y-14966900D01*
X10646500Y-14926900D02*
X10726500Y-14926900D01*
X11055071Y-14762614D02*
X11083643Y-14762614D01*
X11112214Y-14776900D01*
X11126500Y-14791186D01*
X11140786Y-14819757D01*
X11155071Y-14876900D01*
X11155071Y-14948329D01*
X11140786Y-15005471D01*
X11126500Y-15034043D01*
X11112214Y-15048329D01*
X11083643Y-15062614D01*
X11055071Y-15062614D01*
X11026500Y-15048329D01*
X11012214Y-15034043D01*
X10997929Y-15005471D01*
X10983643Y-14948329D01*
X10983643Y-14876900D01*
X10997929Y-14819757D01*
X11012214Y-14791186D01*
X11026500Y-14776900D01*
X11055071Y-14762614D01*
X11283643Y-15034043D02*
X11297928Y-15048329D01*
X11283643Y-15062614D01*
X11269357Y-15048329D01*
X11283643Y-15034043D01*
X11283643Y-15062614D01*
X11469357Y-14891186D02*
X11440786Y-14876900D01*
X11426500Y-14862614D01*
X11412214Y-14834043D01*
X11412214Y-14819757D01*
X11426500Y-14791186D01*
X11440786Y-14776900D01*
X11469357Y-14762614D01*
X11526500Y-14762614D01*
X11555071Y-14776900D01*
X11569357Y-14791186D01*
X11583643Y-14819757D01*
X11583643Y-14834043D01*
X11569357Y-14862614D01*
X11555071Y-14876900D01*
X11526500Y-14891186D01*
X11469357Y-14891186D01*
X11440786Y-14905471D01*
X11426500Y-14919757D01*
X11412214Y-14948329D01*
X11412214Y-15005471D01*
X11426500Y-15034043D01*
X11440786Y-15048329D01*
X11469357Y-15062614D01*
X11526500Y-15062614D01*
X11555071Y-15048329D01*
X11569357Y-15034043D01*
X11583643Y-15005471D01*
X11583643Y-14948329D01*
X11569357Y-14919757D01*
X11555071Y-14905471D01*
X11526500Y-14891186D01*
X11769357Y-14762614D02*
X11797928Y-14762614D01*
X11826500Y-14776900D01*
X11840786Y-14791186D01*
X11855071Y-14819757D01*
X11869357Y-14876900D01*
X11869357Y-14948329D01*
X11855071Y-15005471D01*
X11840786Y-15034043D01*
X11826500Y-15048329D01*
X11797928Y-15062614D01*
X11769357Y-15062614D01*
X11740786Y-15048329D01*
X11726500Y-15034043D01*
X11712214Y-15005471D01*
X11697928Y-14948329D01*
X11697928Y-14876900D01*
X11712214Y-14819757D01*
X11726500Y-14791186D01*
X11740786Y-14776900D01*
X11769357Y-14762614D01*
X11997928Y-15062614D02*
X11997928Y-14862614D01*
X11997928Y-14891186D02*
X12012214Y-14876900D01*
X12040786Y-14862614D01*
X12083643Y-14862614D01*
X12112214Y-14876900D01*
X12126500Y-14905471D01*
X12126500Y-15062614D01*
X12126500Y-14905471D02*
X12140786Y-14876900D01*
X12169357Y-14862614D01*
X12212214Y-14862614D01*
X12240786Y-14876900D01*
X12255071Y-14905471D01*
X12255071Y-15062614D01*
X12397928Y-15062614D02*
X12397928Y-14862614D01*
X12397928Y-14891186D02*
X12412214Y-14876900D01*
X12440786Y-14862614D01*
X12483643Y-14862614D01*
X12512214Y-14876900D01*
X12526500Y-14905471D01*
X12526500Y-15062614D01*
X12526500Y-14905471D02*
X12540786Y-14876900D01*
X12569357Y-14862614D01*
X12612214Y-14862614D01*
X12640786Y-14876900D01*
X12655071Y-14905471D01*
X12655071Y-15062614D01*
X13240786Y-14748329D02*
X12983643Y-15134043D01*
X13626500Y-14762614D02*
X13655071Y-14762614D01*
X13683643Y-14776900D01*
X13697928Y-14791186D01*
X13712214Y-14819757D01*
X13726500Y-14876900D01*
X13726500Y-14948329D01*
X13712214Y-15005471D01*
X13697928Y-15034043D01*
X13683643Y-15048329D01*
X13655071Y-15062614D01*
X13626500Y-15062614D01*
X13597928Y-15048329D01*
X13583643Y-15034043D01*
X13569357Y-15005471D01*
X13555071Y-14948329D01*
X13555071Y-14876900D01*
X13569357Y-14819757D01*
X13583643Y-14791186D01*
X13597928Y-14776900D01*
X13626500Y-14762614D01*
X13855071Y-15034043D02*
X13869357Y-15048329D01*
X13855071Y-15062614D01*
X13840786Y-15048329D01*
X13855071Y-15034043D01*
X13855071Y-15062614D01*
X14055071Y-14762614D02*
X14083643Y-14762614D01*
X14112214Y-14776900D01*
X14126500Y-14791186D01*
X14140785Y-14819757D01*
X14155071Y-14876900D01*
X14155071Y-14948329D01*
X14140785Y-15005471D01*
X14126500Y-15034043D01*
X14112214Y-15048329D01*
X14083643Y-15062614D01*
X14055071Y-15062614D01*
X14026500Y-15048329D01*
X14012214Y-15034043D01*
X13997928Y-15005471D01*
X13983643Y-14948329D01*
X13983643Y-14876900D01*
X13997928Y-14819757D01*
X14012214Y-14791186D01*
X14026500Y-14776900D01*
X14055071Y-14762614D01*
X14255071Y-14762614D02*
X14440785Y-14762614D01*
X14340785Y-14876900D01*
X14383643Y-14876900D01*
X14412214Y-14891186D01*
X14426500Y-14905471D01*
X14440785Y-14934043D01*
X14440785Y-15005471D01*
X14426500Y-15034043D01*
X14412214Y-15048329D01*
X14383643Y-15062614D01*
X14297928Y-15062614D01*
X14269357Y-15048329D01*
X14255071Y-15034043D01*
X14726500Y-15062614D02*
X14555071Y-15062614D01*
X14640785Y-15062614D02*
X14640785Y-14762614D01*
X14612214Y-14805471D01*
X14583643Y-14834043D01*
X14555071Y-14848329D01*
X14840786Y-14762614D02*
X14840786Y-14819757D01*
X14955071Y-14762614D02*
X14955071Y-14819757D01*
X15397928Y-15176900D02*
X15383643Y-15162614D01*
X15355071Y-15119757D01*
X15340785Y-15091186D01*
X15326500Y-15048329D01*
X15312214Y-14976900D01*
X15312214Y-14919757D01*
X15326500Y-14848329D01*
X15340785Y-14805471D01*
X15355071Y-14776900D01*
X15383643Y-14734043D01*
X15397928Y-14719757D01*
X15640785Y-14762614D02*
X15583643Y-14762614D01*
X15555071Y-14776900D01*
X15540785Y-14791186D01*
X15512214Y-14834043D01*
X15497928Y-14891186D01*
X15497928Y-15005471D01*
X15512214Y-15034043D01*
X15526500Y-15048329D01*
X15555071Y-15062614D01*
X15612214Y-15062614D01*
X15640785Y-15048329D01*
X15655071Y-15034043D01*
X15669357Y-15005471D01*
X15669357Y-14934043D01*
X15655071Y-14905471D01*
X15640785Y-14891186D01*
X15612214Y-14876900D01*
X15555071Y-14876900D01*
X15526500Y-14891186D01*
X15512214Y-14905471D01*
X15497928Y-14934043D01*
X16026500Y-15062614D02*
X16026500Y-14762614D01*
X16155071Y-15062614D02*
X16155071Y-14905471D01*
X16140785Y-14876900D01*
X16112214Y-14862614D01*
X16069357Y-14862614D01*
X16040785Y-14876900D01*
X16026500Y-14891186D01*
X16340785Y-15062614D02*
X16312214Y-15048329D01*
X16297928Y-15034043D01*
X16283643Y-15005471D01*
X16283643Y-14919757D01*
X16297928Y-14891186D01*
X16312214Y-14876900D01*
X16340785Y-14862614D01*
X16383643Y-14862614D01*
X16412214Y-14876900D01*
X16426500Y-14891186D01*
X16440785Y-14919757D01*
X16440785Y-15005471D01*
X16426500Y-15034043D01*
X16412214Y-15048329D01*
X16383643Y-15062614D01*
X16340785Y-15062614D01*
X16612214Y-15062614D02*
X16583643Y-15048329D01*
X16569357Y-15019757D01*
X16569357Y-14762614D01*
X16840786Y-15048329D02*
X16812214Y-15062614D01*
X16755071Y-15062614D01*
X16726500Y-15048329D01*
X16712214Y-15019757D01*
X16712214Y-14905471D01*
X16726500Y-14876900D01*
X16755071Y-14862614D01*
X16812214Y-14862614D01*
X16840786Y-14876900D01*
X16855071Y-14905471D01*
X16855071Y-14934043D01*
X16712214Y-14962614D01*
X16969357Y-15048329D02*
X16997929Y-15062614D01*
X17055071Y-15062614D01*
X17083643Y-15048329D01*
X17097929Y-15019757D01*
X17097929Y-15005471D01*
X17083643Y-14976900D01*
X17055071Y-14962614D01*
X17012214Y-14962614D01*
X16983643Y-14948329D01*
X16969357Y-14919757D01*
X16969357Y-14905471D01*
X16983643Y-14876900D01*
X17012214Y-14862614D01*
X17055071Y-14862614D01*
X17083643Y-14876900D01*
X17197928Y-15176900D02*
X17212214Y-15162614D01*
X17240786Y-15119757D01*
X17255071Y-15091186D01*
X17269357Y-15048329D01*
X17283643Y-14976900D01*
X17283643Y-14919757D01*
X17269357Y-14848329D01*
X17255071Y-14805471D01*
X17240786Y-14776900D01*
X17212214Y-14734043D01*
X17197928Y-14719757D01*
X10711856Y-15358256D02*
X10711856Y-15287544D01*
X10641144Y-15287544D01*
X10641144Y-15358256D01*
X10711856Y-15358256D01*
X11155071Y-15458614D02*
X10983643Y-15458614D01*
X11069357Y-15458614D02*
X11069357Y-15158614D01*
X11040786Y-15201471D01*
X11012214Y-15230043D01*
X10983643Y-15244329D01*
X11283643Y-15430043D02*
X11297928Y-15444329D01*
X11283643Y-15458614D01*
X11269357Y-15444329D01*
X11283643Y-15430043D01*
X11283643Y-15458614D01*
X11483643Y-15158614D02*
X11512214Y-15158614D01*
X11540786Y-15172900D01*
X11555071Y-15187186D01*
X11569357Y-15215757D01*
X11583643Y-15272900D01*
X11583643Y-15344329D01*
X11569357Y-15401471D01*
X11555071Y-15430043D01*
X11540786Y-15444329D01*
X11512214Y-15458614D01*
X11483643Y-15458614D01*
X11455071Y-15444329D01*
X11440786Y-15430043D01*
X11426500Y-15401471D01*
X11412214Y-15344329D01*
X11412214Y-15272900D01*
X11426500Y-15215757D01*
X11440786Y-15187186D01*
X11455071Y-15172900D01*
X11483643Y-15158614D01*
X11769357Y-15158614D02*
X11797928Y-15158614D01*
X11826500Y-15172900D01*
X11840786Y-15187186D01*
X11855071Y-15215757D01*
X11869357Y-15272900D01*
X11869357Y-15344329D01*
X11855071Y-15401471D01*
X11840786Y-15430043D01*
X11826500Y-15444329D01*
X11797928Y-15458614D01*
X11769357Y-15458614D01*
X11740786Y-15444329D01*
X11726500Y-15430043D01*
X11712214Y-15401471D01*
X11697928Y-15344329D01*
X11697928Y-15272900D01*
X11712214Y-15215757D01*
X11726500Y-15187186D01*
X11740786Y-15172900D01*
X11769357Y-15158614D01*
X11997928Y-15458614D02*
X11997928Y-15258614D01*
X11997928Y-15287186D02*
X12012214Y-15272900D01*
X12040786Y-15258614D01*
X12083643Y-15258614D01*
X12112214Y-15272900D01*
X12126500Y-15301471D01*
X12126500Y-15458614D01*
X12126500Y-15301471D02*
X12140786Y-15272900D01*
X12169357Y-15258614D01*
X12212214Y-15258614D01*
X12240786Y-15272900D01*
X12255071Y-15301471D01*
X12255071Y-15458614D01*
X12397928Y-15458614D02*
X12397928Y-15258614D01*
X12397928Y-15287186D02*
X12412214Y-15272900D01*
X12440786Y-15258614D01*
X12483643Y-15258614D01*
X12512214Y-15272900D01*
X12526500Y-15301471D01*
X12526500Y-15458614D01*
X12526500Y-15301471D02*
X12540786Y-15272900D01*
X12569357Y-15258614D01*
X12612214Y-15258614D01*
X12640786Y-15272900D01*
X12655071Y-15301471D01*
X12655071Y-15458614D01*
X13240786Y-15144329D02*
X12983643Y-15530043D01*
X13626500Y-15158614D02*
X13655071Y-15158614D01*
X13683643Y-15172900D01*
X13697928Y-15187186D01*
X13712214Y-15215757D01*
X13726500Y-15272900D01*
X13726500Y-15344329D01*
X13712214Y-15401471D01*
X13697928Y-15430043D01*
X13683643Y-15444329D01*
X13655071Y-15458614D01*
X13626500Y-15458614D01*
X13597928Y-15444329D01*
X13583643Y-15430043D01*
X13569357Y-15401471D01*
X13555071Y-15344329D01*
X13555071Y-15272900D01*
X13569357Y-15215757D01*
X13583643Y-15187186D01*
X13597928Y-15172900D01*
X13626500Y-15158614D01*
X13855071Y-15430043D02*
X13869357Y-15444329D01*
X13855071Y-15458614D01*
X13840786Y-15444329D01*
X13855071Y-15430043D01*
X13855071Y-15458614D01*
X14055071Y-15158614D02*
X14083643Y-15158614D01*
X14112214Y-15172900D01*
X14126500Y-15187186D01*
X14140785Y-15215757D01*
X14155071Y-15272900D01*
X14155071Y-15344329D01*
X14140785Y-15401471D01*
X14126500Y-15430043D01*
X14112214Y-15444329D01*
X14083643Y-15458614D01*
X14055071Y-15458614D01*
X14026500Y-15444329D01*
X14012214Y-15430043D01*
X13997928Y-15401471D01*
X13983643Y-15344329D01*
X13983643Y-15272900D01*
X13997928Y-15215757D01*
X14012214Y-15187186D01*
X14026500Y-15172900D01*
X14055071Y-15158614D01*
X14255071Y-15158614D02*
X14440785Y-15158614D01*
X14340785Y-15272900D01*
X14383643Y-15272900D01*
X14412214Y-15287186D01*
X14426500Y-15301471D01*
X14440785Y-15330043D01*
X14440785Y-15401471D01*
X14426500Y-15430043D01*
X14412214Y-15444329D01*
X14383643Y-15458614D01*
X14297928Y-15458614D01*
X14269357Y-15444329D01*
X14255071Y-15430043D01*
X14583643Y-15458614D02*
X14640785Y-15458614D01*
X14669357Y-15444329D01*
X14683643Y-15430043D01*
X14712214Y-15387186D01*
X14726500Y-15330043D01*
X14726500Y-15215757D01*
X14712214Y-15187186D01*
X14697928Y-15172900D01*
X14669357Y-15158614D01*
X14612214Y-15158614D01*
X14583643Y-15172900D01*
X14569357Y-15187186D01*
X14555071Y-15215757D01*
X14555071Y-15287186D01*
X14569357Y-15315757D01*
X14583643Y-15330043D01*
X14612214Y-15344329D01*
X14669357Y-15344329D01*
X14697928Y-15330043D01*
X14712214Y-15315757D01*
X14726500Y-15287186D01*
X14840786Y-15158614D02*
X14840786Y-15215757D01*
X14955071Y-15158614D02*
X14955071Y-15215757D01*
X15397928Y-15572900D02*
X15383643Y-15558614D01*
X15355071Y-15515757D01*
X15340785Y-15487186D01*
X15326500Y-15444329D01*
X15312214Y-15372900D01*
X15312214Y-15315757D01*
X15326500Y-15244329D01*
X15340785Y-15201471D01*
X15355071Y-15172900D01*
X15383643Y-15130043D01*
X15397928Y-15115757D01*
X15655071Y-15158614D02*
X15512214Y-15158614D01*
X15497928Y-15301471D01*
X15512214Y-15287186D01*
X15540785Y-15272900D01*
X15612214Y-15272900D01*
X15640785Y-15287186D01*
X15655071Y-15301471D01*
X15669357Y-15330043D01*
X15669357Y-15401471D01*
X15655071Y-15430043D01*
X15640785Y-15444329D01*
X15612214Y-15458614D01*
X15540785Y-15458614D01*
X15512214Y-15444329D01*
X15497928Y-15430043D01*
X15769357Y-15158614D02*
X15955071Y-15158614D01*
X15855071Y-15272900D01*
X15897928Y-15272900D01*
X15926500Y-15287186D01*
X15940785Y-15301471D01*
X15955071Y-15330043D01*
X15955071Y-15401471D01*
X15940785Y-15430043D01*
X15926500Y-15444329D01*
X15897928Y-15458614D01*
X15812214Y-15458614D01*
X15783643Y-15444329D01*
X15769357Y-15430043D01*
X16312214Y-15458614D02*
X16312214Y-15158614D01*
X16440785Y-15458614D02*
X16440785Y-15301471D01*
X16426500Y-15272900D01*
X16397928Y-15258614D01*
X16355071Y-15258614D01*
X16326500Y-15272900D01*
X16312214Y-15287186D01*
X16626500Y-15458614D02*
X16597928Y-15444329D01*
X16583643Y-15430043D01*
X16569357Y-15401471D01*
X16569357Y-15315757D01*
X16583643Y-15287186D01*
X16597928Y-15272900D01*
X16626500Y-15258614D01*
X16669357Y-15258614D01*
X16697928Y-15272900D01*
X16712214Y-15287186D01*
X16726500Y-15315757D01*
X16726500Y-15401471D01*
X16712214Y-15430043D01*
X16697928Y-15444329D01*
X16669357Y-15458614D01*
X16626500Y-15458614D01*
X16897928Y-15458614D02*
X16869357Y-15444329D01*
X16855071Y-15415757D01*
X16855071Y-15158614D01*
X17126500Y-15444329D02*
X17097929Y-15458614D01*
X17040786Y-15458614D01*
X17012214Y-15444329D01*
X16997929Y-15415757D01*
X16997929Y-15301471D01*
X17012214Y-15272900D01*
X17040786Y-15258614D01*
X17097929Y-15258614D01*
X17126500Y-15272900D01*
X17140786Y-15301471D01*
X17140786Y-15330043D01*
X16997929Y-15358614D01*
X17255071Y-15444329D02*
X17283643Y-15458614D01*
X17340786Y-15458614D01*
X17369357Y-15444329D01*
X17383643Y-15415757D01*
X17383643Y-15401471D01*
X17369357Y-15372900D01*
X17340786Y-15358614D01*
X17297929Y-15358614D01*
X17269357Y-15344329D01*
X17255071Y-15315757D01*
X17255071Y-15301471D01*
X17269357Y-15272900D01*
X17297929Y-15258614D01*
X17340786Y-15258614D01*
X17369357Y-15272900D01*
X17483643Y-15572900D02*
X17497929Y-15558614D01*
X17526500Y-15515757D01*
X17540786Y-15487186D01*
X17555071Y-15444329D01*
X17569357Y-15372900D01*
X17569357Y-15315757D01*
X17555071Y-15244329D01*
X17540786Y-15201471D01*
X17526500Y-15172900D01*
X17497929Y-15130043D01*
X17483643Y-15115757D01*
X10676462Y-15768938D02*
X10726500Y-15718900D01*
X10676462Y-15668862D01*
X10626424Y-15718900D01*
X10676462Y-15768938D01*
X11155071Y-15854614D02*
X10983643Y-15854614D01*
X11069357Y-15854614D02*
X11069357Y-15554614D01*
X11040786Y-15597471D01*
X11012214Y-15626043D01*
X10983643Y-15640329D01*
X11283643Y-15826043D02*
X11297928Y-15840329D01*
X11283643Y-15854614D01*
X11269357Y-15840329D01*
X11283643Y-15826043D01*
X11283643Y-15854614D01*
X11483643Y-15554614D02*
X11512214Y-15554614D01*
X11540786Y-15568900D01*
X11555071Y-15583186D01*
X11569357Y-15611757D01*
X11583643Y-15668900D01*
X11583643Y-15740329D01*
X11569357Y-15797471D01*
X11555071Y-15826043D01*
X11540786Y-15840329D01*
X11512214Y-15854614D01*
X11483643Y-15854614D01*
X11455071Y-15840329D01*
X11440786Y-15826043D01*
X11426500Y-15797471D01*
X11412214Y-15740329D01*
X11412214Y-15668900D01*
X11426500Y-15611757D01*
X11440786Y-15583186D01*
X11455071Y-15568900D01*
X11483643Y-15554614D01*
X11769357Y-15554614D02*
X11797928Y-15554614D01*
X11826500Y-15568900D01*
X11840786Y-15583186D01*
X11855071Y-15611757D01*
X11869357Y-15668900D01*
X11869357Y-15740329D01*
X11855071Y-15797471D01*
X11840786Y-15826043D01*
X11826500Y-15840329D01*
X11797928Y-15854614D01*
X11769357Y-15854614D01*
X11740786Y-15840329D01*
X11726500Y-15826043D01*
X11712214Y-15797471D01*
X11697928Y-15740329D01*
X11697928Y-15668900D01*
X11712214Y-15611757D01*
X11726500Y-15583186D01*
X11740786Y-15568900D01*
X11769357Y-15554614D01*
X11997928Y-15854614D02*
X11997928Y-15654614D01*
X11997928Y-15683186D02*
X12012214Y-15668900D01*
X12040786Y-15654614D01*
X12083643Y-15654614D01*
X12112214Y-15668900D01*
X12126500Y-15697471D01*
X12126500Y-15854614D01*
X12126500Y-15697471D02*
X12140786Y-15668900D01*
X12169357Y-15654614D01*
X12212214Y-15654614D01*
X12240786Y-15668900D01*
X12255071Y-15697471D01*
X12255071Y-15854614D01*
X12397928Y-15854614D02*
X12397928Y-15654614D01*
X12397928Y-15683186D02*
X12412214Y-15668900D01*
X12440786Y-15654614D01*
X12483643Y-15654614D01*
X12512214Y-15668900D01*
X12526500Y-15697471D01*
X12526500Y-15854614D01*
X12526500Y-15697471D02*
X12540786Y-15668900D01*
X12569357Y-15654614D01*
X12612214Y-15654614D01*
X12640786Y-15668900D01*
X12655071Y-15697471D01*
X12655071Y-15854614D01*
X13240786Y-15540329D02*
X12983643Y-15926043D01*
X13626500Y-15554614D02*
X13655071Y-15554614D01*
X13683643Y-15568900D01*
X13697928Y-15583186D01*
X13712214Y-15611757D01*
X13726500Y-15668900D01*
X13726500Y-15740329D01*
X13712214Y-15797471D01*
X13697928Y-15826043D01*
X13683643Y-15840329D01*
X13655071Y-15854614D01*
X13626500Y-15854614D01*
X13597928Y-15840329D01*
X13583643Y-15826043D01*
X13569357Y-15797471D01*
X13555071Y-15740329D01*
X13555071Y-15668900D01*
X13569357Y-15611757D01*
X13583643Y-15583186D01*
X13597928Y-15568900D01*
X13626500Y-15554614D01*
X13855071Y-15826043D02*
X13869357Y-15840329D01*
X13855071Y-15854614D01*
X13840786Y-15840329D01*
X13855071Y-15826043D01*
X13855071Y-15854614D01*
X14055071Y-15554614D02*
X14083643Y-15554614D01*
X14112214Y-15568900D01*
X14126500Y-15583186D01*
X14140785Y-15611757D01*
X14155071Y-15668900D01*
X14155071Y-15740329D01*
X14140785Y-15797471D01*
X14126500Y-15826043D01*
X14112214Y-15840329D01*
X14083643Y-15854614D01*
X14055071Y-15854614D01*
X14026500Y-15840329D01*
X14012214Y-15826043D01*
X13997928Y-15797471D01*
X13983643Y-15740329D01*
X13983643Y-15668900D01*
X13997928Y-15611757D01*
X14012214Y-15583186D01*
X14026500Y-15568900D01*
X14055071Y-15554614D01*
X14255071Y-15554614D02*
X14440785Y-15554614D01*
X14340785Y-15668900D01*
X14383643Y-15668900D01*
X14412214Y-15683186D01*
X14426500Y-15697471D01*
X14440785Y-15726043D01*
X14440785Y-15797471D01*
X14426500Y-15826043D01*
X14412214Y-15840329D01*
X14383643Y-15854614D01*
X14297928Y-15854614D01*
X14269357Y-15840329D01*
X14255071Y-15826043D01*
X14583643Y-15854614D02*
X14640785Y-15854614D01*
X14669357Y-15840329D01*
X14683643Y-15826043D01*
X14712214Y-15783186D01*
X14726500Y-15726043D01*
X14726500Y-15611757D01*
X14712214Y-15583186D01*
X14697928Y-15568900D01*
X14669357Y-15554614D01*
X14612214Y-15554614D01*
X14583643Y-15568900D01*
X14569357Y-15583186D01*
X14555071Y-15611757D01*
X14555071Y-15683186D01*
X14569357Y-15711757D01*
X14583643Y-15726043D01*
X14612214Y-15740329D01*
X14669357Y-15740329D01*
X14697928Y-15726043D01*
X14712214Y-15711757D01*
X14726500Y-15683186D01*
X14840786Y-15554614D02*
X14840786Y-15611757D01*
X14955071Y-15554614D02*
X14955071Y-15611757D01*
X15397928Y-15968900D02*
X15383643Y-15954614D01*
X15355071Y-15911757D01*
X15340785Y-15883186D01*
X15326500Y-15840329D01*
X15312214Y-15768900D01*
X15312214Y-15711757D01*
X15326500Y-15640329D01*
X15340785Y-15597471D01*
X15355071Y-15568900D01*
X15383643Y-15526043D01*
X15397928Y-15511757D01*
X15669357Y-15854614D02*
X15497928Y-15854614D01*
X15583643Y-15854614D02*
X15583643Y-15554614D01*
X15555071Y-15597471D01*
X15526500Y-15626043D01*
X15497928Y-15640329D01*
X15926500Y-15554614D02*
X15869357Y-15554614D01*
X15840785Y-15568900D01*
X15826500Y-15583186D01*
X15797928Y-15626043D01*
X15783643Y-15683186D01*
X15783643Y-15797471D01*
X15797928Y-15826043D01*
X15812214Y-15840329D01*
X15840785Y-15854614D01*
X15897928Y-15854614D01*
X15926500Y-15840329D01*
X15940785Y-15826043D01*
X15955071Y-15797471D01*
X15955071Y-15726043D01*
X15940785Y-15697471D01*
X15926500Y-15683186D01*
X15897928Y-15668900D01*
X15840785Y-15668900D01*
X15812214Y-15683186D01*
X15797928Y-15697471D01*
X15783643Y-15726043D01*
X16312214Y-15854614D02*
X16312214Y-15554614D01*
X16440785Y-15854614D02*
X16440785Y-15697471D01*
X16426500Y-15668900D01*
X16397928Y-15654614D01*
X16355071Y-15654614D01*
X16326500Y-15668900D01*
X16312214Y-15683186D01*
X16626500Y-15854614D02*
X16597928Y-15840329D01*
X16583643Y-15826043D01*
X16569357Y-15797471D01*
X16569357Y-15711757D01*
X16583643Y-15683186D01*
X16597928Y-15668900D01*
X16626500Y-15654614D01*
X16669357Y-15654614D01*
X16697928Y-15668900D01*
X16712214Y-15683186D01*
X16726500Y-15711757D01*
X16726500Y-15797471D01*
X16712214Y-15826043D01*
X16697928Y-15840329D01*
X16669357Y-15854614D01*
X16626500Y-15854614D01*
X16897928Y-15854614D02*
X16869357Y-15840329D01*
X16855071Y-15811757D01*
X16855071Y-15554614D01*
X17126500Y-15840329D02*
X17097929Y-15854614D01*
X17040786Y-15854614D01*
X17012214Y-15840329D01*
X16997929Y-15811757D01*
X16997929Y-15697471D01*
X17012214Y-15668900D01*
X17040786Y-15654614D01*
X17097929Y-15654614D01*
X17126500Y-15668900D01*
X17140786Y-15697471D01*
X17140786Y-15726043D01*
X16997929Y-15754614D01*
X17255071Y-15840329D02*
X17283643Y-15854614D01*
X17340786Y-15854614D01*
X17369357Y-15840329D01*
X17383643Y-15811757D01*
X17383643Y-15797471D01*
X17369357Y-15768900D01*
X17340786Y-15754614D01*
X17297929Y-15754614D01*
X17269357Y-15740329D01*
X17255071Y-15711757D01*
X17255071Y-15697471D01*
X17269357Y-15668900D01*
X17297929Y-15654614D01*
X17340786Y-15654614D01*
X17369357Y-15668900D01*
X17483643Y-15968900D02*
X17497929Y-15954614D01*
X17526500Y-15911757D01*
X17540786Y-15883186D01*
X17555071Y-15840329D01*
X17569357Y-15768900D01*
X17569357Y-15711757D01*
X17555071Y-15640329D01*
X17540786Y-15597471D01*
X17526500Y-15568900D01*
X17497929Y-15526043D01*
X17483643Y-15511757D01*
X10496500Y-15999900D02*
X10726500Y-16229900D01*
X10726500Y-15999900D02*
X10496500Y-16229900D01*
X10726500Y-16114900D02*
G75*
G03X10726500Y-16114900I-115000J0D01*
G01*
X10983643Y-15979186D02*
X10997929Y-15964900D01*
X11026500Y-15950614D01*
X11097929Y-15950614D01*
X11126500Y-15964900D01*
X11140786Y-15979186D01*
X11155071Y-16007757D01*
X11155071Y-16036329D01*
X11140786Y-16079186D01*
X10969357Y-16250614D01*
X11155071Y-16250614D01*
X11283643Y-16222043D02*
X11297928Y-16236329D01*
X11283643Y-16250614D01*
X11269357Y-16236329D01*
X11283643Y-16222043D01*
X11283643Y-16250614D01*
X11397928Y-15950614D02*
X11583643Y-15950614D01*
X11483643Y-16064900D01*
X11526500Y-16064900D01*
X11555071Y-16079186D01*
X11569357Y-16093471D01*
X11583643Y-16122043D01*
X11583643Y-16193471D01*
X11569357Y-16222043D01*
X11555071Y-16236329D01*
X11526500Y-16250614D01*
X11440786Y-16250614D01*
X11412214Y-16236329D01*
X11397928Y-16222043D01*
X11769357Y-15950614D02*
X11797928Y-15950614D01*
X11826500Y-15964900D01*
X11840786Y-15979186D01*
X11855071Y-16007757D01*
X11869357Y-16064900D01*
X11869357Y-16136329D01*
X11855071Y-16193471D01*
X11840786Y-16222043D01*
X11826500Y-16236329D01*
X11797928Y-16250614D01*
X11769357Y-16250614D01*
X11740786Y-16236329D01*
X11726500Y-16222043D01*
X11712214Y-16193471D01*
X11697928Y-16136329D01*
X11697928Y-16064900D01*
X11712214Y-16007757D01*
X11726500Y-15979186D01*
X11740786Y-15964900D01*
X11769357Y-15950614D01*
X11997928Y-16250614D02*
X11997928Y-16050614D01*
X11997928Y-16079186D02*
X12012214Y-16064900D01*
X12040786Y-16050614D01*
X12083643Y-16050614D01*
X12112214Y-16064900D01*
X12126500Y-16093471D01*
X12126500Y-16250614D01*
X12126500Y-16093471D02*
X12140786Y-16064900D01*
X12169357Y-16050614D01*
X12212214Y-16050614D01*
X12240786Y-16064900D01*
X12255071Y-16093471D01*
X12255071Y-16250614D01*
X12397928Y-16250614D02*
X12397928Y-16050614D01*
X12397928Y-16079186D02*
X12412214Y-16064900D01*
X12440786Y-16050614D01*
X12483643Y-16050614D01*
X12512214Y-16064900D01*
X12526500Y-16093471D01*
X12526500Y-16250614D01*
X12526500Y-16093471D02*
X12540786Y-16064900D01*
X12569357Y-16050614D01*
X12612214Y-16050614D01*
X12640786Y-16064900D01*
X12655071Y-16093471D01*
X12655071Y-16250614D01*
X13240786Y-15936329D02*
X12983643Y-16322043D01*
X13626500Y-15950614D02*
X13655071Y-15950614D01*
X13683643Y-15964900D01*
X13697928Y-15979186D01*
X13712214Y-16007757D01*
X13726500Y-16064900D01*
X13726500Y-16136329D01*
X13712214Y-16193471D01*
X13697928Y-16222043D01*
X13683643Y-16236329D01*
X13655071Y-16250614D01*
X13626500Y-16250614D01*
X13597928Y-16236329D01*
X13583643Y-16222043D01*
X13569357Y-16193471D01*
X13555071Y-16136329D01*
X13555071Y-16064900D01*
X13569357Y-16007757D01*
X13583643Y-15979186D01*
X13597928Y-15964900D01*
X13626500Y-15950614D01*
X13855071Y-16222043D02*
X13869357Y-16236329D01*
X13855071Y-16250614D01*
X13840786Y-16236329D01*
X13855071Y-16222043D01*
X13855071Y-16250614D01*
X14055071Y-15950614D02*
X14083643Y-15950614D01*
X14112214Y-15964900D01*
X14126500Y-15979186D01*
X14140785Y-16007757D01*
X14155071Y-16064900D01*
X14155071Y-16136329D01*
X14140785Y-16193471D01*
X14126500Y-16222043D01*
X14112214Y-16236329D01*
X14083643Y-16250614D01*
X14055071Y-16250614D01*
X14026500Y-16236329D01*
X14012214Y-16222043D01*
X13997928Y-16193471D01*
X13983643Y-16136329D01*
X13983643Y-16064900D01*
X13997928Y-16007757D01*
X14012214Y-15979186D01*
X14026500Y-15964900D01*
X14055071Y-15950614D01*
X14297928Y-16250614D02*
X14355071Y-16250614D01*
X14383643Y-16236329D01*
X14397928Y-16222043D01*
X14426500Y-16179186D01*
X14440785Y-16122043D01*
X14440785Y-16007757D01*
X14426500Y-15979186D01*
X14412214Y-15964900D01*
X14383643Y-15950614D01*
X14326500Y-15950614D01*
X14297928Y-15964900D01*
X14283643Y-15979186D01*
X14269357Y-16007757D01*
X14269357Y-16079186D01*
X14283643Y-16107757D01*
X14297928Y-16122043D01*
X14326500Y-16136329D01*
X14383643Y-16136329D01*
X14412214Y-16122043D01*
X14426500Y-16107757D01*
X14440785Y-16079186D01*
X14726500Y-16250614D02*
X14555071Y-16250614D01*
X14640785Y-16250614D02*
X14640785Y-15950614D01*
X14612214Y-15993471D01*
X14583643Y-16022043D01*
X14555071Y-16036329D01*
X14840786Y-15950614D02*
X14840786Y-16007757D01*
X14955071Y-15950614D02*
X14955071Y-16007757D01*
X15397928Y-16364900D02*
X15383643Y-16350614D01*
X15355071Y-16307757D01*
X15340785Y-16279186D01*
X15326500Y-16236329D01*
X15312214Y-16164900D01*
X15312214Y-16107757D01*
X15326500Y-16036329D01*
X15340785Y-15993471D01*
X15355071Y-15964900D01*
X15383643Y-15922043D01*
X15397928Y-15907757D01*
X15497928Y-15979186D02*
X15512214Y-15964900D01*
X15540785Y-15950614D01*
X15612214Y-15950614D01*
X15640785Y-15964900D01*
X15655071Y-15979186D01*
X15669357Y-16007757D01*
X15669357Y-16036329D01*
X15655071Y-16079186D01*
X15483643Y-16250614D01*
X15669357Y-16250614D01*
X16026500Y-16250614D02*
X16026500Y-15950614D01*
X16155071Y-16250614D02*
X16155071Y-16093471D01*
X16140785Y-16064900D01*
X16112214Y-16050614D01*
X16069357Y-16050614D01*
X16040785Y-16064900D01*
X16026500Y-16079186D01*
X16340785Y-16250614D02*
X16312214Y-16236329D01*
X16297928Y-16222043D01*
X16283643Y-16193471D01*
X16283643Y-16107757D01*
X16297928Y-16079186D01*
X16312214Y-16064900D01*
X16340785Y-16050614D01*
X16383643Y-16050614D01*
X16412214Y-16064900D01*
X16426500Y-16079186D01*
X16440785Y-16107757D01*
X16440785Y-16193471D01*
X16426500Y-16222043D01*
X16412214Y-16236329D01*
X16383643Y-16250614D01*
X16340785Y-16250614D01*
X16612214Y-16250614D02*
X16583643Y-16236329D01*
X16569357Y-16207757D01*
X16569357Y-15950614D01*
X16840786Y-16236329D02*
X16812214Y-16250614D01*
X16755071Y-16250614D01*
X16726500Y-16236329D01*
X16712214Y-16207757D01*
X16712214Y-16093471D01*
X16726500Y-16064900D01*
X16755071Y-16050614D01*
X16812214Y-16050614D01*
X16840786Y-16064900D01*
X16855071Y-16093471D01*
X16855071Y-16122043D01*
X16712214Y-16150614D01*
X16969357Y-16236329D02*
X16997929Y-16250614D01*
X17055071Y-16250614D01*
X17083643Y-16236329D01*
X17097929Y-16207757D01*
X17097929Y-16193471D01*
X17083643Y-16164900D01*
X17055071Y-16150614D01*
X17012214Y-16150614D01*
X16983643Y-16136329D01*
X16969357Y-16107757D01*
X16969357Y-16093471D01*
X16983643Y-16064900D01*
X17012214Y-16050614D01*
X17055071Y-16050614D01*
X17083643Y-16064900D01*
X17197928Y-16364900D02*
X17212214Y-16350614D01*
X17240786Y-16307757D01*
X17255071Y-16279186D01*
X17269357Y-16236329D01*
X17283643Y-16164900D01*
X17283643Y-16107757D01*
X17269357Y-16036329D01*
X17255071Y-15993471D01*
X17240786Y-15964900D01*
X17212214Y-15922043D01*
X17197928Y-15907757D01*
X10476564Y-16385932D02*
X10726500Y-16635868D01*
X10726500Y-16385932D02*
X10476564Y-16635868D01*
X10601532Y-16385932D02*
X10601532Y-16635868D01*
X10476564Y-16510900D02*
X10726500Y-16510900D01*
X10983643Y-16375186D02*
X10997929Y-16360900D01*
X11026500Y-16346614D01*
X11097929Y-16346614D01*
X11126500Y-16360900D01*
X11140786Y-16375186D01*
X11155071Y-16403757D01*
X11155071Y-16432329D01*
X11140786Y-16475186D01*
X10969357Y-16646614D01*
X11155071Y-16646614D01*
X11283643Y-16618043D02*
X11297928Y-16632329D01*
X11283643Y-16646614D01*
X11269357Y-16632329D01*
X11283643Y-16618043D01*
X11283643Y-16646614D01*
X11569357Y-16346614D02*
X11426500Y-16346614D01*
X11412214Y-16489471D01*
X11426500Y-16475186D01*
X11455071Y-16460900D01*
X11526500Y-16460900D01*
X11555071Y-16475186D01*
X11569357Y-16489471D01*
X11583643Y-16518043D01*
X11583643Y-16589471D01*
X11569357Y-16618043D01*
X11555071Y-16632329D01*
X11526500Y-16646614D01*
X11455071Y-16646614D01*
X11426500Y-16632329D01*
X11412214Y-16618043D01*
X11769357Y-16346614D02*
X11797928Y-16346614D01*
X11826500Y-16360900D01*
X11840786Y-16375186D01*
X11855071Y-16403757D01*
X11869357Y-16460900D01*
X11869357Y-16532329D01*
X11855071Y-16589471D01*
X11840786Y-16618043D01*
X11826500Y-16632329D01*
X11797928Y-16646614D01*
X11769357Y-16646614D01*
X11740786Y-16632329D01*
X11726500Y-16618043D01*
X11712214Y-16589471D01*
X11697928Y-16532329D01*
X11697928Y-16460900D01*
X11712214Y-16403757D01*
X11726500Y-16375186D01*
X11740786Y-16360900D01*
X11769357Y-16346614D01*
X11997928Y-16646614D02*
X11997928Y-16446614D01*
X11997928Y-16475186D02*
X12012214Y-16460900D01*
X12040786Y-16446614D01*
X12083643Y-16446614D01*
X12112214Y-16460900D01*
X12126500Y-16489471D01*
X12126500Y-16646614D01*
X12126500Y-16489471D02*
X12140786Y-16460900D01*
X12169357Y-16446614D01*
X12212214Y-16446614D01*
X12240786Y-16460900D01*
X12255071Y-16489471D01*
X12255071Y-16646614D01*
X12397928Y-16646614D02*
X12397928Y-16446614D01*
X12397928Y-16475186D02*
X12412214Y-16460900D01*
X12440786Y-16446614D01*
X12483643Y-16446614D01*
X12512214Y-16460900D01*
X12526500Y-16489471D01*
X12526500Y-16646614D01*
X12526500Y-16489471D02*
X12540786Y-16460900D01*
X12569357Y-16446614D01*
X12612214Y-16446614D01*
X12640786Y-16460900D01*
X12655071Y-16489471D01*
X12655071Y-16646614D01*
X13240786Y-16332329D02*
X12983643Y-16718043D01*
X13626500Y-16346614D02*
X13655071Y-16346614D01*
X13683643Y-16360900D01*
X13697928Y-16375186D01*
X13712214Y-16403757D01*
X13726500Y-16460900D01*
X13726500Y-16532329D01*
X13712214Y-16589471D01*
X13697928Y-16618043D01*
X13683643Y-16632329D01*
X13655071Y-16646614D01*
X13626500Y-16646614D01*
X13597928Y-16632329D01*
X13583643Y-16618043D01*
X13569357Y-16589471D01*
X13555071Y-16532329D01*
X13555071Y-16460900D01*
X13569357Y-16403757D01*
X13583643Y-16375186D01*
X13597928Y-16360900D01*
X13626500Y-16346614D01*
X13855071Y-16618043D02*
X13869357Y-16632329D01*
X13855071Y-16646614D01*
X13840786Y-16632329D01*
X13855071Y-16618043D01*
X13855071Y-16646614D01*
X14055071Y-16346614D02*
X14083643Y-16346614D01*
X14112214Y-16360900D01*
X14126500Y-16375186D01*
X14140785Y-16403757D01*
X14155071Y-16460900D01*
X14155071Y-16532329D01*
X14140785Y-16589471D01*
X14126500Y-16618043D01*
X14112214Y-16632329D01*
X14083643Y-16646614D01*
X14055071Y-16646614D01*
X14026500Y-16632329D01*
X14012214Y-16618043D01*
X13997928Y-16589471D01*
X13983643Y-16532329D01*
X13983643Y-16460900D01*
X13997928Y-16403757D01*
X14012214Y-16375186D01*
X14026500Y-16360900D01*
X14055071Y-16346614D01*
X14297928Y-16646614D02*
X14355071Y-16646614D01*
X14383643Y-16632329D01*
X14397928Y-16618043D01*
X14426500Y-16575186D01*
X14440785Y-16518043D01*
X14440785Y-16403757D01*
X14426500Y-16375186D01*
X14412214Y-16360900D01*
X14383643Y-16346614D01*
X14326500Y-16346614D01*
X14297928Y-16360900D01*
X14283643Y-16375186D01*
X14269357Y-16403757D01*
X14269357Y-16475186D01*
X14283643Y-16503757D01*
X14297928Y-16518043D01*
X14326500Y-16532329D01*
X14383643Y-16532329D01*
X14412214Y-16518043D01*
X14426500Y-16503757D01*
X14440785Y-16475186D01*
X14612214Y-16475186D02*
X14583643Y-16460900D01*
X14569357Y-16446614D01*
X14555071Y-16418043D01*
X14555071Y-16403757D01*
X14569357Y-16375186D01*
X14583643Y-16360900D01*
X14612214Y-16346614D01*
X14669357Y-16346614D01*
X14697928Y-16360900D01*
X14712214Y-16375186D01*
X14726500Y-16403757D01*
X14726500Y-16418043D01*
X14712214Y-16446614D01*
X14697928Y-16460900D01*
X14669357Y-16475186D01*
X14612214Y-16475186D01*
X14583643Y-16489471D01*
X14569357Y-16503757D01*
X14555071Y-16532329D01*
X14555071Y-16589471D01*
X14569357Y-16618043D01*
X14583643Y-16632329D01*
X14612214Y-16646614D01*
X14669357Y-16646614D01*
X14697928Y-16632329D01*
X14712214Y-16618043D01*
X14726500Y-16589471D01*
X14726500Y-16532329D01*
X14712214Y-16503757D01*
X14697928Y-16489471D01*
X14669357Y-16475186D01*
X14840786Y-16346614D02*
X14840786Y-16403757D01*
X14955071Y-16346614D02*
X14955071Y-16403757D01*
X15397928Y-16760900D02*
X15383643Y-16746614D01*
X15355071Y-16703757D01*
X15340785Y-16675186D01*
X15326500Y-16632329D01*
X15312214Y-16560900D01*
X15312214Y-16503757D01*
X15326500Y-16432329D01*
X15340785Y-16389471D01*
X15355071Y-16360900D01*
X15383643Y-16318043D01*
X15397928Y-16303757D01*
X15640785Y-16446614D02*
X15640785Y-16646614D01*
X15569357Y-16332329D02*
X15497928Y-16546614D01*
X15683643Y-16546614D01*
X16026500Y-16646614D02*
X16026500Y-16346614D01*
X16155071Y-16646614D02*
X16155071Y-16489471D01*
X16140785Y-16460900D01*
X16112214Y-16446614D01*
X16069357Y-16446614D01*
X16040785Y-16460900D01*
X16026500Y-16475186D01*
X16340785Y-16646614D02*
X16312214Y-16632329D01*
X16297928Y-16618043D01*
X16283643Y-16589471D01*
X16283643Y-16503757D01*
X16297928Y-16475186D01*
X16312214Y-16460900D01*
X16340785Y-16446614D01*
X16383643Y-16446614D01*
X16412214Y-16460900D01*
X16426500Y-16475186D01*
X16440785Y-16503757D01*
X16440785Y-16589471D01*
X16426500Y-16618043D01*
X16412214Y-16632329D01*
X16383643Y-16646614D01*
X16340785Y-16646614D01*
X16612214Y-16646614D02*
X16583643Y-16632329D01*
X16569357Y-16603757D01*
X16569357Y-16346614D01*
X16840786Y-16632329D02*
X16812214Y-16646614D01*
X16755071Y-16646614D01*
X16726500Y-16632329D01*
X16712214Y-16603757D01*
X16712214Y-16489471D01*
X16726500Y-16460900D01*
X16755071Y-16446614D01*
X16812214Y-16446614D01*
X16840786Y-16460900D01*
X16855071Y-16489471D01*
X16855071Y-16518043D01*
X16712214Y-16546614D01*
X16969357Y-16632329D02*
X16997929Y-16646614D01*
X17055071Y-16646614D01*
X17083643Y-16632329D01*
X17097929Y-16603757D01*
X17097929Y-16589471D01*
X17083643Y-16560900D01*
X17055071Y-16546614D01*
X17012214Y-16546614D01*
X16983643Y-16532329D01*
X16969357Y-16503757D01*
X16969357Y-16489471D01*
X16983643Y-16460900D01*
X17012214Y-16446614D01*
X17055071Y-16446614D01*
X17083643Y-16460900D01*
X17197928Y-16760900D02*
X17212214Y-16746614D01*
X17240786Y-16703757D01*
X17255071Y-16675186D01*
X17269357Y-16632329D01*
X17283643Y-16560900D01*
X17283643Y-16503757D01*
X17269357Y-16432329D01*
X17255071Y-16389471D01*
X17240786Y-16360900D01*
X17212214Y-16318043D01*
X17197928Y-16303757D01*
M02*
