M48
;DRILL file {KiCad 4.0.4-stable} date 02/14/17 18:31:35
;FORMAT={-:-/ absolute / metric / decimal}
FMAT,2
METRIC,TZ
T1C0.400
T2C0.700
T3C0.800
T4C1.000
T5C1.001
T6C2.300
T7C2.499
%
G90
G05
M71
T1
X122.555Y-91.186
X122.809Y-81.28
X130.556Y-112.649
X136.017Y-76.962
X145.796Y-87.122
X147.447Y-73.406
X148.971Y-74.549
X150.495Y-80.772
X156.337Y-87.122
X156.464Y-73.025
X157.988Y-76.835
X159.004Y-80.899
X161.417Y-96.901
X177.546Y-125.222
X180.975Y-81.534
T2
X131.572Y-80.518
X139.192Y-80.518
X165.1Y-72.771
X172.72Y-72.771
T3
X110.744Y-116.031
X110.744Y-121.031
X123.524Y-107.188
X123.651Y-128.905
X128.524Y-107.188
X128.651Y-128.905
T4
X112.268Y-109.093
X112.268Y-111.633
X119.175Y-116.745
X119.175Y-120.745
X133.175Y-116.745
X133.175Y-118.745
X133.175Y-120.745
X143.272Y-108.507
X143.272Y-128.507
X145.812Y-108.507
X145.812Y-128.507
X148.352Y-108.507
X148.352Y-128.507
X148.717Y-84.583
X148.717Y-100.583
X150.892Y-108.507
X150.892Y-128.507
X151.257Y-84.583
X151.257Y-100.583
X153.432Y-108.507
X153.432Y-128.507
X153.797Y-84.583
X153.797Y-100.583
X155.972Y-108.507
X155.972Y-128.507
X156.337Y-84.583
X156.337Y-100.583
X158.512Y-108.507
X158.512Y-128.507
X158.877Y-84.583
X158.877Y-100.583
X161.052Y-108.507
X161.052Y-128.507
X161.417Y-84.583
X161.417Y-100.583
X163.592Y-108.507
X163.592Y-128.507
X163.957Y-84.583
X163.957Y-100.583
X166.132Y-108.507
X166.132Y-128.507
X166.497Y-84.583
X166.497Y-100.583
X169.037Y-84.583
X169.037Y-100.583
X171.577Y-84.583
X171.577Y-100.583
X174.117Y-84.583
X174.117Y-100.583
X176.657Y-84.583
X176.657Y-100.583
X185.928Y-116.713
X185.928Y-119.253
T5
X115.979Y-70.498
X118.519Y-70.498
X121.059Y-70.498
X123.599Y-70.498
X126.139Y-70.498
X128.679Y-70.498
X131.219Y-70.498
X133.759Y-70.498
X136.299Y-70.498
X138.839Y-70.498
X141.379Y-70.498
X143.919Y-70.498
X146.459Y-70.498
X148.999Y-70.498
X151.539Y-70.498
X154.079Y-70.498
T6
X126.175Y-113.745
X126.175Y-123.745
T7
X110.98Y-70.797
X110.98Y-101.798
X185.979Y-101.798
X186.03Y-70.797
T0
M30
